<svg width="890" height="340" viewBox="0 0 890 340" xmlns="http://www.w3.org/2000/svg">
    <path class="uk-fill-primary" fill="#c6e3f7" d="M877.5 3.4c-83 23.5-161.4 43.9-245.3 64.2-23.7 5.7-47.4 11.3-71.1 16.8-4.3 1-4.4 5.9-2 8.3-.4 1.5-.1 3.1 1.2 4.5 13.1 14.1 26.9 27.6 41.3 40.4-3.8 25.9-5.3 52-4.3 78.2.2 5.8 8.5 6.4 9.8 1.6.5-.1.9-.3 1.4-.6 8.8-5.3 35.3-21.2 39.7-23.8 3.6-2.1 8.3-6.5 12.6-4.6 3.6 1.7 6.9 5.9 10 8.4 3.4 2.7 17.2 12 20.8 14.4 7.5 4.9 8.6 5.8 18.1-2.7 11.4-9 20.9-20.5 30.7-31 12.7-13.6 25.5-27.2 38.2-40.8 25.1-26.8 50.4-53.4 75.2-80.4C867 41.9 873.2 30 884.5 14.2c4.6-7.4.1-13.8-7-10.8zm-63.2 79.8c-24.8 26.5-49.7 52.5-74.5 79-6.8 7.3-33.1 34.7-40.5 42.4.1-.5-2.8-2.1-8.6-6.2-6.6-4.7-23.4-16.9-32.4-23.3-4 3.2-41 27.1-51.3 32.3.7-22.8 2.8-47.9 5.3-70.4.1-1.2.4-2.8-1-4.2-13.7-13.2-28-26.4-41.6-39.9 83.9-22.1 286.3-76.7 310-82.6 0 4-44.2 50.3-65.4 72.9z"/>
    <path class="uk-fill-default" opacity=".04" d="M748.8 73c-16.2 7.1-125.8 56.9-136.5 61.2-2.9 22.4-5.2 69.3-5.2 73.3 7.3-2.7 47.8-29 51-32.6-4.2-3.2-21.9-15-21.6-15.5 41.4-26 211.9-130.4 219.6-135.7C839.8 30 756 69.5 748.8 73zm-49.7 131.5c-3.2-2.6-31.6-23.2-35.4-25.4 21.1-8.3 42.2-16.5 62.3-27 8.8-4.6 17.5-9.6 26-14.8l4.8-3.6a3 3 0 0 1 2.3-.7c8.4-5.3 16.2-11.3 24.5-16.8-6.6 6.3-81.1 86.1-84.5 88.3z"/>
    <path class="uk-fill-default" opacity=".16" d="M658 174.9c-4.6-3.2-18.3-12-21.9-15.3-1 1.6 154.6-97.8 152.9-95-.8-1.8-167.6 83.7-169.5 84.5l-10.7 28.7c-.6 4.1-2 12.2-1.7 29.7 11.5-5.7 43.6-26.1 50.9-32.6z"/>
    <path class="uk-fill-default" opacity=".9" d="M636.2 159.7c-2.8 3.7-4.1 8.3-6.9 12.2-2.6 3.9-4.9 7.9-7.4 11.9l-3.6 6-1.8 3-1.8 3c-1.2 2-2.6 3.9-3.8 5.9-1.2 2-2.5 4-3.8 5.9l-.2-.1c1-2.1 1.9-4.3 2.9-6.4a186.68 186.68 0 0 1 4.9-9.4l1.8-3c1.2-2 2.6-3.9 3.9-5.9 2.7-3.8 5.1-7.8 7.9-11.6 2.9-3.6 4.5-8.1 7.6-11.7l.3.2zm-23.4-25.8c10.6-4.6 21.3-9 31.8-13.6l31.7-14.1 63.2-28.5L771 63.4c10.5-4.8 20.9-9.7 31.4-14.6l31.4-14.5c10.4-4.9 20.9-9.8 31.3-14.8l-.9-1.5a62.8 62.8 0 0 1-6.9 4.5l-7.2 4.3-14.4 8.6-14.4 8.6-14.3 8.7c-9.5 5.9-19.1 11.6-28.6 17.6-9.5 5.9-19 11.9-28.5 17.7-19.1 11.7-37.8 23.9-56.9 35.5l-56.8 35.7-.4.3.4.3 31 22.1c5.2 3.7 10.2 7.5 15.4 11.2l15.5 11c.2.1.5.5.8.9l.3.3.3-.3 45.8-47.8c15.3-15.9 30.3-32 45.6-48 7.6-8 15.2-16 22.7-24.1C821.1 77 828.7 69 836.3 61l5.7-6 5.6-6.1 11.2-12.2L870 24.4c1.8-2.1 3.6-4.2 5.4-6.2l2.7-3.1.7-.8.3-.4c.1-.1.3-.3.4-.5.5-.7.7-1.4 1-1.9l-.2-1.1-.1-.2c-.1-.1-.2-.3-.4-.5l-.4-.4-.4.1c-25.9 6.6-51.7 13.3-77.5 20-25.8 6.8-51.6 13.7-77.3 20.7l-77.2 21-77.2 21.1-1.3.4.9.9c1.8 1.8 3.4 3.7 5.3 5.5l5.5 5.2 11 10.4c3.7 3.5 7.4 7 11 10.5l5.5 5.3 2.7 2.6.7.7.3.3s.1.1.1.2c.2.5.2 1.1.2 1.7v-.1l-1.9 17.9c-.3 3-.7 6-.9 9l-.6 9c-.4 6-.9 12-1.1 18l-.3 9-.2 4.5-.1 2.2c0 .4 0 .7-.1 1.1l-.2 1.1-.2.8.7-.4 6.5-3.7c2.2-1.3 4.4-2.4 6.5-3.8l12.7-8 12.7-8c4.2-2.8 8.1-5.8 12.2-8.7l-.1-.2c-4.1 2.8-8.1 5.8-12.3 8.5l-12.7 7.9-12.7 7.9c-2.1 1.4-4.3 2.5-6.5 3.7l-6.5 3.6.6.4.2-1.1c.1-.4.1-.8.1-1.2l.1-2.2.2-4.5.4-9c.3-6 .8-12 1.2-17.9l.6-9c.2-3 .6-6 .9-8.9l2-17.9c0-.7 0-1.3-.3-2.1-.1-.2-.2-.4-.4-.6l-.3-.3-.7-.7-2.7-2.7-5.5-5.3c-3.6-3.6-7.3-7-11-10.5l-11-10.5-5.5-5.2c-1.8-1.7-3.4-3.6-5.3-5.5l-.3 1.3L647.5 73l77.3-20.9L802 31.5c25.8-6.8 51.6-13.6 77.4-20.2l-.9-.3.1.1c.1.1.2.3.4.5l-.2-1.1c-.3.7-.6 1.3-.9 1.7l-.3.3-.3.4-.7.8-2.7 3.1c-1.8 2.1-3.6 4.2-5.4 6.2l-11.2 12.2-11.1 12.2-5.6 6.1c-1.9 2-3.8 4-5.6 6.1-7.5 8.1-15.1 16.1-22.5 24.2-7.5 8.1-15.1 16.1-22.6 24.2-15.1 16.1-30.1 32.3-45.3 48.2l-45.6 48h.6c-.1-.1-.3-.3-.4-.5-.2-.2-.4-.4-.6-.5L683 192.3c-5.1-3.7-10.2-7.5-15.4-11.1l-31-22.1v.5l28.4-17.8 14.2-8.9c4.7-3 9.4-6 14.2-8.9 19.2-11.5 38-23.6 57.2-35.1 9.6-5.8 19.1-11.6 28.6-17.5l7.1-4.4 7.2-4.3 14.3-8.7 14.3-8.7 14.4-8.6 14.4-8.6 7.2-4.3c2.4-1.4 4.8-2.9 7.1-4.7l6.9-5.3-7.8 3.8c-10.4 5.1-20.8 9.9-31.3 14.9l-31.4 14.6c-10.5 4.8-20.9 9.8-31.4 14.6l-31.5 14.4-63 28.9-31.5 14.4c-10.5 4.7-21.1 9.3-31.7 14l.3.5zM7.9 246.8c2.1 3.4 4.6 6.6 7.3 9.6l.2-.2a56.4 56.4 0 0 1-7.4-9.5l-.1.1zm16.5 17.4c3.3 2.3 6.9 4.2 10.6 5.9l.1-.3c-3.7-1.6-7.2-3.5-10.5-5.8l-.2.2zm21.9 9.9c3.9 1.1 7.8 1.9 11.8 2.4l.1-.4c-4-.6-7.9-1.3-11.8-2.4l-.1.4zm23.9 3.5c4 .2 8.1.1 12.1-.1v-.5c-4 .3-8 .3-12 .2l-.1.4zm24.1-1.4c4-.6 7.9-1.4 11.8-2.4l-.1-.5c-3.9 1-7.8 1.8-11.8 2.5l.1.4zm23.4-5.9c3.8-1.4 7.5-2.9 11.2-4.6l-.3-.6c-3.6 1.7-7.3 3.2-11.1 4.6l.2.6zm21.8-10.3c3.5-2 6.8-4.3 10.1-6.6l-.4-.6c-3.2 2.4-6.6 4.6-10 6.6l.3.6zm19.5-14.2c3-2.7 5.9-5.6 8.5-8.7l-.6-.5c-2.6 3.1-5.4 5.9-8.4 8.6l.5.6zm15.4-18.6c2-3.5 3.5-7.3 4.5-11.3l-.9-.2c-.9 3.9-2.4 7.6-4.4 11.1l.8.4zm5.4-23.4c-.4-4-1.6-8-3.4-11.7l-.9.4c1.8 3.5 2.9 7.4 3.3 11.4l1-.1zm-10.9-21.3a23.51 23.51 0 0 0-8.1-4.3c-1-.2-2-.4-3-.7l-.2 1 2.9.6c.9.3 1.9.6 2.8 1 1.8.8 3.5 1.8 5 3.1l.6-.7zm-23.3-3.8c-3.9 1.3-7.5 3.3-10.7 5.8l.7.9c3.2-2.4 6.7-4.4 10.4-5.6l-.4-1.1zM126.2 193l-1.8 2.5c-.6.8-1.1 1.7-1.7 2.6-1 1.7-2 3.5-2.9 5.4l1 .5c.8-1.8 1.8-3.6 2.8-5.3.5-.9 1-1.7 1.6-2.5l1.7-2.4-.7-.8zm-10.4 21.9c-1 3.9-1.6 8-1.8 12l1.2.1c.2-4 .8-7.9 1.8-11.8l-1.2-.3zm-1.5 24.2c.5 4 1.3 8 2.6 11.9l1.2-.4c-1.2-3.8-2.1-7.7-2.5-11.7l-1.3.2zm7.4 23l1.6 2.6c.6.9 1 1.8 1.6 2.6l3.6 4.9 1-.8-3.5-4.8c-.6-.8-1.1-1.7-1.6-2.5l-1.6-2.5-1.1.5zm14.8 19.2c2.8 2.9 5.8 5.6 8.9 8.2l.9-1.1c-3.1-2.6-6-5.3-8.8-8.1l-1 1zm18.5 15.6c3.3 2.3 6.7 4.5 10.2 6.5l.7-1.3c-3.5-2-6.9-4.1-10.1-6.4l-.8 1.2zm20.9 12.2l10.9 5.2.6-1.4-10.9-5.1-.6 1.3zm22.1 9.8l11.4 4.1.5-1.5-11.3-4.1-.6 1.5zm23 7.7l11.8 2.9.3-1.6-11.7-2.8-.4 1.5zm23.6 5.1l12 1.4.1-1.7-11.9-1.4-.2 1.7zm24.1 2.1h12.1l-.1-1.8-12 .1v1.7zm24.2-.8l12-1.4-.3-1.9-11.9 1.4.2 1.9zm24-3.3l11.8-2.5-.5-1.9-11.7 2.5.4 1.9zm23.5-5.8l11.4-3.9-.7-1.9-11.4 3.9.7 1.9zm22.8-8.2l11.1-4.8-.9-1.8-11 4.8.8 1.8zm21.4-11.7c1.4-1.5 2.7-3.2 3.7-5 1-1.8 1.8-3.8 2.1-6l-2-.3c-.3 1.8-1 3.6-1.9 5.3-.9 1.7-2.1 3.2-3.4 4.6l1.5 1.4zm-.5-21.6a9.4 9.4 0 0 0-6.6.9c-2 1-3.6 2.5-4.9 4.2l1.6 1.2c1.1-1.5 2.6-2.8 4.2-3.6 1.6-.8 3.5-1.2 5.1-.7l.6-2zm-13.7 17.3c.7 2 1.8 3.9 3.2 5.5 1.4 1.6 3 3 4.7 4.2l1.1-1.6c-3.2-2.2-5.9-5.2-7.1-8.7l-1.9.6zm19 15c3.9 1.2 7.8 2.1 11.8 2.9l.4-1.9c-3.9-.8-7.8-1.7-11.6-2.9l-.6 1.9zm23.8 4.7c4 .4 8.1.7 12.1.7v-1.8c-4-.1-8-.4-12-.8l-.1 1.9zm24.3.5c4-.2 8.1-.6 12.1-1.2l-.2-1.6c-4 .5-7.9.9-11.9 1.1v1.7zm23.9-3.5c3.9-.9 7.8-2 11.7-3.4l-.5-1.4c-3.8 1.3-7.6 2.4-11.5 3.3l.3 1.5zm23-7.8l11-5-.6-1.2-11 4.9.6 1.3zm21.7-10.5l10.5-6.1-.6-1-10.4 6 .5 1.1zm20.6-12.7l9.8-7-.6-.8-9.8 6.9.6.9zm19.4-14.4l9.2-7.9-.6-.7-9.2 7.8.6.8zm17.9-16.2l8.4-8.6-.4-.4-8.5 8.5.5.5zm16.6-17.5l7.8-9.2-.2-.2-7.9 9.1.3.3z"/>
</svg>
