<svg width="60" height="60" viewBox="0 0 60 60" xmlns="http://www.w3.org/2000/svg">
    <path class="uk-fill-primary" fill="#c6e3f7" d="M58.2 48c-1.5-.2-1.4-.2-2.9-.5.8-11.2.8-22.4.2-33.6 0-.4-.1-.8-.3-1.1 0-1.2-.8-2.4-2.4-2.5L38 9.9c-.9 0-1.6.4-2 .9-.8.3-1.5 1.1-1.5 2.2v2.5c-5.3-.6-12.9-1.8-14.7 4-4.8-.1-11.6-.7-13.5 4.2C4 30.1 5 38.9 5.8 45.8c-1.6.6-3.1 1.3-4.7 1.9-1.4.6-.9 6.1.8 6.1 19.1-.2 37-.5 56-.7 2.7 0 2.5-4.5.3-5.1zm-47.7.8c-.3-1.9-.5-21.4-.3-23.9 1.9-.4 7.4-.2 9.4-.2-.1 2.8.3 19.9.3 24-3.4 0-5.8 0-9.4.1zm14.7-.2c0-4.8-.7-21.6-.5-28.1 3.1.1 7.3-.3 9.8-.5.1 8.6 0 24.9.3 28.4-4.1 0-5.6.1-9.6.2zm25.5.5c-3.6 0-6.7-.6-10.3-.5-.1-3.5-.2-24.2-.4-34 3.7.1 6.9.7 10.5-.2.6 11-.3 22.7.2 34.7z"/>
    <path class="uk-fill-default" opacity=".04" d="M34.7 49.1c-2.5 0-8.3-.1-9.5-.3-.9-8.8-.5-28.1-.5-28.7.6.1 7.2.2 9.7-.2 0 4-.1 23 .3 29.2zm-15-24.5c-2.5.3-7.2.3-9.7.2 0 2 .1 17.1.4 24.2 2.5 0 7.1-.1 9.5-.1-.3-3.2-.2-22.1-.2-24.3z"/>
    <path class="uk-fill-default" opacity=".2" d="M50.4 14.6c-1.6.3-8.3.3-10.4.3 0 2.8.3 32.1.4 33.8 2.3.1 8.8.7 10.3.5-.3-8.6-.4-25.9-.3-34.6z"/>
    <path class="uk-fill-default" opacity=".9" d="M50.8 48.8c.4-5.6.5-11.2.5-16.8 0-2.9-.2-5.8-.4-8.7-.2-4-.2-9-.2-9s-3.2.4-5.5.2c-1.7-.1-5.4-.5-6-.3.1 1.3-.2 6.5-.2 9.4 0 2.9-.1 5.7 0 8.6.1 2.9.2 5.8.4 8.6.2 2.5.4 5 .7 7.5-1.8-.1-3.5-.1-5.3-.1.2-2.2.3-4.4.4-6.6.1-2.4.1-4.8.1-7.2 0-2.4-.2-4.8-.3-7.2-.2-2.4-.2-7.6-.2-7.6s-3.5.2-5.1.1l-4.9-.3h-.7v.8c-.1 2.4-.2 4.7-.2 7.1-.1 2.4-.1 4.7 0 7.1.1 2.4.2 4.7.4 7.1.2 2.2.5 4.5.8 6.7-1.6 0-3.2 0-4.8.1l.3-5c.1-2.1.1-4.1.1-6.2 0-2.1-.2-4.1-.3-6.2-.2-2.1-.2-6.5-.2-6.5s-3.5.2-5.1.1l-4.9-.3h-.7v.8c-.1 2-.2 4.1-.2 6.1C9 33 9 35 9.1 37c.1 2 .2 4.1.4 6.1.2 1.8.4 3.7.8 5.5-3.1.2-6.2.4-9.3.7 4.8.3 9.7.5 14.5.6 4.8.1 9.7.2 14.5.2 4.8 0 9.7 0 14.5-.1 4.8-.1 9.7-.2 14.5-.6a113 113 0 0 0-8.2-.6zm-35.3-.5c-1.6.1-3.2.1-4.9.2.2-1.8.3-3.7.4-5.5.1-2 .2-4 .2-6.1 0-2 0-4.1-.1-6.1-.1-1.8-.1-3.6-.2-5.3 1.3-.1 2.7-.2 4-.2 1.5-.1 3-.2 4.5-.4 0 2-.1 3.9-.3 5.8-.1 2.2-.3 4.3-.3 6.3 0 2.1.1 4.1.3 6.2.1 1.7.3 3.3.6 5-1.4 0-2.8.1-4.2.1zm14.5-.2h-4.7c.2-2.2.3-4.5.4-6.7.1-2.3.2-4.7.2-7.1 0-2.3 0-4.7-.1-7.1-.1-2.1-.1-4.2-.2-6.3 1.3-.1 2.7-.2 4-.2 1.5-.1 3-.2 4.5-.4 0 2.3-.1 4.6-.3 6.8-.2 2.4-.4 4.8-.3 7.2 0 2.4.1 4.8.2 7.2.2 2.2.4 4.4.7 6.6H30zm14.5.3c-1.3-.1-2.5-.1-3.8-.1.1-2.5.2-5.1.2-7.6.1-2.9.1-5.7.1-8.6 0-2.9 0-5.7-.1-8.6-.1-2.6-.1-5.2-.2-7.9 1.4-.1 2.9-.1 4.4-.2 1.6-.1 3.2-.3 4.9-.5 0 2.8-.1 5.5-.3 8.3-.2 2.9-.4 5.8-.3 8.7.1 5.6.3 11.2 1 16.8l-5.9-.3z"/>
</svg>
