<svg width="70" height="60" viewBox="0 0 70 60" xmlns="http://www.w3.org/2000/svg">
    <path class="uk-fill-primary" fill="#c6e3f7" d="M68.6 30.1C61.8 19 51.1 9.8 37.4 10c-15 .2-25.9 10.3-35.7 20.6-1.4 1.5-.4 3.5 1 4.1 8.3 9.8 20.3 17 33.5 16.2 6.6-.4 12.7-2.9 18.4-6.1 4.6-2.6 10.7-5.5 12-11 1.6-.2 3.1-1.9 2-3.7zm-19.5 12C44 44.6 38.6 46.3 32.8 46c-10.3-.5-19.3-6.8-26-14.3 8-8.4 17.4-16.2 29.3-15.9 11.9.3 22.8 7.1 27 15.8-.9 2.6-9.9 8.4-14 10.5z"/>
    <path class="uk-fill-default" opacity=".04" d="M63 31.5C59.4 24 49.5 16 36.4 15.6c-6.3 0-11.4 1.4-18.2 6.1-3.2 2.2-9.8 8.1-11 9.8 1.1 1.4 3.7 3.9 5.1 5 2.5-2 5.9-3.5 9.1-3.7.3 0 .8-.1 1-.4-.5-4.7.9-9.1 4.8-11.9 1.3-.9 3.4-2.3 7.9-2.8 2.8 0 5.3.7 7.8 1.7 2.5 1.1 4.5 5.3 5.4 8.2 2 .5 3.7 1.6 5.1 2.4 2.1 1.3 4.6 3.4 6.5 5 1.1-1.1 2.7-2.7 3.1-3.5z"/>
    <path class="uk-fill-default" opacity=".2" d="M63 31.5C59.5 24.2 50.3 19 49.9 18.8c-3.1-1.2-9.6-3.5-12.9-3.1a35 35 0 0 0-20.2 6.8c-2.7 2.1-7.2 5.9-9.4 8.6-.8 1 .8 2.7 1.7 1.7 1.5-2.6 3.1-4 6.6-6.1s10.7-5.5 10.5-5.4c-3.3 3.1-4.8 6.4-3.1 10.8.3 2.7 2.1 5.1 4.2 6.9 3 2.5 7.3 3.4 10.9 2.9 4.1-.6 7.7-3.7 9.2-8.3 1.5-4.5.6-8-1.3-10.8 6.6 2 11 3.7 15.6 9.3.6.8.9-.1 1.3-.6zM42.9 20.9c1.3 1.1 2.1 4.5 1.5 6.1-.4 1.3-2.8 2.4-4.3 2.4-.2 0-.2-1.1-.2-1.3-2.1 4.2-6.5 1-4.4-2-.2 0-.4-.1-.5-.3-1-4.1.8-5.8 3-6.1 2.3-.3 4.8 1.2 4.9 1.2z"/>
    <path class="uk-fill-default" opacity=".9" d="M62.9 31.5c-.9-2.2-2.9-4.1-4.6-5.8a37.6 37.6 0 0 0-6-4.5c-4.3-2.5-9.2-4.1-14.2-4.5-6.5-.6-12.7.8-18.3 4.2-4.7 2.9-8.9 6.7-12.3 11v-.8c7.5 7.6 16.7 13.1 27.7 13.4 5.3.2 10.3-1.6 15-3.9 2.4-1.2 4.7-2.5 6.9-4 1.9-1.3 4.5-2.9 5.8-5.1zm.2 0c-.8 2.1-3 3.9-4.7 5.4-1.9 1.7-4 3.1-6.2 4.5-4.4 2.7-9.3 4.9-14.5 5.3-8.8.8-17.7-2.7-24.4-8.2-1.8-1.5-3.5-3.1-5.1-4.8-.4-.5-1.7-1.4-1.8-2-.1-.5 1.2-1.5 1.6-1.9 3.5-3.6 7.5-6.8 11.7-9.5 5.4-3.4 11.1-5.5 17.6-5.3 5.6.1 11 1.9 15.8 4.9 2.2 1.4 4.3 3.2 6.1 5.1 1.5 1.8 3.3 4.1 3.9 6.5zM26.9 20.8c-8.9 6.9-1.2 20.6 8.7 21 5 .2 9.3-3 11-7.7 1.7-4.7.2-10.8-4-13.7-4.6-3.1-11.3-2.9-15.7.4zm-.1-.1c4.2-3.2 10-5 15.1-2.9s8.1 8.4 7.2 13.7c-.9 5.5-5.3 9.7-10.7 10.7-5.5 1-11.8-1-14.9-5.8-3.5-5.5-1.6-11.9 3.3-15.7zm9.7 5c-1.4.9-1.7 2.8 0 3.6 1.4.7 2.7 0 3.3-1.3.2 1.7.2 3.7-1.4 4.8-1.6 1.1-4 1.5-5.5.1-3-2.5-.2-8 3.6-7.2z"/>
</svg>
