<svg width="2250" height="850" viewBox="0 0 2250 850" xmlns="http://www.w3.org/2000/svg">
    <path opacity=".65" fill="#e1f0fb" d="M2149.3 286.9c-41.7-173-205.7-294.5-478.2-228.1C1501.6 30 1313 27 1138.2 47c-51.8-15.5-105.1-29.2-165.9-33.3-86.9-5.9-153.5 6.9-215.6 25.4C670.1 20 590.1-2.3 498.9.2 263.5 6.6 182.1 43.6 93.6 69.4 63.9 61.2 32.8 51.9 0 41.2V837.7c94.3-14.4 194.9-34.2 300.4-49.3 120.8 28.4 229.4 57.2 373.6 47.9 83.7-5.4 166-19 245.5-33.1 139.5 22.4 294.7 46.8 480.9 46.8 77 0 158.3-7.9 237.8-23.4 315.2 25.7 536.6-92.5 568.3-312.6 12.7-88.7-9.4-164.1-57.2-227.1z"/>
    <path fill="#e1f0fb" d="M664.4 769.6c81.2 5.5 164.8 19.1 255.1 33.6 169.8-30.2 327.2-63.2 460.3-25.2 91.2 26.1 177.9 42 258.4 48.6 237.6-46.2 459.9-159.8 505.9-331 19.4-72 20.9-144 5.2-208.7-89.6-118.3-269.5-192.7-478.2-228.1a828.1 828.1 0 0 0-47.3 13.1c-224.3 69.5-350 15.8-485.6-24.9-23.4 2.7-46.6 5.8-69.5 9.3-124.3 19-221.7 2.7-312-17.2-160.2 47.7-290.4 133-663.1 30.3-28.6 8.3-58 15.5-93.6 20V742c118.7 5.4 212.7 25.8 300.4 46.4 116.1-16.5 238.1-27.3 364-18.8z"/>
</svg>
