<svg width="660" height="500" viewBox="0 0 660 500" xmlns="http://www.w3.org/2000/svg">
    <path fill="none" d="M456 205.4c-6.7-7.4-16.5-9.7-25.8-9.8-55.4-.6-112.3-.1-167.7-.5-18.9-.1-43.1-3.3-49.6 20.6-1.1 10.2 0 63.6-.1 77.2-.6 61.2 1.4 118.6-.4 183.7.1 4.7 246.8 5.8 246.8 3.5l1.2-164.1c.5-27.9.9-45.9 1.4-73.8.3-9.6.1-30.1-5.8-36.8zM116.5 212c-4.4 6.7-10.7 11.1-18.7 12.6-9.1 1.7-16.4-1.4-24.6-6.2-9.3-5.2-14.4-12.2-16.3-19.9-2-8.1 2.6-18.5 7.9-24.7 22.9-18 31.9-15.6 46.2-9.7 12.3 6.7 15.8 32.1 5.5 47.9zm90.4-90.3c.1 5.3-1.7 11.3-3.4 15.6-5.4-7.4-10.1-21.5-12.6-30.4-2.2.9-3.8 1.5-8.3 2.2.6 8.6 1.7 20.7.5 29.3-2.2-2.4-6-5.1-10-10.3-2.3 4.6-9.7 9.6-14.6 11.6 8.8-13.4 13.4-25.8 12.9-32.8-6.1-.6-12.6-7.9-15.1-12.6-3-5.7-4.7-12.1-3.5-16.2 1.7-14 15.9-22.8 26.6-23.6 21.7 4.3 35.2 24.3 18.8 47 5.8 7.1 18.1 14.8 26 19.2-3 .7-11.6 1.2-17.3 1zm134.8-20.6c-1.1-.2-17.7-21.1-18.8-22.9.4-.5 1-1.2 1.5-1.6-1.4-2-4.1-5.2-5.8-7.4-11.5 8.3-29.9 9-39.6-4.2-7.7-10.7-8-30.6 3.1-39.5 9.1-8.6 29.6-8.4 38.6 1 4.8 5 7.1 12.8 7.9 19.4.9 7.3-2.6 15.9-7.8 21 1.5 2 4 6.6 5.6 8.4.4-.3.7-.5 1.2-.9 4.4 5.5 15 19.9 18.7 22.6-.3.6-1.8 1.9-4.6 4.1zm141.5 20.4c-1.4 9.7-6.4 16.3-8.1 23.9-4.2.4-14.6-1.4-20.3-3.5-.3-5.6-1.6-9.3-2.3-12.6-.6-2.8-2.5-5.5-1-16.3-20.3 5-34.9-8.4-40.4-23-5.3-14.1.6-31.4 13.5-39.7 13.7-8.8 31-7.8 42.1 3.8 11.7 11.5 16.9 33 2.3 49.9 3.4-.6 6.8-2.8 8.3 4.3 1.3-1.2 3.7-1.5 4.7-.8 3.2 2.2 2.1 10.1 1.2 14zm113.9 107.9c-13.7-.2-26.6-2.1-39.9-4-7.9-1.1-16.3-2-24.2-3.6-.3-2.2 1.2-12.9 2.7-26.5 2.1-18.5 3.6-42.9 7.4-58.5 11.9 0 59.2 4.3 63.5 7.4-.2.2-6.5 57.1-9.5 85.2zm-141.1-24c-6.7-7.4-16.5-9.7-25.8-9.8-55.4-.6-112.3-.1-167.7-.5-18.9-.1-43.1-3.3-49.6 20.6-1.1 10.2 0 63.6-.1 77.2-.3 33-.9 64.9-.7 97.5.2 27.9 1.2 56.2.3 86.1 0 .6 4.2.9 10.9 1.4-.4-2.3-.5-22.4-.5-30.1-.1-16.2-.1-32.2-.5-48.4-.5-16.8-.1-33.4-.7-50.2-.6-16.8-.8-33.4-.9-50.3-.1-16.7-.5-37.8 0-54.5 11.4-1 88.3 2.1 114.1 1.2 18.5.1 37-.6 55.5-.8 18.6-.2 37.2.1 55.9-.5 2.7-.1 3.4 1.6 3.6 2.6.3 10.5.2 22.1.4 32.9.3 12.9 0 66.3-.8 86.5-.8 19.4-.8 38.7-1 58.7-.2 18.8 0 32.8 0 52 6.2-.2 10.9 3.4 10.9 3.1l1.2-164.1c.5-27.9.9-45.9 1.4-73.8.2-9.6 0-30.1-5.9-36.8z"/>
    <path class="uk-fill-primary" d="M118.9 160c0-.9-.4-1.8-1.1-2.5-6.2-5.8-14.4-5.9-22.5-5.5-8.7.4-17.7 1.2-25.5 5.3a31.3 31.3 0 0 0-10.2 8.9c-11.9 6.3-13 28.8-10.5 36.3 2.7 7.9 10 14.3 16 19.6 6.4 5.6 13.8 10.6 22.4 12 16.3 2.7 32.4-7 39.2-21.7 8.3-17.9 3.5-37.4-7.8-52.4zm-2.4 52c-4.4 6.7-10.7 11.1-18.7 12.6-9.1 1.7-16.4-1.4-24.6-6.2-9.3-5.2-14.4-12.2-16.3-19.9-2-8.1 2.6-18.5 7.9-24.7 22.9-18 31.9-15.6 46.2-9.7 12.3 6.7 15.8 32.1 5.5 47.9zm119.4-92.9a65.96 65.96 0 0 1-28.1-17.8c7.2-10.9 8.4-25.1 1.6-36.7a35.5 35.5 0 0 0-36.1-16.8c-14.4 2.5-27.7 14.5-28.7 29.6-.6 8.3 3.4 15.9 7.4 22.9 2.9 5.2 6.4 9.6 11.6 11.7-3 10.9-8.4 20.9-15.9 29.5-2.1 2.4-.9 7 2.8 6.8 8.8-.4 16.8-4.2 22.4-10.6 2.7 3.9 6.1 7.2 10 10.1 2 1.4 5.4 0 5.9-2.4.9-4.6 1.5-9.1 1.9-13.7 2.5 5.1 5.8 9.9 9.7 14.3 1.7 1.9 5.1 1.4 6.3-.8 2.9-5.5 5-11.2 6.2-17.2 7.7 1.1 15.5.7 23.2-1.2 3.7-.9 3.4-6.5-.2-7.7zm-29 2.6c.1 5.3-1.7 11.3-3.4 15.6-5.4-7.4-10.1-21.5-12.6-30.4-2.2.9-3.8 1.5-8.3 2.2.6 8.6 1.7 20.7.5 29.3-2.2-2.4-6-5.1-10-10.3-2.3 4.6-9.7 9.6-14.6 11.6 8.8-13.4 13.4-25.8 12.9-32.8-6.1-.6-12.6-7.9-15.1-12.6-3-5.7-4.7-12.1-3.5-16.2 1.7-14 15.9-22.8 26.6-23.6 21.7 4.3 35.2 24.3 18.8 47 5.8 7.1 18.1 14.8 26 19.2-3 .7-11.6 1.2-17.3 1zM354 92.2c-6.4-2.9-9.7-9-13.6-14.5-2.6-3.7-5.4-7-9-9.5 7.5-10.7 5-25.9 1.4-37.9-4.4-14.7-18.9-20.2-33.3-19.2-14.5 1-26.5 8.7-30.9 22.9-4.2 13.5-1 29.2 9.2 39.2 10 9.8 25.1 12.5 37.4 6.3.3 1.1.7 2.2 1.5 3.2 4.4 6.4 10 12.2 14.9 18.2 3.4 4.1 6.7 10 12.9 8.8 6.2-1.2 6.7-7.4 10.4-11.2 1.5-1.7 1.5-5.2-.9-6.3zm-12.3 8.9c-1.1-.2-17.7-21.1-18.8-22.9.4-.5 1-1.2 1.5-1.6-1.4-2-4.1-5.2-5.8-7.4-11.5 8.3-29.9 9-39.6-4.2-7.7-10.7-8-30.6 3.1-39.5 9.1-8.6 29.6-8.4 38.6 1 4.8 5 7.1 12.8 7.9 19.4.9 7.3-2.6 15.9-7.8 21 1.5 2 4 6.6 5.6 8.4.4-.3.7-.5 1.2-.9 4.4 5.5 15 19.9 18.7 22.6-.3.6-1.8 1.9-4.6 4.1zm150.1 12.2c-.8-6.6-5.1-12.4-11-14.3 5.4-12.2 5.6-26.5-.6-38.6-6.7-13.4-20.5-22.6-35.3-23.4-14.8-.8-29.7 6.8-37.1 19.9-7 12.4-7.2 28.2-.5 40.8 7.1 13.4 21.2 21.8 36.1 23.4 1.2 5.8 2.4 11.6 3.5 17.5 1 4.9 2 9.2 7.1 11.2s11.4 3.4 16.8 4.1c5.4.7 8.3-2.6 10.6-7 5.2-9.8 11.7-22.4 10.4-33.6zm-8.6 8.2c-1.4 9.7-6.4 16.3-8.1 23.9-4.2.4-14.6-1.4-20.3-3.5-.3-5.6-1.6-9.3-2.3-12.6-.6-2.8-2.5-5.5-1-16.3-20.3 5-34.9-8.4-40.4-23-5.3-14.1.6-31.4 13.5-39.7 13.7-8.8 31-7.8 42.1 3.8 11.7 11.5 16.9 33 2.3 49.9 3.4-.6 6.8-2.8 8.3 4.3 1.3-1.2 3.7-1.5 4.7-.8 3.2 2.2 2.1 10.1 1.2 14zm129.9 20.2c.1-1.3-.4-2.7-1.7-3.7-4.1-3.1-9.3-3.3-14.3-3.9-6.1-.7-12.1-1.4-18.2-2-12-1.2-24-2.3-36-3.2-2.1-1.7-5.7-1.6-6.2 1.8-5.3 30.8-9.2 61.7-11.6 92.9-.1 1.8.8 2.9 2 3.5.5.7 1.2 1.2 2.2 1.5 22.7 5.7 45.9 8.7 69.3 9.1 2.1 1.7 6.5.7 6.9-3 3.2-29.8 6.5-59.5 9.7-89.3.2-2-.8-3.2-2.1-3.7zm-16 87.7c-13.7-.2-26.6-2.1-39.9-4-7.9-1.1-16.3-2-24.2-3.6-.3-2.2 1.2-12.9 2.7-26.5 2.1-18.5 3.6-42.9 7.4-58.5 11.9 0 59.2 4.3 63.5 7.4-.2.2-6.5 57.1-9.5 85.2z" fill="#c6e3f7"/>
    <path class="uk-fill-default" opacity=".04" d="M328.5 78.2c-.3-.4-1.2-3.5-2-3-2.3-3.3-3.4-5.4-5.5-8.1 7.5-8.5 8.2-15.6 7.4-23.4-1.1-10.8-8.7-18.6-12.4-20.7-7.3-4.1-16.4-5.1-24.4-2.7-4.5 1.3-8.8 3.8-11.8 7.5-3.2 3.9-5.3 8.1-5.8 14.7-.9 8 .2 15.6 4.1 20.9 2.5 4.2 8.9 10.1 16.3 11.5 8.2 1.9 19.1-2.1 24-5.6 1.6 1.7 4.6 5.5 6.1 7.5-.1.1-1.5 1.3-1.5 1.5-.1.4 16.9 20.7 18.1 22.5 2.4-.9 3.5-2 4-2.2 0 0-15-17.8-16.6-20.4zM309 69.4c-10.1 3.1-24-.7-28-9.4-2.4-4.5-3.9-14.4-2-19.3 1.5-6.1 4.4-10.7 8.3-13.6 4.5-3.2 10.5-4 16-3.7 5.8.3 11.7 2.1 15.4 6.8 3.7 3.9 6.3 15.1 5.6 19.7.1 10.2-8.3 16.9-15.3 19.5zm-93.3 46.5c-3.3 2.3-17.2 1.5-18.5.8-2.3-1.2-4.2-6.6-4.3-6.7-.2-.5-1.3-3.5-2.1-3.1-1.9 1-7.6 1.8-8.2 1.9.4 4.8.4 17.4.5 20-3.7-4.9-9.7-11-9.5-12.7-1.2-9.9-3.4-14.6-1.8-18 21.2-4.7 18.7-13.4 18.9-16.5.7-10.2-5.5-25-21.9-23.9 8.8-4 17.2-3.8 24.5 2.4 5.4 4.2 14 12.9 12.2 24.5-1 6.6-5.1 14.3-7.5 16.6 2.5 3.2 10.3 10.5 17.7 14.7zM106 200.3c2.4-.2 5.1-.3 6.2-.4.1-1.6.1-3.2 0-5 .2-3.1-2.9-4.9-8-5.8 0-1.1 0-2.1-.1-3.2 1.2-2.3.7-4.6-.4-6.3-.8-8-3.4-15.4-12.3-19 5.4-.1 9.6-.6 15.7 1.8 2.9 1.2 5.7 2.7 8 4.9 4.5 4.4 6.5 10.9 7.1 17.2.9 8.8-.3 18-4.7 25.7-4.4 7.7-14 18.3-31.1 14.4 13.7-5.2 16.6-16 19.6-24.3zm451.8-13.8c-2.6.3-9.1-.8-13.2-1.3.3-2.6 1.5-11.1 1.9-12.5 4 .3 9.6.9 13.6 1.2.3 1.8-1.3 10.1-2.3 12.6zm-14.3 7.1c-.4 0-1.5 9.1-1.8 12.6 3.6.5 9.5 1.7 13.3 1.3.4-1.4 2.1-8.6 2.2-12.6-1.6 0-9.6-1.3-13.7-1.3zm56.9 5.8c0-1.1-2.2-1.5-2.5-.4-.5 2.4-.9 4.8-1.4 7.2-.1.3-1.9 6.3-5.5 8.6-5.3 3.3-10.2 7.2-16.3 8.4-2.5.5-5 .7-7.5.7-1.2-.1-2.4-.2-3.5-.1a1 1 0 0 0 0 2c1.1.1 30.8 3.4 33.1 3.5.8-5.2 3.5-27.3 3.6-29.9zM458.9 392.3c1.5-64.4 3.2-135.2 3-146.9-.3-22.1-2.2-38.5-22.3-43.1-9.6-2.2-19.9-1.3-29.7-1.3-11.2 0-22.4 0-33.7-.1-22.4 0-44.9-.1-67.3-.1-11.6 0-23.1 0-34.7-.1-10 0-20.2-.5-30.1.8l-3.6.6c-7.7 0-15.4 1.3-21.3 6.7-4.9 4.5-6.6 8.1-7 17.4 1.3 17.9-1 125.5-.4 149.3.6 23.8 1.6 82.5.5 105.1-.1 2 5.2-.6 10.9-3.7v-1c1.9-.1 3.8-1.3 3.8-3.8.1-21.7.1-43.4.2-65.2 3.2-35 8.7-69.7 16.4-104 .9-2.6 1.9-5.2 3.1-7.8 7-15.2 19.5-24.4 34.7-30.5 8.9-3.6 18.2-6.4 27.6-8.7 10.5-.4 21-.9 31.4-1.3l91.9-3.9c7.7 2.4 13.9 7.8 17.6 15.1.3 19.9.3 44.4 0 66.6-.4 30.3-1.5 56.1-1.3 59.6-.3 13.3-.5 58.6-.3 84.8 1.6 1.2 7.2.4 11 2.7-.1-17.6-1.2-54.3-.4-87.2zM298.2 222.1c-.1 0-.2.1-.4.2-1.6 1-4.1-.4-4.4-2.1-.6-3.1 2.5-2.5 4.6-2 .1.6.2 1.2.2 1.8 0 .5.1 1.1 0 1.6-.1.4 0 .5 0 .5zm62.8-2c-.2.5-.8.5-1.6.7-.6.1-1.1.4-1.5.6-7.8.4-15.6.5-23.3.3-3.8-.1-7.5-.4-11.3-.4-3 0-9.8 1.7-10.9-2.2v-.1c1-2.6 10.2-1.9 12.5-2.1l12.8-.6 9.5-.3c2.3.9 5.3.3 7.7.5 1.5.1 4.3.3 5.4 1.3.1.4.9 1.9.7 2.3zM316.1 40.5c-2.1-2.9-7-4.9-8.8-5.5-4.2-1.7-13.2 1.4-13.4 1.4-.6.1-2.8.6-2.8.6-.1-.1.9-4.4.5-4.6-.8-.4 1.1-1.9 1.8-1.7.1-.1 4.7-.4 6.7-.8 9-1.4 14.7 6.1 15.5 7.7 1.9 2.4 2.4 6.1 2.5 6.5.1.9-1.4-2.8-2-3.6zm152.2 63.7c4.3-3.1 7.5-10.1 9.1-16.8 2-8.5-1.5-19.8-1.3-18.2a37.36 37.36 0 0 1-13.2 33s3.1-2 5.4 2zm-16.5 4.8c-4.6 1.7-9.8 2.5-14.6 2.4-4-1.9-8-4-11.9-6.1-2.2-1.2-4.7-2.1-6.6-3.8-1.4-1.2-2.2-2.7-3.7-4.2 6 9.4 16.8 16.4 26.8 16.9 3.4.2 6.7-.3 9.7-1.1l.3-4.1z"/>
    <path class="uk-fill-default" opacity=".16" d="M342 100.7c-7.9-9-8.8-10.1-16.7-19.1-.3-.3-1.8-2.4-1.8-2.7-.3-.4-.2-.7.1-1.1.2-.3.8-.8 1-1-.1 0-2.6-3.6-5.2-6.6l-.8-.9c-4.6 2.6-9 5.4-14.3 6-9 1-17.9-2.1-23.9-8.8-6.1-6.8-7.2-16.2-6.2-25.3.5-4.7.7-.6.5 1-.5 4.9.5 8.9 2.2 13.6 2.6 7.2 8.4 13.5 15.7 15.9 8.6 2.9 17.8.7 25.5-3.5.6-.3 1.1-.2 1.5.2.4 0 .9.2 1.2.8 1.7 2.9 2.1 3.7 4.6 5.9.4.4.5.8.3 1.2v.2c.2.4.7 2.4 2.6 4.9 6.4 7.3 9.6 10.8 16 18.1.2-.5-1.9 1.7-2.3 1.2zm-121.2 20c-4.6-1.4-8.6-4.2-12.3-7.2-1.3-1-8.4-6.5-10.5-8.3-.9.5-12 3.6-15.3 4.1 1.1 9.9.6 19.1.7 28 .1 1.1-1.1 1.6-1.2.5-1.1-9 1-18.4-1.8-27.2-1.1-.1-2.2-.3-3.2-.6s-.5-1.9.5-1.6c.9.3 4.9.1 5.4 0 4.6-1.5 9.2-3.4 12.7-7 3.3-3.3 4.7-7.8 6-12.2 0-.1 1.4-6 1-9.2-.5-10.4-12.4-21.5-21.2-24.1-1-.3-.6-1.7.5-1.6 8.5 1 18.7 11.6 21.8 17.7 4.6 11.9-1 23.7-5.7 29.1 3.9 5.2 18.9 16.2 23.3 17.8.8.5.4 2.1-.7 1.8z"/>
    <path class="uk-fill-default" opacity=".2" d="M323.7 54.8c-.3 1.6-1.2 2.2-.8.7.8-3.8.3-8.5-.6-12.2-.9-3.2-2.1-6.5-3.7-9.4-1.5-2.7-3.7-4.8-6.5-6.1-6.2-3.1-12.4-2.9-18.9-2.1-.7.1-4.3 1.4-4.3.8 0-.7 3-1.9 3.7-2 4.4-.5 8.5-1.7 12.9-1.2 3.3.4 6.5 1.3 9.3 3 3 1.8 5.1 4.5 6.6 7.5 3.1 6.5 3.8 13.7 2.3 21zM194.5 74.3c-1.9-3.3-4.8-6.1-8.1-7.8-.9-.5-1.8.9-.9 1.4 5.4 2.9 9.5 8.4 9.7 14.6.2 5.8-3.1 11.5-8.5 13.9-3.8 1.6-8.1 1.6-12.2 1.5-1.1 0-1.1 1.6-.1 1.7 3.9.1 8 .1 11.7-1.2 3.2-1.1 5.9-3.1 7.8-5.8 3.7-5.6 3.8-12.7.6-18.3zM80.3 182.4a5.72 5.72 0 0 0-2.9 5.9c.4 2.3 2.4 4.3 4.7 4.6 2.3.3 4.8-1 5.7-3.2.9-1.9-.3-3.8-1.2-5.7-1.7-3.3-6.3-1.6-6.3-1.6zm-9.4 22.7c8.6.8 16.2.2 24.8-.5-.3-2.6.3-6.3-1.6-8-.8-.7-1.9-1.2-2.9-1.5-1.3-.4-3.6-1.3-3.6-1.3s-5 2.7-8.1.5c-.9-.6-2.3 0-3.6.5-1.6.5-3.9 2.1-4.5 3.6-1 2-.3 4.4-.5 6.7zM97 177.7a5.72 5.72 0 0 0-2.9 5.9c.4 2.3 2.4 4.3 4.7 4.6 2.3.3 4.8-1 5.7-3.2.9-1.9-.3-3.8-1.2-5.7-1.7-3.3-6.3-1.6-6.3-1.6zm-2.1 17.2c2.8 3.6 1.9 5.5 2.3 5.8 5-.1 10-.5 15.3-.8-.3-2.6.3-6.3-1.6-8-.8-.7-1.9-1.2-2.9-1.5-1.3-.4-3.6-1.3-3.6-1.3s-5 2.7-8.1.5c-.9-.6-2.3 0-3.6.5-1.6.5-2.9 1.4-3.5 2.9-.1-.1 3.8.2 5.7 1.9zm467.3-41.5c-2.2-.4-11.6-1.2-12.9-1.4-.3 1.2-1.5 11.3-1.7 12.8 3.8.5 10 1.7 13.9 1.4.1-2.2.7-11.7.7-12.8zm32.3 8c-8.5-2.7-17.4-4.3-26.4-4.7-1.3-.1-1.3 1.9 0 2 8.8.5 17.4 2 25.8 4.7 1.3.3 1.8-1.6.6-2zm-4.6 3.1c-7.4-1.3-14.9-2-22.4-2.2-1.3 0-1.3 2 0 2 7.3.2 14.6.9 21.8 2.2 1.4.2 1.9-1.7.6-2zm2.4 16.6c-9-1.2-17.9-2.9-26.8-5-1.2-.3-1.8 1.6-.5 1.9 8.8 2.1 17.8 3.8 26.8 5 .5.1 1.1-.1 1.2-.7.1-.4-.2-1.1-.7-1.2zm-1.4 5.3c-8.3-1.4-16.6-2.9-24.8-4.3-1.3-.2-1.8 1.7-.5 1.9 8.3 1.4 16.6 2.9 24.8 4.3 1.2.2 1.7-1.7.5-1.9zm1.1 16.5c-9.4-1-18.7-2.6-27.9-4.7-1.3-.3-1.8 1.6-.5 1.9 9.4 2.2 18.9 3.8 28.4 4.8 1.3.1 1.3-1.9 0-2zm-4.3 3c-8-.8-16.1-1.6-24.1-2.5-1.3-.1-1.3 1.9 0 2 8 .8 16.1 1.6 24.1 2.5 1.3.1 1.2-1.9 0-2zm-290.5 13c0-.1 0-.1 0 0l-.3-.6c0-.1-.1-.2-.1-.2-.3-.4-.9-.8-1.4-.6-.1.1-.3.1-.4.2-.2-.1-.5 0-.7 0-1.1.3-1.6 1.7-1.3 2.8.3 1 1.5 1.7 2.6 1.3.4.2.8.3 1.2 0 .6-.4 1-1 1-1.8-.1-.4-.3-.8-.6-1.1zm63.5-.2c0-.1-.1-.1-.1-.2-.3-.6-.8-.8-1.5-.7-.1 0-.3 0-.4.1-2.8-1-5.7-1.3-8.6-.7-.4-.1-.9-.2-1.3-.4-.5-.1-.8 0-1.1.2-5.9-.5-11.8-.7-17.7-.5-.3-.2-.6-.2-1-.1-.2.1-.4.1-.6.2-1.8.1-3.6.2-5.4.4-.4 0-.7.2-.9.5-1.8 0-3.5-.1-5.3-.1-.1-.1-.3-.2-.5-.2-.6-.1-1.2 0-1.8.2-1 0-1.8.8-2 1.7-.2.4-.3.8 0 1.2.2.4.6.7 1 .7 1 .5 2.1.6 3.2.6h34.5c.9.3 1.7.4 2.7.5.8 0 1.5-.1 2.2-.2.1 0 .3 0 .4-.1.8-.1 1.7-.2 2.5-.1.4.1.8-.1 1-.4h.1c1.2-.3 1.7-2.1.6-2.6zm91.7-156.2c-3.1-3.6-9.6-5.4-15-2.8-2.8 1.6-5.6 4.9-6.5 9.4 1 .5 3.7.6 5.1.7 2.7-8.3 8-8.3 12.2-4.6 3.9 3.5 4.8 9.2-1.1 12.5-7.7 3.8-9.1 7.9-8.7 12.8.9.2 3.5.4 4.9.4.3-1-.2-3.2.4-4.8.6-1.6 4.1-3.3 4.4-3.5 2.2-1 5.3-2.8 6.6-4.8 2.9-6.1 1.3-11.1-2.3-15.3zm-8.5 33.9c-.4-1.4-1.8-2.1-3.2-1.9-1.3.2-2.1 1.2-2.8 2.2-.2.4-.2 1.7.5 2.3 1 .7 2.4 1.1 3.6.6 1.4-.4 2.3-1.8 1.9-3.2z"/>
    <path class="uk-fill-default" opacity=".9" d="M459.3 480.1c-.1-2.9-.1-5.8-.2-8.7 0-.6-.3-8.6.2-8.5-.1.1-.1.2-.2.3 0-12-.3-24.1-.5-36.1-.2-11.9-.4-23.7-.4-35.6.1-10.9.3-21.7.6-32.6.2-9.3.5-18.7.7-28l.6-22.8c.6-19.9 1.1-39.9 1.1-59.8 0-9.9.2-19.9-1.2-29.7-.6-4.3-1.6-8.8-4.2-12.4-2.4-3.3-5.9-5.6-9.6-7.4-4.2-1.9-9.1-2.3-13.6-2.7-2.7-.2-5.4-.4-8.1-.4h-49.4c-7.7 0-15.4 0-23.2.1-7.8 0-15.7 0-23.5.1-15.9 0-31.8-.3-47.7-.3-10.1 0-20.1.1-30.1.4-8.9.3-18.9-.1-26.7 4.9-12.9 8.2-10.6 25.5-10.5 38.6 0 8 .1 16.1.1 24.1 0 7.5.1 15 .1 22.5.1 16.8 0 33.7-.3 50.5-.3 19.9-1 39.8-.7 59.8.3 20 .9 40.1.4 60.1-.1 5-.3 10-.4 15-.1 2.5-.2 5-.2 7.5 0 .4.1 2.8-.2 2.8-.1 0 0-3.2 0-3.6.1-10 .3-19.9.3-29.9 0-19.9-.9-39.9-1.3-59.8-.4-20 .3-40.1.4-60.1.1-14.5.1-29.1.1-43.6-.1-8.3-.1-16.7-.2-25 0-7.1-.1-14.2-.1-21.3 0-7.3-.8-14.8.7-22.1 1.9-8.8 7.1-16.1 15.6-19.3 4.4-1.6 8.9-2.2 13.6-2.4 5-.2 9.9-.4 14.9-.5 10-.2 20-.1 29.9 0 14.5.2 29 .5 43.5.6 8.4.1 16.8.1 25.2.2 7 0 14 .1 21 .1h15.3c9.3 0 18.5 0 27.8.1h6c4.2 0 8.3.4 12.5.9 4.6.6 8.8 1.6 12.8 4.1 3.4 2.1 6.4 5 8.2 8.7 1.9 4.1 2.7 8.9 3.2 13.4 1.1 9.8 1 19.7 1.1 29.5.1 19.9-.3 39.9-.8 59.8l-.6 20.9c-.3 9.2-.5 18.5-.8 27.7-.3 11.6-.6 23.1-.7 34.7-.1 11.3 0 22.5 0 33.8 0 3.4.1 6.7.1 10.1v21.8c0 .8.3 2.5-.3 3 .1 0 .2-.1.2-.1-.3 2.7-.1 5.6-.1 8.3v4.3c-.2.3.1 4-.4 4zM297.8 221.3l.2-.2c-1.2.6-3 1-4.1-.1-.9-.9-.8-2.9.6-3.4-1.9 0-2.1 2.7-1.3 3.9 1.1 1.4 3.2 1.4 4.7.8 3.1-1.3-.3-6.6-3.4-4.8 2.2-.6 4.4 1.6 3.3 3.8zm15.6-3.8c.8-.4 2-.3 2.8-.3H324.3c3.7 0 7.5-.1 11.2-.1 4.2 0 8.5.2 12.7.2 2.3 0 4.6-.1 6.9.1 1.5.1 3.3.1 4.7.6 1.2.5 1.6 2.5.2 3-1.8.6-4.2.5-6.1.5-4.3 0-8.5-.2-12.8-.2-4.5-.1-8.9-.1-13.4.1-4.5.1-8.9.4-13.4.1-1.6-.3-2.8-3-.9-4zm15.7 4.4c8.2.2 16.3-.1 24.5-.2 2 0 3.9 0 5.9-.3 1.5-.2 2.5-.9 1.9-2.6-.5-1.4-1.6-1.5-2.9-1.7-1.9-.4-3.9-.6-5.9-.6-8-.3-16-.6-24.1-.4-3.9.1-7.8.4-11.7.7-1.5.1-4-.1-4.5 1.8-.3 1.4.9 2.8 2.3 2.9 4.8.4 9.6.3 14.5.4zm121.2 51.4c0-4.9-.1-9.8-.2-14.7 0-2.4-.1-4.9-.1-7.3 0-1.2 0-2.4-.1-3.6 0-.8 0-1.4-.4-2-.3-.6-1-1-.8-1.7h-7.2c-22.5.2-44.9.5-67.4.7-22.4.3-44.9.5-67.3.4-13.7 0-27.5-.3-41.2-.6-7.6-.2-15.3-.3-22.9-.5l-11.4-.3c-1.8 0-3.6-.1-5.5-.2-.9 0-1.8 0-2.7-.1-.5 0-1-.1-1.5-.1s-.8.1-1 .5c-.1.2-.2.5 0 .6-.5.3-.2 1.9-.2 2.4v22.5c0 8.6.1 17.2.2 25.7.3 30.4.8 60.8 1.2 91.1s1 60.8 1.2 91.1h.1c-.1-17-.3-33.9-.5-50.9-.4-30.3-.9-60.6-1.3-90.9-.4-30.2-.6-60.5-.5-90.7.1-.1.2-.3.4-.4.4-.1.6-.1 1-.1.6 0 1.3 0 1.9.1l23.4.6c7.6.2 15.2.3 22.9.5 15.2.3 30.5.5 45.8.5 22 0 44-.3 66-.5 22-.3 43.9-.6 65.9-.7.3.8 1.3 1.2 1.5 2.2.4 3.2.2 6.7.2 9.9.1 2.9.1 5.8.2 8.7.2 13.9.4 27.9.3 41.8-.1 18.9-.5 37.9-1.1 56.8-.6 18.8-.9 37.6-1 56.3-.1 18.8.1 37.5.4 56.3.2-.2.1-.7.1-1.1 0-14 0-28.1.1-42.1.1-20.1.5-40.2 1-60.3.5-21.2.9-42.3.9-63.5-.2-11.9-.3-24.2-.4-36.4zM323.1 56.8c-1.7 4.5-5 8.2-9 10.7-4.8 3-10.5 4-16.1 3.2-5.2-.8-10.8-3-14.5-6.8-3.4-3.5-4.9-8.5-5.4-13.3-.6-5.2 0-10.6 2-15.4 4-9.6 14.2-13.1 24-12.2 4.7.4 9.8 2 13.3 5.4 3.4 3.4 5.3 8.3 6.3 13 1 4.9 1.3 10.5-.6 15.4zM324 45c-.5-4.9-2.1-9.9-5-13.9-2.7-3.6-6.7-5.7-11-6.6-9-1.9-20.5.1-25.5 8.6-2.7 4.7-3.9 10.3-3.8 15.7.1 5.3 1.4 11.1 5.1 15.1 6.8 6.8 18.6 8.3 27.3 4.4 4.2-1.9 7.9-5 10.4-9 2.4-4.3 3-9.4 2.5-14.3zm23.4 52.3c-.4 1-1.3 1.7-2.2 2.4-1 .9-2.5 2.9-4 2-.8-.5-1.4-1.4-2-2.1-.8-.9-1.5-1.9-2.3-2.8-1.3-1.6-2.6-3.3-3.9-4.9-2-2.6-4-5.1-6-7.6l-3.6-4.5c-.6-.7-1.2-1.3-.6-2.1.3-.4.8-.8 1.3-1.1-2-2.2-3.8-4.5-5.8-6.7-9.9 6.2-22.9 8.8-33.2 1.9-4.5-3-8.6-7.9-10.3-13.1-1.9-5.9-1.8-12.5-1-18.5.8-5.8 3-11.1 7.5-15 4.4-3.8 9.9-6.4 15.7-7 5.8-.6 11.9.2 17.2 2.5 5.3 2.3 8.9 6.2 11.5 11.3 2.8 5.5 4.4 12.1 3.8 18.2-.6 6.4-4 12-8.1 16.7.9 1.2 1.7 2.5 2.4 3.8.3.5 2.3 3.7 2.5 4.2.4-.3.8-.6 1.3-.8-.6.5-1.3 1-1.9 1.6-.8.6-2.2 1.4-2.6 2.4.3.9 1.5 1.8 2.2 2.5.9 1 1.8 2 2.8 3 1.4 1.5 2.7 3.1 4.1 4.6 1.9 2.2 3.8 4.3 5.7 6.6 1.3 1.6 2.5 3.4 4.1 4.8 1.1-.8 2.5-1.7 3.3-2.7-6.6-7.1-12.2-14.8-17.6-22.8 2.8 3.2 5.6 6.5 8.4 9.8 2.1 2.5 4.4 5 6.6 7.4.8.9 1.6 1.7 2.4 2.6.7.7 1.7 1.5 2.2 2.3.4.7.4.6.1 1.1zm-23-20.8c.3-.2.5-.3.8-.5.4-.3.8-.5 1.2-.8-.8-.4-5.3-6.7-5.9-7.3-.2-.2-.6-.6-.6-.8 0-.3.8-1 .9-1.2 1.1-1.4 2.1-2.9 3-4.4 1.8-2.9 3.2-6.1 3.7-9.5 1-6.8-1-14.1-4.2-20s-8.2-9.4-14.7-11.1c-6.6-1.7-13.8-1.5-20.1 1.3-5.8 2.6-10.7 6.9-12.7 13.1-2.2 6.6-2.3 14.3-.5 21 1.7 6 6.3 11.4 11.6 14.5 6.8 4 15.2 4.3 22.6 1.8 1.8-.6 3.5-1.3 5.2-2.1.9-.4 1.8-.9 2.7-1.4.3-.2 1.1-.8 1.4-.7.4.2.8 1 1.1 1.4.6.8 1.2 1.5 1.7 2.4.6.9 1.1 1.8 1.7 2.6.2.4 1 1.2 1.1 1.7zm-22.5-18l-4.3-.6c-.4-1.1-.7-2.2-1-3.4 0 1.1.2 2.2.5 3.3-1-.1-2.1-.2-3.1-.2-.4-1.1-.8-2.1-1.1-3.2.1 1.1.4 2.1.6 3.2-1.2-.1-2.3-.1-3.4-.1 1.2.2 2.4.4 3.6.5.6 2.4 1.5 4.7 2.1 7.1h.1c-.1-2.4-.9-4.8-1.6-7.1l3.1.3c.7 2.5 1.8 4.9 2.8 7-.5-2.4-1.4-4.7-2.2-7 1.3.1 4.5.2 4.5.1-.3.1-.4.1-.6.1zm168.4 44.9c-.3.4-.7.8-1.1 1.2.4-.5.7-.9 1.1-1.2zm14.3 13.7s-1 6.4-1.5 8.3c-.7 2.7-1.9 5.2-3.1 7.6-.9 1.9-1.9 3.9-2.5 5.9-.4 1.1-.7 2.2-1 3.5 0 .2-.4 3-1 3.5-.3.2-.7.3-1.3.3-.5 0-18.4-2.3-19.3-2.9-1.3-.8-1.2-2.3-1.2-3.4v-.8c-.1-2.9-1-5.7-1.8-8.5-.9-3.1-1.8-6.3-1.8-9.7 0-.7.2-3.3.6-6.7-6 1.1-12.3.9-17.9-1.5-7.2-3-13.3-8.7-17.8-15-4.3-6.1-6.7-13.3-6.4-20.8.3-7.4 2.8-14.5 7.4-20.4 9-11.5 24.2-16.3 38.1-11.3 13.7 4.9 23.1 18.2 23.9 32.6.4 7.3-1.1 15-4.9 21.4-.9 1.4-1.8 2.8-2.9 4.1-.4.3-.8.7-1.1 1.2.4-.4.7-.8 1.1-1.2.8-.7 1.9-1 3.3-.8 1.3.2 2.3.8 3 1.8.5.7.8 1.6 1 2.7.6-.5 1.4-.8 2.2-.9 2.4-.3 4.4 1.4 5.1 4.4.6 2.4.2 4.5-.2 6.6zm-33.6-4.8c1-8.7 2.4-20.9 2.4-21.2.3-2.5.6-5.5 2.8-7.1 1-.7 2.6-1 3.8-.1 1.1.8 1.2 2.4 1.2 3.6 0 .2.4 9.9 0 15.4.8-.9 1.8-1.5 3.2-1.8 1.6-.3 3.1.5 4.1 2 .5-.5 1-1 1.5-1.6 4.5-5.4 7-12.2 7.4-19.2.9-13.9-6.8-27.2-19.2-33.5-6.3-3.2-13.8-4.5-20.8-3.2A32.8 32.8 0 0 0 420 55c-5.1 5.1-8.5 11.8-9.9 18.9-1.6 8.4.2 16.5 5.1 23.5 4.1 5.8 9.6 10.6 16.1 13.4 6.4 2.9 13.1 2.9 19.7 1.5zm32.4-1.3c-.2-.8-1-3.6-3.4-3.3-.9.1-1.7.7-2.3 1.5 0 .7-.6 3.4-1.3 3-.6-.3-.4-1.6-.2-3.5 0-1.5-.2-2.6-.8-3.4-.5-.7-1.1-1.1-2-1.2-2-.3-3 1-3.7 3.1-.6 2.8-.3 3.9-1.6 3.5-.7-.2-.2-2.8.1-3.8 0-.8-.2-1.6-.5-2.3-.5-1-1.4-2.2-2.9-1.9-2.2.4-3.2 2.2-3.7 4.4-.1 1 .6 4-1.2 3.8-.7-.1-.5-3.2-.3-4 .7-7.6.2-19 .2-19.2 0-.8-.1-2.1-.6-2.5-.6-.4-1.5-.3-2.1.1-1.6 1.2-1.9 3.7-2.1 6 0 .5-3.1 26.5-3.2 29.7-.1 3.2.9 6.1 1.8 9.3.8 2.8 1.7 5.8 1.8 8.8v1c0 1.1 0 1.8.5 2.1.7.4 9.1 1.7 12.3 2 1.2.1 6.4.7 6.7.6.1-.2 1-5.1 1.4-6.2.7-2.1 1.7-4.1 2.6-6.1 1.1-2.3 2.3-4.8 3-7.3.5-1.8.8-3.7 1-5.5-.1-.8 1.3-6.1.5-8.7zm-32.6-29.4c-2 1-3.9 2-5.7 3.3-2.4 1.7-1.3 3.7-1.9 6.1-.4.1-4.9-.2-4.9-.2-.1 0-.2-.1-.3-.3-.4-1 .3-4.6.5-5.3.6-1.8 1.9-3.5 3.3-4.8 2.9-2.7 7.7-3.2 8.7-7.6.9-4-2.5-8.6-6.4-9.4-2.2-.4-4.1.2-5.6 1.9-.6.7-1 1.5-1.4 2.3-.2.5-.4 2.1-.8 2.4-.3.2-2.3-.1-2.9-.2-.7 0-1.3-.1-2-.2-.9-.2-1.1-.2-1-.9.2-1.8 1.5-4 2.6-5.5 1.1-1.6 2.5-3 4.3-3.9 7.8-4 18.1 1.8 19 10.3.7 5.2-.9 9.6-5.5 12zm.5-19.8C448 59 443.9 58 439.6 59c-4.6 1.1-7.4 5.6-8.4 10 1.3.5 3.2.2 4.6.3 1.1-4.2 4.1-7.7 8.8-6.7 4.2.9 7.7 5.7 7 10-.5 3.7-3.3 5.2-6.3 6.7-2.1 1-3.9 2.5-5.2 4.4-1.5 2.1-1.5 4.4-1.8 6.9.4 0 .9.2 1.1.2 1.2.2 2.4.4 3.6.3.3-2.1-.8-4.3 1-6 1.3-1.3 3-2.3 4.7-3.1 1.7-.9 3.5-1.7 4.8-3.2 1.4-1.7 1.8-3.6 2-5.7.4-4.6-.9-8.5-4.2-11.3zm-9.5 32.9c1.7.2 2.5 2 1.7 3.4s-2.7 1.9-4.1 1.4c-3.1-1.3 0-5.1 2.4-4.8zm2.2 4c.7-1.5-.1-3.7-1.6-4.5-3.5-1.9-7.6 3.8-3.2 5.4 1.7.5 3.9 1.1 4.8-.9zm-215.8 23c-4.3-2.2-8.6-4.6-12.8-7.2-3-1.8-6-3.6-8.7-5.8-2.9-2.3-5.6-4.7-8.4-7.1-.4.5 4.3 5.2 5 5.9 1.9 1.9 3.8 3.8 6 5.4a87 87 0 0 0 11.6 7.3l-6.2.6c-2.8.3-5.6.7-8.4.4.7 5-1.1 10.2-3 14.8-3.8-6.7-6.7-13.9-9.4-21.1-.5-1.4-1-2.8-1.5-4.1-.2-.6-.5-1.3-.7-1.9-.1-.3-.3-1.1-.6-1.7 1.1-.5 2.1-1.2 3.1-1.9 4.3-3.1 7.2-7.6 9.3-12.5 2.2-5.1 3.6-10.7 2.6-16.2-1-5.3-4.3-9.9-8-13.7-3.7-3.8-8-7.3-13.3-8.8-5.5-1.5-11.2-.2-16.2 2.3-4.7 2.4-9.1 5.7-11.9 10.2-1.4 2.3-2.4 4.9-3 7.5-.1.4-.9 4.2-.8 4.2.3.1.8-2.4 1-2.9 1.6-5.3 4.3-10 8.7-13.5 3.6-2.8 8-5.1 12.5-6.1 5.5-1.2 10.8 0 15.5 3 4.5 2.9 8.7 7.1 11.5 11.7 4.9 8 3.3 16.9-.7 24.9-2.3 4.6-6 8.5-10.8 10.5-5.4 2.3-11.3 2-16.9.6-5.4-1.4-9.9-3.8-13.6-8.1-3.5-4.1-6-9.2-7.1-14.6-.8.1 1.1 6.4 1.4 7.2 1.8 4.9 4.9 9.5 9 12.7 2.2 1.8 4.9 3.1 7.8 4-.4 1.1-.4 2.4-.7 3.6-.5 2.3-1 4.6-1.8 6.8-1.8 5-5 9.2-7.5 13.7-1.8 3.3-3.4 6.6-4.9 10 2.6-1.5 5.2-2.9 7.7-4.5 3.8-2.4 6.8-5.6 9.6-9.1 2.9 4.3 6.8 7.8 10.5 11.3.3-4.5.4-8.9.2-13.4-.2-5.3-.5-10.8-1.4-16.1-.3 0-.2 2.3-.2 2.7 0 1.1 0 2.2-.1 3.2v8c0 4.2.1 8.3.2 12.5-3.4-2.8-6.7-5.5-9.1-9.2-1.9 2.4-3.9 4.7-6.4 6.5-2.1 1.5-4.5 2.8-6.9 3.9 2.5-4.5 5.4-8.9 7.8-13.5 2.3-4.5 3.3-9.5 3.5-14.6 0-.3.1-1.2.1-1.8 2.5.7 5 1.2 7.4 1.4 4.1.3 8.1-.4 11.8-2.2.1 1.1.7 2.5 1 3.5.9 3.5 1.9 6.9 3.1 10.3 2.2 6.3 5 12.2 9 17.7 1.8-5.3 3.9-11.4 3.4-17.1 6.6 1.3 13.7.6 20.7.4zM173.9 66c.8-.4 1.7-.6 2.6-.7 2-.2 4 .1 5.9.7 3.3 1 7.3 2.6 9.6 5.3 4.3 4.8 6.3 12.6 3.4 18.5-1.4 2.8-3.6 5.1-6.2 6.8-2.9 1.8-6.5 2.3-9.8 2.3-3.3 0-7.2-.4-9.8-2.6-2.6-2.2-4.6-5.4-5.9-8.6-1.3-3.2-1.7-6.6-.7-9.9.7-2.5 2.2-6.1 4.5-7.5-.7-.4-2.7 2.8-3 3.2-1.1 1.6-1.9 3.4-2.4 5.3-1 4 0 8.1 1.8 11.7 1.4 2.8 3.6 6 6.4 7.5 3.1 1.7 7.1 1.9 10.6 1.6 3.6-.3 7-1.3 9.8-3.7 2.5-2.1 4.5-4.7 5.5-7.9 2-6.1.1-14.8-5.1-18.9-4.6-3.6-14-7.2-19.1-2.5.7.2 1.4-.4 1.9-.6zm-61.2 151.8c-5.4 5.4-12.8 8.4-20.4 7.9-8-.6-15.4-4.6-21.9-8.9-5.5-3.7-10.4-8.6-12.9-14.8-2.6-6.5-1.9-13.9 1-20.2 5.4-11.7 17.4-20 30-22.1 6.9-1.1 14.1-.2 20.4 2.9 6.5 3.2 10.5 8.6 12.4 15.6 3.5 13.2 1.5 29.7-8.6 39.6zm9.1-32.9c-.6-6.3-2.6-12.9-7.3-17.3-4.8-4.4-12-6.4-18.4-6.6-12.9-.4-25.7 6.6-33.1 17-4.3 6.1-6.8 13.9-5.3 21.3s6.7 13.2 12.7 17.3c5.8 3.8 12.3 7 19.3 7.8 6.7.7 13.2-1.2 18.6-5.2 10.7-7.9 14.8-21.5 13.5-34.3zm-37.1-2.5c1.2.6 1.7 1.8 2.2 2.9.6 1.3 1.2 2.7.6 4.1-.4 1.1-1.4 2-2.4 2.6-5.9 3.2-10.2-6.8-4.6-9.7 1.3-.5 2.9-.5 4.2.1zm-7.1 7.4c1.3 2.4 4.2 3.6 6.8 3 3.3-.8 5.1-3.9 3.8-7.1-.6-1.4-1.3-3.1-2.7-3.7-1.6-.7-3.5-.3-5.1.2-2.6 1.4-4.4 4.7-2.8 7.6zm18.6 14.9c-5.7.6-11.4 1.2-17.1 1.1-1.4 0-2.8-.1-4.2-.2-.7-.1-1.4-.1-2.1-.2-.3 0-1.7 0-1.9-.3-.3-.3 0-2.1 0-2.7 0-1.5 0-3 .6-4.4.7-1.6 2.5-2.9 4.1-3.6 1.4-.6 2.9-1.4 4.4-.7 1.6.8 3.1.9 4.9.5 1-.2 2.2-1 3.2-.9.8.1 1.7.7 2.5 1 .9.4 1.8.7 2.7 1.1 3.3 1.9 2.5 6 2.9 9.3zm-.7-.6c-.1-3.4.6-7.1-3.2-8.7-1.5-.6-3-1-4.5-1.5-1.5.8-3.1 1.4-4.8 1.4-1.4.1-2.3-.4-3.5-1-1.3-.6-3.1.1-4.4.7-1.4.6-2.8 1.6-3.5 3-.9 2.1-.2 4.3-.2 6.5 8 .4 16.1-.1 24.1-.4zm5.9-26.4c1.2.6 1.7 1.8 2.2 2.9.6 1.3 1.2 2.7.6 4.1-.4 1.1-1.4 2-2.4 2.6-5.9 3.2-10.2-6.8-4.6-9.7 1.3-.5 3-.6 4.2.1zm-7.1 7.3c1.3 2.4 4.2 3.6 6.8 3 3.3-.8 5.1-3.9 3.8-7.1-.6-1.4-1.3-3.1-2.7-3.7-1.6-.7-3.5-.3-5.1.2-2.6 1.5-4.3 4.8-2.8 7.6zm18.7 15c-4.4.5-8.8.9-13.2 1-1.2 0-2.9.6-3.1-.9-.3-2-.7-3.4-1.9-5.2-1.3-1.2-3.7-2-5.6-2.2.4-1.6 1.8-2.5 3.2-3.2 1.7-.7 2.9-1.2 4.6-.4 1.7.8 3.6.6 5.4 0 .9-.3 1.6-.8 2.5-.6 1.6.4 3.9 1.4 5.3 2.2 3.1 2.1 2.4 6.2 2.8 9.3zm-.8-.6c-.1-3.4.6-7.1-3.2-8.7-1.5-.6-3-1-4.5-1.5-1.4.7-2.9 1.3-4.5 1.4-.8 0-1.5 0-2.3-.2-.7-.2-1.3-.7-1.9-.9-1.1-.3-2.7.4-3.7.8-1.4.6-1.9 1.4-3 2.4 2.2-.1 5.1.6 6.5 2.3 1.2 1.5 1.8 3.1 2 5 4.9-.1 9.8-.4 14.6-.6zm358.1-96c-.3.4-.7.8-1.1 1.2.4-.5.7-.9 1.1-1.2zm136.5 43.7c-.2 1.3-.3 2.5-.5 3.8l-.9 7.4c-1.2 9.8-2.3 19.7-3.3 29.6-1.1 10.7-2 21.4-3.2 32.1-.2 2.3-.5 4.6-.7 6.9-.1.8-.2 1.5-.2 2.3-.1.8.1 1-.9 1-9.8-.6-19.6-1.7-29.4-3-11.2-1.5-22.4-3.2-33.5-4.9-.3-.1-.7-.1-1-.2-.9-.4-.2-4.1-.2-4.9.2-2 .8-8.5 1-9.8l1.5-13.2c1.2-9.9 1.8-19.7 2.6-29.7.7-9.2 1.7-18.5 3.9-27.5 0-2.3 8.4-1.2 9.6-1.1 4.9.3 9.8.7 14.7 1.2 9.9.9 19.8 2 29.5 3.7 2.3.4 4.6.8 6.9 1.3 1.2.2 2.3.5 3.4.9.8.3 1 .1 1.2.8.1.9-.4 2.4-.5 3.3zm-.8-2.9c-4.9-1.4-10.2-1.9-15.3-2.6-11-2-37.7-3.5-40.4-3.6-2.1-.1-4.4-.4-6.5-.1-.1.5-.2 1-.4 1.6-.3 1.4-.6 2.8-.9 4.3-.6 2.9-1 5.7-1.4 8.6-.8 5.8-1.2 11.6-1.8 17.4-1.1 11.7-3 23.2-4.7 34.8-.5 3.1-1.6 12.5-1.7 14.1 0 .7-.5 2.7 0 3.3 19 2.9 38.2 4.4 57.3 5.9 1.9.2 3.9.3 5.8.5 2.2-18.9 4.8-37.7 6.9-56.6 1.3-9.3 2.2-18.5 3.1-27.6zm-44 15.6c-.1 1.4-.1 2.9-.1 4.3 0 .5.2 1.8 0 2.1-.3.5-.8.4-1.5.5-4.3.2-8.6-1-12.8-1.9 0-3.3.4-6.7.8-10 .1-.9 0-1.9.2-2.7.3-1.3 2.2-.6 3.2-.5 3.2.4 6.4.8 9.6 1.4.1-.1.2-.2.2-.3 0 .1-.1.2-.2.3h.2c1.3.2.7 1.4.6 2.5-.1 1.5-.2 2.9-.2 4.3zm-.1-6.1c-.2 0-.5 0-.7-.1-1.6 3.4-4.1 6.4-6.4 9.4-1.1 1.3-2.1 2-2.8 0-.6-1.7-.7-4.7-2.2-5.9 1.3.6 1.6 2.1 2 3.2.1.2 1.3 3.3 1.4 3.2.5-.3 1.2-1.6 1.6-2.1.5-.6.9-1.2 1.4-1.8 1.6-2 3.2-4 4.7-6-3.8-.3-7.6-.9-11.3-1.2-.2 4.1-1.3 8.3-2 12.3 4.5-.1 9 1.2 13.5 1.1.3-4 .8-8 .8-12.1zm-1.6 21.8c-.3 2.6-.9 5.1-1.3 7.7-.1.8-.2 2.9-.7 3.5-.6.6-2.4.3-3.2.3-3.5-.2-7.1-1-10.5-1.8 0-3.3.5-6.6.9-9.9.1-.8 0-2 .3-2.7.3-.9 1.3-.6 2.1-.5 2.6.2 5.2.5 7.8.9 1.3.2 2.6.3 3.9.5 1.1.3.9 1 .7 2zm-.4-1.3c-2.9-.2-5.8-.5-8.7-.7l-3.4-.3c-.3 0-.7-.1-1-.1 0 1.9-.6 4-1 5.8l-1.2 6.3c4.4-.1 8.7 1 13 1 .6-2 1.2-4.1 1.6-6.2.4-1.7 1.1-4.1.7-5.8zm-2.6 22.3c-.3 2.6-.9 5.1-1.3 7.7-.1.8-.1 2.9-.7 3.5-.6.6-2.4.3-3.2.3-3.5-.2-7-1-10.5-1.7 0-3.3.5-6.6.9-9.9.1-.8 0-2 .3-2.7.3-.9 1.3-.6 2.2-.5 2.6.2 5.2.6 7.8.9 1.3.2 2.6.3 3.8.5 1.1.1.9.9.7 1.9zm-.4-1.4c-2.9-.2-5.8-.5-8.7-.7l-3.4-.3c-.3 0-.7-.1-1-.1 0 1.9-.7 4-1 5.8l-1.2 6.3c4.4-.1 8.7 1.1 13 1 .6-2 1.2-4.1 1.6-6.2.4-1.6 1.1-4.1.7-5.8zm18.8-36.6c3 .5 5.9 1 8.9 1.4 3.8.5 7.6 1 11.4 1.2-3.7-.9-7.5-1.5-11.2-2.1-3.1-.5-6.1-.9-9.2-1.3-1.5-.2-3-.3-4.5-.5-1.5-.1-3-.5-4.5-.4 3 .2 6.2 1.2 9.1 1.7zm-7 5c1.1.2 2.1.3 3.2.5 1.9.2 3.9.5 5.8.7 4.1.4 8.1.8 12.2 1.5v-.1c-3.6-1.4-7.5-1.9-11.3-2.3-4-.4-8-.6-12-.7.4.3 1.5.3 2.1.4zm2.5 14.7c2.7.6 5.3 1.1 8 1.6 4.8.9 9.7 1.8 14.6 2.1-2.6-.6-5.1-1.2-7.7-1.7-3.5-.8-7-1.5-10.6-2-1.8-.3-3.6-.5-5.5-.7-1.7-.2-3.5-.6-5.2-.5 2.1 0 4.3.7 6.4 1.2zm-4.3 5.3c1.1.1 2.1.2 3.2.4 1.9.2 3.9.5 5.8.8 4.1.6 8.1 1.4 12.2 1.6v-.1c-7.4-2.5-15.6-2.8-23.3-3 .4.3 1.4.2 2.1.3zm-3.2 15.7c.9.2 1.7.3 2.6.5 1 .2 2 .4 2.9.6 1.6.3 3.2.7 4.8 1 5.5 1.1 10.9 2.5 16.6 2.7v-.1c-4.7-1.3-9.6-2.1-14.4-2.9-2.4-.4-4.8-.8-7.3-1.2-2.4-.3-4.9-1-7.3-.9.5.2 1.5.2 2.1.3zm21.2 8.3c-7.5-2.2-15.5-3.3-23.3-3 7.7 1.3 15.5 2.4 23.3 3z"/>
</svg>
