<svg width="2560" height="550" viewBox="0 0 2560 550" xmlns="http://www.w3.org/2000/svg">
    <path opacity=".65" fill="#e1f0fb" d="M2560 0H0v264.8c178.5 90.9 347.2 115.7 584.6 140.7 45.3 33.7 92.7 62.9 157.9 77 101.3 21.9 189 13.1 279.3-3.5 141 35.6 264.7 71 407.2 71 149.5 0 245.5-36.1 325.9-80.1 93 5.5 199.2-2 323.9-42 88.5-28.4 202.6-92.7 308.9-143.3 59.4 1.9 118.1 8.9 172.2 22.4v-87.3h.1V0z"/>
    <path fill="#e1f0fb" d="M584.6 405.5c33.5 3.5 68.3 7.1 104.7 10.8 127.4 13 234.2 37.9 332.5 62.7 112.9-20.7 229.9-53.7 383-54.3 99.8-.4 210.2 37 350.1 45.2 69-37.7 126.4-81.3 196.2-112.7 95-42.8 268.9-78 436.6-72.6 62.3-29.6 121.9-54.6 172.2-64.9V0H0v233.3c363.9-33.1 467.3 84.9 584.6 172.2z"/>
</svg>
