<svg width="660" height="460" viewBox="0 0 660 460" xmlns="http://www.w3.org/2000/svg">
    <path fill="none" opacity=".6" d="M272.1 423.7c9.5-22.1 5.9-27.2 8.5-32.8 4.1-7 10.3-14 14.4-23.8 3.2-6.5 13.8-29.2 14-30.1-1.2-2-10.3-7.2-10-10.1.3-2.9 1.9-5 8.8-7.7 1.9-2.7.1-17.5-.5-24.6-4.7-6.6-13.8-16.3-16.5-24-1.7-8.2-3.1-22.6-6.1-29.8-3.5 4.9-9.7-6.4-9.7-11.6-.7-3.9-2.8-13.6-4.3-17.3-1.5-.7-4-2.1-6.4-3.5-.7-1.4-1-4.3-1.1-5.5-.6-7.4-5.1-9.1-6.1-20.7 8-17.9 7.8-27.3 4.2-37.6 1.1-2.6 5.9-4.9 9.5-10.3 4.1-6 2.8-14.3 4.2-17 2-5.7 10.4-3.6 13.2-15.2 1.7-6 8.2-13 5.5-15.9 5.5-6.1 18.2.8 28.2-8.3-.5-2.6 9-4.9 15-6.8 12.7 1.2 13.9-4.2 21.4-4.2 10 0 25.9 6.3 35.2 8.6-1.9.7-4.9 1.5-6.8 3.8 3.7-1.1 7.5.7 11 3 2.5 1.8 4.9 6.9 8 10.7 5 2.3 9.1 4.8 13.2 8 7.5 5.1 18.4 27.3 19.8 34.6 1 5.2-.9 13.6-1.8 23.7.1 1.3 2.7 4.6 2.8 8.4.1 4.4-1.4 8-1.9 13-.3 3.2.9 3.8.7 7.4-.2.4-1.4 3-1.5 3.9 6.1 3.6-1 11.6-7.3 34-1.9 5.4-3.8 18-14 14.4-2.4 11.7 0 28.3-11.1 44.3-1.1 10.9-2.1 17.4-1.4 30.2.6 1 2.6-1.1 4.6-1.5 4-.9 10.6-2.6 12.9-.4 2.3 2.3-1.2 7.9-5.4 14.4-8 14.3-13.2 16.1-16 18.5-1.1.9-2 1.8-3.1 2.4-1.1 2.7-.5 4.8-7.8 6.9 6.6 5.8 5 14.9.6 17.3-5.3 2.7-16.4 9.3-23.5 4.8-2.9-2.3-3.1-3-4.6-4.5-.2.3-.5.9-1.1 1.8-1.1 4.5-2.4 10.2-4.7 14.7-6.3 9.7-15.3 20.5-20.7 21.5-4.6 6.3-9.6 13.9-13.5 20.7-4.1 7.1-9.9 18.5-9.7 24-34.2 2.9-39.1-31.8-39.1-31.8zm-25.3-270c-3.4.9-5.6-2.6-6.5-2.9-3.9-4.8.7-10 6.5-5.3.2.3 3.5 6.2 0 8.2zm-14.6 17.6c-.4 3.8-3.6 5.2-7.3 5.1-3.9-.2-6.7-4.1-7.9-7.7-.7-2.1-.2-9 8.1-7 4.8 1 7.6 5.3 7.1 9.6zm-54.8 19.4c-3.8-4.2-4.4-9.1 2.3-13.8 3.8-2.6 9-3.2 13.4-.2 2 1.7 4.5 6.6 4.7 7.9.9 7.1-8.8 18.9-20.4 6.1zm18.1-96.8c-.6 4.4-2.3 12.2-4.3 16.6 1.2 2.4 3.4 5.8 3 15-.4 8.3-3.9 19.2-10.5 27.2-6.8 8.3-17.1 11.9-26.4 7.4 4 7.9-8.5 23.6-19.3 29.4-11 5.8-24 7.6-35.4 3-19.3-7.8-19.7-17.4-23.5-17.8-8.8-1.4-15.8 4.3-39.4-9.8-9.9-7.8-16.8-20-18.5-32.9-.7-5.7-.8-16.2 3.2-24.9C10.4 96.6 9 79.9 13 70.5c9.6-17.9 17.6-16.3 18.8-19.2.3-11.8 3.1-18 6.5-23.8C41.5 21.9 49 15 54.7 12.2c14-6.6 31.7-7.6 47.2-.7 2.9-5.6 29.2-8.5 41.1-3.6 3 1.5 13.4 5.7 16.1 17.9 9.8-1.7 17.1 1.2 20.2 3.5 5.8 4.4 9 7.9 11 14.9 1.7 5.8 1.3 14.1-3.5 21.4 9.9 3.8 9.4 23.3 8.7 28.3zm255.7-17.8c-1.2 3.3-3.5 4.4-6.5 3.5-4-1.2-4.7-5.2-3.9-9.3 6-5.9 13.3-2 10.4 5.8zm38.6-8.7c-1.4 3.6-6.8 8-10.3 6.4-3.4-1.6-8.2-6.8-8.8-9.8-1.2-7.2 10.7-8.4 10.8-8.3 9.1 1.6 9.9 7.5 8.3 11.7zm141.5 83.3c5.7 6.8-2.7 21.1-9.2 33-2.5 4.6-15 19.6-29 22.2-5.2 1-10.3-2.6-17.5-4.1 3.5 7.7-21.2 17.1-31.6 18.2-10.9 1.2-22.7-.3-33.8-8.8-15.9-12.1-23.9-20.4-20.7-39.5-6.8-1.1-13.6-5.4-15.4-14.7-4-18.9 5.1-30.4 5.7-36.2.1-1.4.2-3-.4-5.8-.8-4.1-.7-8.6 1.4-12.9 3.8-8.7 14.1-13.7 24-12.3.1-.6-2-4.9 3-13.2 7.9-11.2 17.2-20.8 37.8-29.4 7.8-3.3 29-6.3 45.4 3.8 10.2.1 27.4 4.8 30.5 25.8 1.8 2.6 14.1 10.4 22.2 24.3 9.4 16.7 2.6 39.7-12.4 49.6z"/>
    <path class="uk-fill-primary" fill="#c6e3f7" d="M441.2 319.4c1.3 4.7 18.2 9.1 27.7 12.1 9.1 4.1 20.2 12.3 27.9 17.1 4 3.1 8.1-2.1 4.1-5.2-7.3-5.7-12.3-9.7-20.3-14.4-7.9-4.6-16.3-7.2-24.8-10.4-8.6-3.3-15.9-9-24.9-11.4-2.1-.6-15.5-2.5-21.7-1.1-.9-10.2 4.8-19.8 8.5-29.1 3.5-8.9 5.1-18.4 4.7-27.9 26.9-22.6 22.6-63.3 23.1-95 .1-8.9.4-18-1.8-26.7-1.9-7.5-5.8-14.3-10.5-20.4-8.7-11.3-19.7-20.9-31.6-28.8.4-.3.7-.7 1.1-1.1 1.5-1.8 1.7-5.1-.8-6.3-15.3-6.8-31.9-10.3-48.6-9.3-16.9 1-33.3 6.1-48.7 12.9-15.4 6.8-25.1 20.4-33.2 34.7-6.7 11.9-16.3 29-17 36.4-.8 7.4 2.4 13.6 2.4 13.6-3.2 14.4-11.6 22.5-5 36.2-.7 1.4 2.1 15.6 3.5 17 7.6 7.1 10.2 10 11.9 20.2 1.1 6.8 3.8 14.5 10.4 16.7v.3c2.8 13.2 5.7 26.8 13.2 38.3 4.1 6.3 9.2 10.9 9.3 18.9.1 3.9 0 8.1-2.8 11.1-2.1 2.3-5.2 3.9-8 5.2-13.5 6.5-28.4 10.9-42.4 16.2-15.3 5.7-22.1 8.9-37.3 15-7.6 3-7.9 10.6-3.1 8.8 2.9-4.8 29.7-15.7 47.6-19.5 15.9-3.4 37.7-12.7 45.2-18.9 1.6-1.2 4.9-3.5 8.1-5.2 1.9-2.7.1-17.5-.5-24.6-4.7-6.6-13.8-16.3-16.5-24-1.7-8.2-3.1-22.6-6.1-29.8-3.5 4.9-9.7-6.4-9.7-11.6-.7-3.9-2.8-13.6-4.3-17.3-1.5-.7-4-2.1-6.4-3.5-.7-1.4-1-4.3-1.1-5.5-.6-7.4-5.1-9.1-6.1-20.7 8-17.9 7.8-27.3 4.2-37.6 1.1-2.6 5.9-4.9 9.5-10.3 4.1-6 2.8-14.3 4.2-17 2-5.7 10.4-3.6 13.2-15.2 1.7-6 8.2-13 5.5-15.9 5.5-6.1 18.2.8 28.2-8.3-.5-2.6 9-4.9 15-6.8 12.7 1.2 13.9-4.2 21.4-4.2 10 0 25.9 6.3 35.2 8.6-1.9.7-4.9 1.5-6.8 3.8 3.7-1.1 7.5.7 11 3 2.5 1.8 4.9 6.9 8 10.7 5 2.3 9.1 4.8 13.2 8 7.5 5.1 18.4 27.3 19.8 34.6 1 5.2-.9 13.6-1.8 23.7.1 1.3 2.7 4.6 2.8 8.4.1 4.4-1.4 8-1.9 13-.3 3.2.9 3.8.7 7.4-.2.4-1.4 3-1.5 3.9 6.1 3.6-1 11.6-7.3 34-1.9 5.4-3.8 18-14 14.4-2.4 11.7 0 28.3-11.1 44.3-1.1 10.9-2.1 17.4-1.4 30.2.6 1 2.6-1.1 4.6-1.5 4-.9 10.6-3.2 12.9-1.1-.1-.1 19.3 6.3 20.9 6.9zM592.3 69.9c-3.3.4-5.4 2.8-7.1 5.5-2.4 3.8-4.7 6.3-8.7 8.6-7.7 4.5-15.2 9-22.2 14.6a128 128 0 0 0-20 20.3c-2.8 3.5-5.1 7.4-8.2 10.7-3.3 3.6-7.5 6.1-11 9.4-12.7 12.2-15.4 32.2-7.4 47.6 1.7 3.2 6.3 2.1 7.3-1 1.3-4 2.7-8.1 4.3-12.1.3.7.6 1.4 1.1 2.1-1.7 4.7-4.2 10.1-4.2 14.9 0 4.1 3.4 7.4 7.7 6 2.3-.8 4.3-3 6.1-4.6l7.5-6.6 6.8-5.9c-.6 1.1-1.4 2.1-2.2 3.1-2.5 2.8-6 5.6-5.8 9.8.6 9.3 11.5 6.5 16.8 3.9 16.2-7.9 24.4-25.5 21.8-42.9a69.8 69.8 0 0 0 21.1-42c.6-4.5.4-9 .4-13.6 0-5.4 1.6-9 3.6-13.9 2.4-5.6.4-15-7.7-13.9zm-6 20.1c4.3 23.3-7 43.7-21.4 61.1 7.4 13.1-.5 29-19.4 39.9 1.6-1.7 11.2-9.8 11-22.9-.3-2.5-1.2-3.8-2.8-5.6-3.3 2.9-12.3 12.3-14.3 11-1.1 2.1-.9 2.3-1.8 3.6l-5.1-1.4c-.7.6-6 9.2-7.6 10.8 1.9-4.5 4.6-9.4 5.8-12-1.4-1.1-3.2-2.8-3.8-4 .2-1.1 1-1.8 1.8-3.3-.4-.4 2.5-14.9 3.6-17-8-.6-17.1 13.3-20.1 21.1-.7-12.4 4.4-35.5 25.6-36.7 3.3-10.3 12-22.3 17.6-27.9 5.4-5.3 18.9-14.1 30-17.1 1.9-3.2 4.6-8.3 6.2-10.7.3-.4-.7-1.2-.2-2.4.6-.9 2-.9 2.8-.2.3.3.8 1.4.4 2.3-.4.8-1.2 1.3-1.9.8-2.1 2.8-5 8.1-6.4 10.6zm-433-30.2c-7 1.8-13.5 4.8-19.3 9-.5-.5-1-1-1.5-1.4-1.4-1.2-2.9-2.4-4.5-3.6.3-.4.5-.8.7-1.3 1.2-3.4 3.1-6.4 5.5-9.1 3.5-3.8-2.2-9.5-5.7-5.7-3.2 3.5-5.5 7.4-7.3 11.7-3.8-2.1-7.9-3.7-11.9-4.2-.1-4 0-7.9.5-11.9.3-2.1-2-4-4-4-2.4 0-3.7 1.8-4 4-.5 4.1-.7 8.1-.5 12.2-2.6.6-5.1 1.5-7.5 2.7-1.6-3.6-3.7-6.9-6.2-9.9-.4-1.8-2-2.8-3.9-3l-.6-.1c-3.7-.5-4.9 4.6-2.8 6.8 2.8 3.1 5 6.6 6.7 10.4-1 .7-1.9 1.4-2.7 2.2-1.4 1.2-2.7 2.5-3.9 4-.1-.1-.3-.2-.5-.4-2.7-1.7-5.1-3.8-7.3-6.1-.3-.7-.8-1.4-1.8-1.9-.1-.1-.3-.2-.4-.2-1.9-1.1-4.4-.4-5.4 1.5-.9 1.6-.6 3.5.6 4.8 3 3.4 6.5 6.3 10.3 8.8 0 0 .1 0 .1.1-2.4 4.6-3.6 9.9-3.3 15.1.2 4.5 1.5 8.9 3.8 12.8 2.2 3.6 5.4 6.6 7.4 10.3v.4c.3 15.4-3.8 44.7 19.1 44.2 8.2-.2 17.3-1.7 21.4-9.8 4.9-9.7-1-21.8 3.4-31.5 1.9-4.2 5.2-7.7 7.5-11.6 2.7-4.6 4.9-9.5 5.6-14.8.8-5.4-.1-10.5-2.4-15.1 5.1-3.6 10.7-6.2 16.8-7.7 5.1-1.2 3-9-2-7.7zm-26.1 42.6c-4.2 6.1-8.2 7.5-8.6 14.5-.2 3.9.3 21.4-.3 25.8-.3.1-1.2.2-2.8.2-.7 1.1.5 3.6-.9 4.3-4.2 0-14.2.5-18.1.2-.5-1.6-.5-2.1-.5-3.9-.8 0-1.5-.3-2.9-.6.3-8-.7-23.2-.8-26.8.7-1.2-.1-3.4-.8-5-2.1-5.2-4.4-6.1-7.5-11.7-3.5-6.2-4.4-15.3-1.1-21.5 3.4-6.3 7.8-10.2 14.4-12.8 8.4-3.4 15.7-2.2 23 2.3 6.1 3.8 11.6 10.1 12.6 17.1.8 6.7-1.3 11.4-5.7 17.9z"/>
    <path class="uk-fill-default" opacity=".04" d="M299.1 129l1.2-.6c.6.1 1.1.2 1.7.2-1.8.6-3.6 1.2-5.5 1.6v-.1c.9-.3 1.8-.7 2.6-1.1zm22.7 2c-4.2.3-8.3 1.8-11.8 4.1-4.2 2.7-8.4 4.8-10.5 11.4-.2 5.2-5.1 24.8-5.4 26-.8 4.7-2.1 9.4-4.1 13.7.2-.1.4-.3.6-.4.6-.5 1.6-.1 2 .5.4.7.1 1.5-.5 2l-.7.5c-3.6 2.8-6.2 6.9-7.4 11.3-.1.4-.3.7-.6.8l.4 7.1c.6.1 1.2.6 1.3 1.4l1.4 20.9c.4 1.2 1 2.3 1.6 3.4 1.2 2.2 2.6 4.2 3.8 6.4.9 1.8 1.6 3.6 2.2 5.5 1.1 1.3 2.5 2.5 3.9 3.4.4.3.8.8.7 1.3-.2 1.9 2 7.2 2.4 11.6 0 .3.9 4.1.9 4.1.2 2.2-1 3.4-4.3 2.9-.2 0-2.6-.3-2.6-1.7v-.3c0 1.1-.2 4.1-.5 4.3.5 1.5 1.2 3 2 4.4 1.7 2.7 3.9 5 6 7.4 2.2 2.5 4.2 5.1 6 8 3.1 4.9 6.2 10.6 11.8 12.9.7.3 1.3 1 1 1.8-.2.7-1.1 1.3-1.8 1-.5-.2-1-.5-1.5-.7.1.1.1.2.2.4.2.5 2.2 1.8 1.9 2.8-.8 3.1-2.3 6.6-3.5 9.6-.4 1-1.5 1.2-2.2.8.8 1.2 0 4.1 0 4.1 0 .5-3.9 9.6-4.8 11.2-.6 1-.5 1.7-2.5.4-1.5-1-3.4-2.5-4.9-3.6-1.6-1.2-2.7-2.1-2.8-4.1-.1-1.9 1-3.8 2.4-5 1.6-1.4 3.5-2 5.5-2.7.6-.2 1.3-8.6 1.1-12.5-.2-3.7-1.6-12.4-1-12.6l-1.9-3c-1.9-2.9-4-5.5-6.3-8-4-4.6-8.8-14.7-9-17.2-.3-2.6-6.1-26.6-5.8-27-.3-.7-1.8-10.2-1.7-13.2 0-.4-1.2-10.6-1.4-11.2-.1-.1-.1-.3-.2-.4 0 .2 0 .4-.1.6l.1-.1c-.1.4-.3.7-.5 1 .5.2.8.8.9 1.3l2.3 22.7c.1 1.2-1.7 2-2.5 1-.5-.6-.9-1.2-1.2-1.8-.2-.1-.4-.2-.5-.3-2.3-2.3-3.7-5.5-3.7-8.8-.1-.1-.2-.3-.3-.5a39 39 0 0 1-2.6-13.5c0-.4.1-.7.4-1-1.6-1.3-3.3-2.6-4.9-3.9.5.2.9.3 1.4.4.7.2 1.4.4 2 .6.3.1.6.2 1 .3.2.1.3.1.5.2h.1c.2.1.5.2.7.4.1.1.2.1.3.2l.2.2s.1.1.1.2c.3 1.1 1.4 1.8 2.5 1.8-.2-.2-.3-.4-.4-.6-.2-.5-.4-1-.5-1.5-.7-.2-1.5-.5-2.2-.8-1.7-.5-3.3-1.2-4.9-1.9-.8-.3-.9-1.1-.6-1.8-1.1-1-2-2.1-2.9-3.3-2.9-4-4.8-8.8-6.2-13.5-.8-2.5-1.3-5.2-1.3-7.9-.1-2.5.4-5 1.2-7.4.3-2.2.9-4.3 1.7-6.4.2-.6.7-1 1.2-1.2.8-2.3 1.2-4.8 1.4-7.2.3-4 .1-8.1-.3-12.1l-.1-.1a7.15 7.15 0 0 1 0-7.7c.5-.8 1.5-1 2.2-.6 1.3-1.1 2.6-2.3 3.6-3.7 3-3.7 4.9-8.3 5.4-13 .3-2.7.4-5.5 1.6-8 1-2.1 2.7-3.9 4.9-4.6 1.4-.5 2.1 1.6 1 2.3-1.8 1.1-3.3 5.6-3.4 6-.3 1.2-.9 3.9-1 4.1-.8 1.6-3.2 11.5-3.1 11.6-.3.4-1.2 2-1.5 2.4-.4.4-.8 3.9.5 5.9.7 1.1 2 1.8 2.4.3.1-.4 2-1.6 2.6-1.7 1.2-.2 1.1-1.7.2-2.2 1-1.1 1.9-2.2 2.7-3.4.1-.1.1.1.1 0 1 .9 2.3 1.1 3.8 1.1.2 0-.9 1.4-1.5 2.5-1.7 2.7-3.7 13.1-3.1 26.4 1.2 28-.7 33.1-.5 34.8.4-3 1.2-8.2 1.1-10.9 0-3 1.5-27.2 1.6-28.3.3-5.9.2-11.7 1.6-17.4.4-1.7.7-2.8 1.5-4.2.7-1.3 10.4-10.2 10.5-10.5 1.6-.7 6.2-2.3 6.2-2.4 3.3-.1 9.7-4.4 9.9-4.5 2.4-1.6 3.6-1.4 4.8-1.2.8.2 2 1.2 2.2 1.5.1.1 1 1.3 1.1 1.4.4 1 .1.9.1 1.4 0 .1.8.4 1.3-.4 0-.1.5 1 .7 1.1.2.3.9.7 1.1 1 2.6 1.3-1.1 1.8-2.3 1.8zm79.8 70.4c-2.2-1.1-4.5-1.8-6.8-2.2 0-.6-.3-1.2-1-1.4-4.5-1.2-25.5-10-33.1 6.1 0 .1-.1.1-.1.2-.7-.1 2.4 15.8 3.2 11.4.1-.6-.1-1.2-.5-1.6v-.1c.1 0 1.9.5 2.6-.2.9-.9 9-8.3 11.5-9.7.5-.3.7-.7.7-1.2 7.4-1.4 15.2-2.2 22.1 1.1.7.3 1.6.2 2-.5.3-.6.2-1.6-.6-1.9zm-61.7 41.2c-.1.1-3.1 1.8-4.4 4.9.1.8-2 1.7-2.3 1.7-1.3.1-2-1.7-1-2.5.3-.3 1.3-2.3 1.3-2.4-.7-.1-1.3-.8-1.1-1.8.1-.3 2.4-6.5 3.4-9.2.1-.2.2-2.1.1-2.8-2.6-1.1-4.8-3.3-5.7-6-.2-.1-.5-.2-.7-.3-.5.1-4.7 1.1-4.8-.1-1.3-.1-1.9-2.2-.6-2.7 3.2-1.4 6.4-2.7 9.5-4.1 0-.9-.2-1.7-.1-2.6.3-3.1-3.9-6.5-4.7-7-8.7-5.2-25.2 2.7-26.6 3.3-3.7 1.5-15-.2-14.5-4.6.5-4.4 33.1-7.7 34.3-8.9.5-.4 5.6-1.8 6.5-.7 1.9 2.5 9.9 5.2 10.1 5.3 2.9 3 5.4 27.8 6.1 29.4 2.2 4.8-2.6 8.3-4.8 11.1zm31.3 30.8c-6.1-.5-11.6 3.9-17.3 5.5-2 .5-3.8-1.6-20.2 3-.6.2-4.2.7-3.3 4.2.2.7.3 1.3.7 1.9.2 1.3.9 2.6 1.9 3.5 2 1.8 4.7 2.3 7.3 2.2.4.4.9.8 1.4 1.2 1.1.7 2.2 1.3 3.4 1.7l-.6.6c-2.1 2.5 1.4 3.9 2.2 3.9 1.8 0 2.5-1.1 3.7-1.6.9-.4 3.7-5.1 2.3-5.3h-.2c-.3-.2-2.4-.4 0-.8.7-.1 1.1-1 1.1-1.6-.1-.8-.7-1.2-1.4-1.3l-6.7-.6c-3.7-1.5-2-4.2.5-5.5-.1-.2 4.6-2.2 8.8-2.7 2.8-.3 5.2-1.9 7.8-2.9 2.7-1.1 7.3-1 10.2-.8.8.1-.3-1.8-.3-2.5-.2-.9-.5-2-1.3-2.1zm62.7-73.3c-.6-.4-1.7-.2-2 .5-2.6 5.9-5.3 11.8-7.9 17.7-.2-.1-1.1-3.1-1.1-3.4.4-1.8-2.3-2.6-2.8-.8-.4 1.1-.7 2.2-.9 3.4-.7 1.7-1.1 3.5-1.2 5.3-.4.1-1 .4-.8 1 1.1 5-5.6 17.2-6.5 20.9-.3.6-1.9 2.5-2 3.2l-1.2 10.1c-.2 1.6 2.6 2 2.9.4.1-.5 4.6-12.6 5.8-17 .1-.4 1.3-1.4 1.6-2 1.2-2.7 2.4-5.3 3.6-8 .4-.1.8-.5.9-1l.3-1.7c.8-1.7 1.5-3.4 2.3-5.1.1-.1 6.5-14.5 9.7-21.6.1-.6 0-1.5-.7-1.9zm-19.3 128.5c-.4.7-5.5 7.6-7.9 10.6-2.4 3.1-5.4 6.2-9.4 7.1-.7.2-1.9 0-2-.8-.5-3.8-6.2-7-2.7-7.8h.1c.8-2.3 1.5-4.6 1.8-7-.4-1.8-1.2-3.6-2.4-4.9-.8-.9-1.7-1.6-2.7-2.2-.9-.5-1.2-1-1.3-2-.1-.7-.1-1.5-.2-2.2-.1-2.2-.1-4.5 0-6.7-.3-.3-.5-.7-.5-1.1-.1-1.4-.2-1.9-.3-3.3-.1-.5 2.2-3.4 2.2-3.4.1-.2 9.2-12.7 12.7-16.9 1-1.2 2.9-2.2 2.2-.9-2 3.9-4.3 10.2-6.8 13.7.4.3.2 10.9.7 15.7.1.1 1.6 2.7 2.4 3.8 1 .3 2.6 6.6 2.8 6.8.7.6 4.9-1.8 5.8-2.3 1.8-.9 3.5-.6 5.1.6 1 .6 1.2 2.1.4 3.2zm-33.1 41.2c-.2 0-.3-.1-.5-.1-.1 0-1.3.9-1.5 1.1.4.6.4 1.4-.2 2-1.6 1.5-3.4 2.9-5.6 2.6-.5-.1-1-.2-1.5-.4-1 .3-1.9.4-2.9.3-1.5-.2-11.5-5.8-13.1-6.2-.4 0-.8-.1-1.1-.5-.8-1-1.4-2.1-1.8-3.2-.8-1-1.4-2.2-1.7-3.5-.4-.1-.8-.2-1.2-.4-.4-.2-2.2-1.9-2.5-2.5-.1 0-.3.1-.4.1s-3.1 1.2-3.7 1.2l-1.1.5c-.6-.6-1.9-1.8-1.4-2.9.4-1 6.3-6.3 6.9-6.5 1.2-.5 2.5.1 3.3 1 1.8.3 3.6.9 5.3 1.8.5.3.9.7 1.1 1.1.4-.2.7-.3.8-.3 6.1.4 8.4-1.6 9.2-1.6 3.7-.3 3.3 1.6 2.1 2.8-1.4 1.3-3 2.4-4.7 3 0 1-1.8 4.2-2.1 4.9-.3.5-.3 1 .2 1.5.6.7 1.7 1.1 2.6 1.5.7.3.9 1.2.6 1.8v.1l.1.1c.4-.3.3-1 .2-1.5-.1-1.2-.2-2.4.1-3.6.2-.8 1.1-1.3 1.9-1.1.4.1.7.3.9.6.2-.5.8-1 1.3-1 .5-.1.9.1 1.3.4.5-1.1 2.3-1.1 2.9 0s.7 2.2.7 3.3c.4-.2 5.2 0 6.7.5.1 0 .3.1.4.2 1.4.7.1 3.4-1.6 2.9zm6.2-19.1c0-.1-1.8-2.2-.4-5.6.3-.8-.3-1.7-1.1-2-.9-.2-1.6.3-2 1.1-.1.2-.6.3-.8.3-.6 0-2.8-1.1-3.3-1.4-3.7-3.3-7.9-6.1-12.7-7.5-.6-.2-7.9-1-11.2-.5-1.6.3-1.2 2.9.4 2.8 2.7-.1 5.3-.3 7.8.5.8.2 21.6 15.8 22.5 14.6.2-.2.3-.4.4-.6.5-.3.8-1 .4-1.7zm0-20.7c-.3-.2-1.6-1.4-2.2-1.6-1.6-.6-12-6.1-13.7-7.3-.5-.3-4.2-1.8-5.6-2.6-.7-.5-13.4-.8-18.2 2.1-1.4.8.1 2.2 1.4 1.6 7.6-3.8 13.6.6 14.2 1.1 10.5 9.2 19.1 10.1 21.6 11.4 1.2.7 3.1-.9 3.2-1.1.6-.7.1-3.1-.7-3.6zm-3.9-13.8c-.6-.3-1.7-3.1-2.1-3.6-1.1-2.9-2-4.6-2.7-7.1 0-.1-.1-.3-.1-.4-.2-.7-3.1-1.6-3.7-.8-.5.8-9.6 3.3-14.5 1.7-.7-.2-.8.5-.5 1.2 1.1 2.8 22.1 12 22.3 12.1 1.8.6 2.9-2.2 1.3-3.1zM356.1 373c-.4-.1-.9-.2-1.2-.4 0 0-.1 0-.1-.1-.3-.2-.6-.5-.9-.7-.3-.8-.4-1.6-.7-2.3-.2-.6-1.1-.9-1.5-.2-.4.8-.5 1.7-.3 2.6-.1.3-.1.6.1.9.5 1.1 1.1 2 2 2.8.5.5 1.2.4 1.6.1h1c1.3-.3 1.4-2.5 0-2.7zm-3.3 8c-.1-.1-.1-.2-.2-.3.3-.3 1.3-3.2.8-3.9-1-1.1-2-2.2-2.9-3.3-.2-.5-.3-1-.4-1.5-.2-1.3-2.2-1.4-2.8-.4-.4-.3-.8-.5-1.4-.3-.4.1-.7.4-.9.7-.5.1-1 .4-1.2 1.2-.4 1.5-.9 7.4-.9 7.8-.3 2.7.5 5.5 2 7.8.5.7 1.4 1 2.1.6.3-.2.5-.5.7-.8 1.2.4 2.6-1 1.8-2.3-.1-.2-.3-.5-.4-.7.5 0 1.8-.7 2-.8.5.2 1 .2 1.5-.1.6-.3.7-1.8.7-1.8.1-.6 0-1.3-.5-1.9zm-62.1-252.9c-.6-.7-1.4-1.2-2-1.9-.6-.8-1-1.8-1-2.8-.1-1.4-2.2-1.5-2.2 0s.6 3 1.7 4c.9.8 2.2 1.5 3.4 1.1.2 0 .3-.2.1-.4zm-3.8 2.7c-1.1-.6-2.4-1.2-3.3-2.2-.4-.4-.7-.9-1-1.4-.3-.6-.4-1.3-.7-1.9-.6-1-1.9-.5-2.1.6-.1.8.4 1.8.8 2.5s.9 1.3 1.6 1.9c1.3 1.1 2.8 1.7 4.6 1.4.3-.2.4-.7.1-.9zm89.8-30.9c-.1-.4-.6-.7-1-.6-1.2.5-1.8 2.1-2.4 3.2-.7 1.1-1.5 2.2-2.3 3.1-.9 1-1.8 1.9-2.7 2.8-.8.7-2.1 1.7-2.4 2.8 0 0 0 .1.1.1 1.1.2 2.5-.7 3.3-1.4 1.2-.9 2.2-1.8 3.2-2.8s1.8-2.1 2.6-3.3c.7-1 2-2.5 1.6-3.9zm-4.2-1.6c-.1-.7-1-1.3-1.6-.6-.6.8-.8 1.8-1.1 2.7-.4 1-.8 1.9-1.3 2.9-.9 1.8-2 3.4-2.8 5.2 0 .1.1.2.2.1 1.9-.9 3.1-2.7 4.2-4.4.6-.9 1-1.8 1.4-2.8.5-.9 1.2-2.1 1-3.1zm-14.1 2.8c-.6-.6-1.7-.3-1.9.5-.2.8.1 1.5.2 2.3s.1 1.6 0 2.4l-.3 2.2c-.1.6-.4 1.2-.1 1.8 0 .1.2.2.3.2.7-.1 1.1-.7 1.5-1.3.5-.8.8-1.7 1-2.6.1-1.6.4-4.2-.7-5.5zm69.7 35.3c-1.3-.6-2.7-.7-4-1.3-.6-.3-1.2-.6-1.8-1-.6-.4-1.2-.9-1.9-1-.6-.1-1 .3-.9.9.3 1.5 2.3 2.6 3.6 3.1 1.5.6 3.3 1.2 4.9.6.4-.1.7-1 .1-1.3zm-.7 7.4c-.8-1-2-1.5-3.1-2.1-.6-.3-1.1-.7-1.6-1.1-.4-.3-.8-.7-1.3-1-.2-.1-.5-.1-.6.1-1.3 1.2.6 2.9 1.6 3.6 1.3.9 3 2 4.6 1.6.4 0 .7-.6.4-1.1zm-320.3-30.5c.3.1.6.1.9.1.6 1.2 1.9 1.7 3.3 1.7 1.4-.1 2.8-.4 4.1-1 1.3.9 3.2.7 4.4-.7 4.2-5 7.4-10.8 9.4-17 1.1-3.4 2.1-7.3 2-11 .4-.8.4-1.7 0-2.5-.2-.3-.3-.6-.5-.9-.5-1.9-1.6-3.6-3.2-5.1-2.3-2-6.2 1.2-4.7 3.9l2.1 3.6c.2 1.2.1 2.1-.1 3.5-.4 2.6-1 5-1.9 7.6-1.4 3.9-3.1 7.3-5.5 10.6-.8-.1-1.6.1-2.3.6-.6-.4-1.3-.5-2.2-.3-.9.2-1.8.4-2.8.7-.2 0-.4.1-.6.1h-.5c-.5 0-1-.1-1.5-.2-1.7-.4-3.3 1.3-3.5 2.9.1 1.8 1.4 3.1 3.1 3.4zm435.3 47.4c-1 1.3-1.7 2.8-2.7 4-1.1 1.4-1.9 3.1-2.8 4.6-1 1.6-2.2 3-3.2 4.5-.9 1.4-1.6 2.9-2.7 4.2-1.1 1.3-2 2.6-2.9 4-.2.4-1.2 2.5-1.5 1.9-.2-.3.7-1.4.9-1.7.4-.8.8-1.6 1.3-2.4.2-.3.4-.6.5-.9 0 0-.2-.2-.1-.3.3-.8.8-1.5 1.3-2.2.4-.7.7-1.5 1.1-2.3 1.5-2.8 3.1-5.6 4.7-8.3 1.8-3.1 3.7-6.2 5.6-9.2 1.9-3.1 4.4-5.8 6.5-8.7.2-.3 1.9-2.9 2.3-2.7.4.2-.5 1.6-.6 1.9-1.2 2.7-2.5 5.6-4.1 8.1-1.3 1.9-2.3 3.8-3.6 5.5zm16.6 20.2c-1.7 1.8-5.8 5.5-9.1 6.7 5.9-9.3 6.7-13.1 7.1-15.8.3-2.2.5-5.6-.8-7.6-.5-.8-1.1-1.6-1.8-2.2.5-.8 10.7-11.4 11-11.5 1.1 1.5 2.7 7.3 2.7 10.1 0 2.6-1.7 13.2-9.1 20.3zm4.1-48c-3.3 0-6.1-1.6-7.3-4.8-1.1-3.1-.5-6.9 2.3-8.9 2.7-1.9 6.6-1.8 9.3-.2 2.6 1.5 5 6.2 3.3 9.1-.5 3.6-4.5 4.8-7.6 4.8zm.9-13.2c-.5-.6-1.6-.6-2.3-.5-1.7.3-3.1 1.7-4 3.1-.4.5-.6 1 .1.8.5-.2.9-.9 1.4-1.3.9-.6 3.9-1.6 5-1 .2.3-.1-.9-.2-1.1zm3.2 1.6c0-.3-.4-.6-.6-.8-.3-.3-1.3-1.1-1.6-.3-.3.9 1.7 1 2 1.5.1.4.2-.4.2-.4zm27.4-43.7c.4-.1.7-.6.6-1-.1-.5-.5-.8-.9-1-.7-.3-1.4 0-1.8.7-.3.5-.4 1.3 0 1.8.3.3.8.5 1.2.3.2-.1.3-.3.4-.5v-.2h.1c.2-.1.3-.1.4-.1zm-11.4 33.9c.4-.9.7-1.8 1-2.8.1-.3.1-2.9.4-3.6-3.7-.4-8.6-2.3-11.3-6.5.5-.5 1.4-1.6 2.1-2 .8-.5 1.7-1 2.5-1.5.5-.3 4.5-2.4 4.2-3.2.9.4 1.8 1.8 2.9 1.8.8-.1.6-.6.8-1.2.2-.7.8-1 1.1-1.6.2-.9.1-1.8-.8-1.6-8.1 2.3-18 7.9-18.7 8.3-1.8 1.1-8.9 6.4-10 7.5-6.6 6.3-7.5 8.5-9.9 11.6-4.5 7.4-6 10.3-9.1 17.5-2.2-.3-7.1 1.4-7.8 1.7-6.6 2.5-13.3 9.5-15.2 17.1-1.1 4.4-3 15.1-2.3 15.4 5.7-10.3 7-10.6 9.3-13.1 1.4-1.3 5.9-5.5 10.4-5.4-.3 1.3-.9 2.6-2.1 7.8-.5 1.9-1.4 7.6-1.7 8.8.4.5 3.5 3.6 4.2 4.1.5-.8 1.8-3.2 2.3-4.1-1-2.3 2-17.9 3.3-21.4 2.6-7.2 5.1-14.3 9.1-20.8 2.2-3.6 12.9-16.9 18.6-16.4 3.2 3.1 7.9 7 16.2 7.4.2-.1.2-3.2.5-3.8z"/>
    <path class="uk-fill-default" opacity=".16" d="M314.4 315.3c.6 3.5.9 6.8-.5 10.1-.8 1.9-1.5 3.8-2.3 5.7-.4.9-.7 2.9-1.3 3.7-1.9 2.3-5.5-1.4-7-2.6-2-1.6-4.4-3.9-3.2-6.8 2.7 4.6 10.9 1.4 11.5-3.2.3-2.1-.6-4.1-.6-6.2 0-2.4 0-4.8-.3-7.2-.2-2.2-.6-4.2-1.8-6.1-.9-1.5-1.1-3-1.3-4.9-.1-.8-.3-4.5 1.3-1.9.4.7 0 2.3.2 3.2.3 1.4.8 3 1.7 4.2 2.3 3 3 8.4 3.6 12zm-45.7-107.1c-1.9-5.2-3.9-10.7-4.8-16.3-.9-5.4-1.3-12.4.2-17.7.7-2.4 2.1-4.5 2.8-6.9.8-2.8 1.1-5.7 1.1-8.7-.1-5-1.8-9.4-4.4-13.6-.9-1.4-2-1.7-2.3.4-.2 1.4.8 3.2 1.1 4.6.8 3.7 1.1 7.4 1.2 11.2 0 1 .2 2.3 0 3.3-.4 1.9-1.7 3.9-2.4 5.7-1 2.4-1.7 4.9-2.3 7.5-.5 2.5-1.4 5.6-1.4 8.1 0 2.9 2.2 6.6 3.2 9.4 1 2.7 2.1 5.3 2.9 8 .5 1.7 1 2.9 1.6 4.4.4.9.5 2.4 1.8 2.6 1 0 2.1-1 1.7-2zm112.6 161.6c-1.2-.6-2.4-.2-3.6-.6-1.2-.3-1.6-.8-2.4-1.6-.5-.6-.8-1.6-1.9-.8-.8.7-.1 1.7-.2 2.6-.6-.6-2.1-2.5-2.8-2.6-3.1-.4.6 3.6 1.1 4.2 0-.1-5-.1-5.4-.1-.6 0-7.8-1-7.7-1.1-.5.7 2.1 2.1 2.5 2.2-1.3.2 2.6 3.7 3 4 1.1.9 2.4 1.8 3.7 2.3 2.8 1.2 3.5-2.3.8-2.3.2-2 3.8-1.4 3.6-3.6.2 1.5 5-.6 5.4-.6 1.6 0 3 .7 4.8.4 1.1-.2 4.6-.7 2.9-1.8-1.1-.7-2.7-.1-3.8-.6zM273.9 201.6c-.4 1.2 1.8 3.2 2.2 4.3.5 1.3.3 2.8.7 4.1.1.1.2.3.4.4.6.1.8.4.5 1 .2.6 0 1.3.2 1.9.5 1.2 2 1.8 2.8.3.5-.9-.1-3.5-.1-4.6 0-1.9.3-3.4.8-5.2 1.1-4 1.7-8 2.3-12.1.6-4.6 1.6-9.1 1.9-13.7.3-4.9.5-9.8.5-14.7 0-2.7-.1-5.3-.1-8s.4-5.5.9-8.2c.3-1.7.7-3.3 1.1-4.9l.1-2.1c.3-.7 1.8-1.6 2.4-2.1 2.6-2.1 5.4-3.9 8.3-5.5 3.4-1.7 7.1-2.8 10.5-4.6 1.2-.6 4.8-2.5 5-4.2s-4.2.4-5.2.8c-3.3 1.1-6.4 2.3-9.8 3-2 .4-4.5.5-6.4 1.3-3.1 1.3-4.4 5.2-8.2 4.9-2.9-.2-4.8-1.7-6.3-4.1-.3 4 2.2 9.2 6.9 9-4.4 4.7-4.5 13-4.8 19-.3 4.4-.3 8.8-.1 13.3 0 .6.8 5.4.4 5.9.8-.8-2-1.7-2.6-1.4-1.8.9-.7 4.3-1.1 5.9-.3 1-1.1 2.2-1.8 3-.4.5-2.1 1.5-1.9 2.2.3 1.1.9.3 1.6.8s.8 1.7.8 2.5c-.1 3.8-1.3 8-1.9 11.8zm118.4 104.7c.5-2.1 1.4-4 2.2-6 .9-2.3 2.5-4 3.7-6.1-1.1 2-3.4 3.9-5 5.7-1.9 2.1-4.3 4.3-5.5 6.9-1.3 2.8.2 7.1.4 10.1.1 1.5-.5 4.1.1 5.4s2.3 1.4 3.3 2c.3.2-.4-3.8-.4-3.9-.5-2.1-.7-4.3-.7-6.5.7-2.5 1.2-5.1 1.9-7.6zm4.8 30.7c0-1.1-.2-2.2-1-3.1-1.2-1.4-1.2-.4-2.1 1.1-.6 1.1-2.2 2.2-2.7 3.2-.6 1.3.7 2.3 1.4 3.4.5.8 1.4 4 2.5 4 1.7.1.9-1.8.6-2.7 1-1.4 1.3-4.4 1.3-5.9zm-112.5-97c-.7-3.5-1.4-7.1-1.9-10.7-.5-3.3-.7-6.8-1.4-10.1-.2-.8-.1-1.1-.7-1.7-.3-.3-.9-.1-1.2-.3-1-.8-1.7-2-2.8-2.8-1.1-.7-6.6-2.3-4 .2 2.1 2 4.3 3.5 5.4 6.3.9 2.4.9 5.4 1.3 8 .5 3.3 1 6.6 1.7 9.9.2 1.1.2 2.7 1.5 3.1 1.3.5 2.4-.6 2.1-1.9zm97.4 75.2c.7 1.4 1.3 1.6 2.6 1.8 1.4.3 2.9 0 3.6 1.6.4 1 .4 3.3-.8 3.8-1.4.6-3.8-1.9-4.8-2.6-.6-.4-1.2-1-2-1.2-1-.3-1 .1-2.2 0-.6 0-1.6-.6-2.1-.9-.8-.5-1.2-1.5-1.9-1.9-.2-.1-1.1 0-1.5-.2-.3-.3-.5-.6-.6-1.1-.5-.1-1-.3-1.4-.5-1.7-.7-3.1-1.9-4.6-2.6-1.2-.6-5-.2-5.6-1.9-.8-2.1 2.5-.9 3.5-.4.7.3 1.5.9 2 1.1.9.3 1.9.2 2.9.6 1.7.7 3.3 1.7 5.2 1.4 1.3-.3 2.2-1.2 3.2-1.9.4-.3 1.8-1.5 2.4-1.1.3.2 0 1 0 1.2 0 1.3-.6 1.1.7 1.8 1 .4.9 2.1 1.4 3zm158.7-155.1c2.2-4.6 5.6-8.8 8.5-13-6.5 6.9-11 15.3-15.8 23.4-.9-.5-2.8-3.5-3.7-3.5-.4 0-1.5 1.9-1.6 2.2-.5 1.1-.6 1 0 2s2.4 1.6 2.8 2.5c.5 1-.4 2-1 3.1-1.3 2.5-3 5.2-3.8 7.9 1.2-1.4 2.3-2.9 3.4-4.4.8-1 2.8-5.1 3.8-5.3 1.6-.2 2.7 2.6 4.2.5 1.7-2.4-.6-2.9-2.2-3.9 2-3 4.1-6 5.7-9.1-1.2 1.8-2.9 3.5-4.4 5.1 1.1-2.8 3.2-5.1 4.8-7.5 2.2-3.3 4.3-6.7 6.1-10.2-1.1 2.2-2.8 4-4.2 6-.7 1.5-1.6 2.9-2.6 4.2zm43.9-69.5c-.8.5-1.5 2-2.3 1-.9-1.1 2.9-2 3.8-2.2.8-.2-1.6 1.3-1.5 1.2zm10.5-14.7c-.7-.4-1.7-.8-2.4-.2-.4.3-1 2.3 0 2.2-.2 0 1-1.7 1.4-1.8.1 0 1.5.1 1-.2zm-44.2 110.5c-.1-.2 2-3.2 2.1-3.5.9-1.6 1.8-3.1 2.4-4.8 1.2-3.2 2.1-7 1.7-10.5-.2-1.7-1.1-5-2.9-5.8 1.1-1.4 10.8-11.5 11.4-11 .7.6-.8 3.5-1.2 4.1-1.2 2-2.8 3.3-3 5.8-.3 3.1.2 5.8-.5 8.9-.8 3.3-2.3 6.5-4.1 9.4-.4.8-5.5 8.2-5.9 7.4zm11.2-53.2c-1-.1-6-1.9-5.4-3 .2-.5 3.2.4 3.6.5 1.6.3 3.3.3 4.8-.3 1.8-.6 3-1.9 3.9-3.6.2-.3 1.5-3.1 1.4-3.2 1.3 1.5.2 5.2-.8 6.5-1.6 2.2-4.6 3.4-7.5 3.1zm11.5-34c-.5-.7-.9-3.7-1.8-3.9-.6-.2-2.3 1.2-2.8 1.5-1.4.8-2.8 1.6-4.1 2.5-1.3.8-2.1.9-1.6 2.4.3 1 1.7 4.1 2.6 4 .7 0 2-1.8 2.5-2.2.6-.5 4.2-4.7 5.2-4.3zm-.7 6.3c-.1-.3.2-1.5-.1-1.6-.6-.3-6.9 5.4-3.5 5.8.6.2 4-3.9 3.6-4.2zm-36.4 34.1c.5-1.3 1.7-3.4 1.6-4.8-.1-1.3-.6-.2-1.2.7-1.1 1.7-1.9 3.6-2.7 5.4-.6 1.5-1 3.5-2.1 4.7-1.5 1.7-4.3 2.5-6.2 3.7-2.4 1.5-4.5 3.5-6.4 5.6.8-4.8 2.5-10.3 6-13.9 1.2-1.2 2.6-2.2 3.9-3.3.6-.5 2.4-2.5 3.2-2.5-.3-.8-5.1 2.3-5.6 2.5-2.4 1.5-4.4 3.1-6.2 5.2-3 3.7-4.9 8.2-6.3 12.7-1.1 3.7-2.4 8.6-1.3 12.5.2-1.8 1.8-3.7 2.7-5.1 1.5-2.2 3.1-4.3 4.8-6.3 2.8-3.4 7.2-7.3 11.9-6.9 1-3.4 2.7-6.8 3.9-10.2zm34.3-30c-.2.8 2.4-1.6 1.7-2-.3-.1-1.6 1.8-1.7 2z"/>
    <path class="uk-fill-default" opacity=".2" d="M401.9 211.4c-1.5-.3-2.1-2.3-3.9-2.6-1.6-.2-1.8.8-2.5-.9-.5-1.2-.9-2.4-2.4-2.4-1.4 0-1.6.8-1.3 2 .1.5.6 2.5 1 2.8.8.6 2.2-1 2.3.2.1.8-1.5 1.7-2.1 1.9-2.9 1.2-6.8.1-8.4-2.7-.8-1.4-1.7-4.8-.1-6 .8-.5 3-.3 3.9-.3 1.9-.1 2.9.9 4.6 1.4 1 .3 2 .7 3 .9.9.2 1.8-.1 2.8.2 1.9.5 3.5 1.6 4.6 3.3 1 1.3-.3 2.5-1.5 2.2zm24.7 1c-.4-.5-1.1-.2-1.4-.5-.8-.7-.3-1.4 0-2.5.6-1.9.8-3.8.9-5.7.2-4-.5-7.9-1.2-11.9-.8-4.1-1.7-8.1-1.8-12.2-.1-2 0-4.1.4-6.1.3-1.6.9-3.4.9-4.9 0-1.7-1-1.8-2.3-2.8-1.4-1.1-2.4-2.6-3.1-4.2-.5-1.2-1.2-3.2-1.2-4.5 0-2 1.2-4.4 1.6-6.4.3-1.3 1.2-2.4.5-3.6-.7-1.2-2.8-2.2-3.8-3.4-.8-1-1.5-1.9-2.4-2.7-.1-.1-2.3-1.7-2.3-1.8-.1 2.2 1.6 3.4 2.5 5.2.6 1.2.7 2.7.8 3.9.2 1.6-.2 3-.3 4.6-.2 2.7-.2 5.5.5 8.2.5 2.1 1.6 4 3 5.6.5.5 1.7 1.1 2 1.7.8 1.5-1.4 4.2-1.8 5.9-.6 2.5.5 5.6 1.2 8 .9 3.1 1.4 6.1 2 9.2.3 1.8 1 3.8.8 5.6-.1.8-.5 1.8-.7 2.6-.9 3.4-1.8 6.9-2.3 10.4-.1.9-.7 3-.2 3.9.4.7 2.6 1.3 3.1.3.3 1.1 1.9 5.9 2.9 5.6.6-.3 2.2-6.9 1.7-7.5zM305 96c1.3-1.3-.2-4-1.2-5-1.1-1-3-1.7-4.4-2.1-2.8-.8-4.5-.2-6 2.3-2.8 4.7-4.9 10-7.4 15-.7 1.5-1.4 3.6-2.6 4.8-.9 1-2.6 1.5-3.8 2.1-1.8.9-3.5 2.1-4.6 3.8-.7 1.1-2.9 5.5-1.3 6.4 1.4.8 2-4.1 2.6-4.8 1-1.1 2.8-1.5 4.1-2.1 2.1-.9 4.1-2 5.6-3.7 2.8-3.3 4.4-7.9 6.8-11.5 1.3-2 3.1-3.7 5.3-4.4 2.4-.4 5.1 1 6.9-.8zm21.7 114.8c-1.6 4.6-8.5 5.7-10.5.9-2.7-6.5 6.2-5.2 9.7-4.4-.4 0-.7 0-.6.5-.7-.7-2.1-.5-2.3.5-.3 1.3 2.2 1.9 2.2 1.7-.2.8 1.3 1.4 1.5.8zm5.9.9c-1.3-2.4-3.7-3.8-6.2-4.5.9.7.2 2.2.5 3 .3.7-.1.2.3.8.4.4 1.6.5 2.1.8s1 .5 1.4.9c.4.3.8 1.2 1.2 1.4 1.5.7 1.2-1.4.7-2.4zm-26-2.9c-1.2.7-2.4 1.3-3.6 2-1 .6-3.1 1.2-3.9 2.2-1.1 1.4.1 2.8 1.7 2.4 1.2-.3 2.6-1.4 3.6-2 1.1-.6 2.8-1.2 3.6-2 1.3-1.2.4-3.5-1.4-2.6zm15.4-15.1c-2.6.1-5.4.3-7.9.8-2.2.4-4 2.1-5.9 3.1-3.6 2-7.2 2-11.2 2.4-4.6.5-9.1 1.7-10.7 6.6 6.2-4.3 13.3-3.5 20.3-4.9 6.5-1.3 14.9-3 19.8-7.8-1.6-.2-3-.3-4.4-.2zm64.2-9c-3.8-.7-7.2-.7-11-.5-1.6.1-11.2.5-9.6 3.5 1.1 2 4.3.4 5.8.1 2.5-.6 4.9-1.1 7.5-1 6 .1 12 1.2 17.9 2.2 1.1.2 10.7 2.6 11.3 1.6.6-.9-8.5-3.3-9-3.4-4.3-1-8.6-1.8-12.9-2.5zM97.9 148.4c2.5 0 5 .1 7.5.1 2.1 0 5.2.7 7.1-.3 1.6-.8 2.2-2.6 1.4-4.2-1-2.1-3.2-1.8-5.1-1.8.1-.8-.3-1.4-.3-2.1-.6-.5-.5-.9.3-1.1.2-.2.4-.4.5-.6.8-1.2.6-2.9 1.2-4.2.3-.7.8-1.1.9-1.9.1-.8-.4-1.4-.4-2 0-.5.7-1.2.7-1.8.1-1-.5-1.7-.3-2.7.4-1.5 1.2-1.8 2.1-2.8.7-.7 1-1.8.8-2.8-.5-3.3-3.3-2.7-5.7-2.3-2.8.5-6.9.6-9.4-.7-1.4-.7-2.1-1.6-3.8-.7-1.6.9-1.7 2.5-1.9 4.1-.5 4.4-.6 8.8-.4 13.1.1 2.6-.6 8.2 2.5 9.4-1.4 2-.2 5.3 2.3 5.3zM95.5 116c6.1-1 .3-11.6-1.3-14.3-2.7-4.6-5.6-8.9-5.5-14.5a18 18 0 0 1 15.2-17.5c2-.3 3.9-.2 5.9.1 1.5.2 3.8.3 4.5-1.8 1.9-5.5-7.8-4.9-10.7-4.5a24 24 0 0 0-21 20.7c-.9 7 1.6 13 5.1 18.9 1.4 2.4 3 4.9 3.7 7.7.6 2.3.6 5.8 4.1 5.2zm417.4 56c0 .2 0 .4.1.4 0-.2 0-.3-.1-.4zm55.7-55.5c-2.7-2.3-7.4-3.2-10.5-1.4-1.4.8-2.9 1.9-3.9 3.3-.4.6-.8 1.3-.9 2 0 .1-.2 1.9.1 1.6.4-.4.6-1.7.9-2.2.4-.7.9-1.4 1.4-2.1 1.3-1.5 2.9-2.4 4.9-2.6 1.2-.1 2.6 0 3.8.2.8.1 1.6.4 2.4.7.2 0 2.3.9 1.8.5z"/>
    <path class="uk-fill-default" opacity=".9" d="M284.7 240.5c-.1.4-.3.8-.7 1v-.2c.3-.2.5-.5.7-.8zm-.7.8v.2c.3-.3.5-.6.7-1-.2.3-.4.6-.7.8zm-4.2-127.8h.3c.1 0 .1-.1.2-.1-.2-.1-.3 0-.5.1zm5.2 25.3l-.3.3h.2c.1-.1.2-.2.1-.3zm35.7-61.3c.1.3.2.6.5.9 0-.5 0-.9.1-1.4-.2.2-.4.4-.6.5zm1.1 49.3s.1 0 0 0c.1 0 .1 0 0 0 .1 0 .1 0 0 0zm0 0c-.2.4-.8.6-1.1.4.8-1.7-1.5-3.8-2.8-4.5-1.8-1-3.8-.3-5.5.6-3.9 2-7.6 4-12 5-2 .5-4.1.7-6 1.6-2 1-3.3 2.6-4.6 4.3-1.2 1.5-2.9 3.4-4.8 4-2 .7-4.2-.9-5.4-2.4.9 1.9 2.9 3.6 5 3.5h.2c1.9-.2 3.7-1.7 5-2.9 1.5-1.4 2.7-3.4 4.5-4.4 2.1-1.1 4.5-1.3 6.8-1.8s4.5-1.3 6.6-2.4c2.1-1 3.9-2.4 5.9-3.5s3.7-1 5.4.6c.4.4.9.9 1.1 1.5v1c.6.3 1.5 0 1.7-.6.1 0 .1 0 0 0 .1 0 .1 0 0 0zM388 321.9c0 .2-.1.3-.1.5.1-.1.1-.3.1-.5 0 .1 0 .1 0 0zm0 0c0 .2-.1.3-.1.5.1-.1.1-.3.1-.5 0 .1 0 .1 0 0zm6.2 19.2c-.6-1.3-1.8-1.9-3-2.6-.1 0-.1-.1-.2-.1 3.1-1.8 4.9-4.5 4-8.5-.5-2.1-1.3-4.1-2.9-5.6-1.2-1.1-2.6-1.7-4-2.4 0 .2-.1.3-.1.5 0-.2.1-.3.1-.5-.3-.1-.5-.3-.8-.4-2.7-1.4-5-3.2-7.8-4.2-1.2-.4-2.3-.9-3.5-1.4.5-.3 1-.7 1.3-1 1-1.1 1.6-2.6 1.7-4-2.1.8-3 3-4.5 4.4-1.2-.6-2.5-1.2-3.7-1.9-3.2-1.8-6.3-3.8-9.6-5.3-3.1-1.5-6.6-3-10.1-2.7-2.6.2-5.2.8-7.8.9-1.4 0-2.8 0-4.2.1-1.9.1-3.3.1-4.8 1.4-1.2 1.2-2.4 2.5-3.5 3.8-2.4 2.8-3.7 6.1-4.8 9.7 1.4-3.4 2.9-6.6 5.5-9.2 1.2-1.2 2.5-2.6 3.9-3.7 1.2-.9 2.9-.6 4.4-.6 1.8 0 3.6.1 5.4.1 3.1 0 6.1-1.2 9.2-.4 6.5 1.7 11.9 6 17.8 8.9 2.9 1.4 6 2.2 8.8 3.6 1.6.7 3 1.7 4.5 2.6 1.4.8 2.9 1.3 4.2 2 2.7 1.5 4.2 4.2 4.6 7.1s-1.3 5.1-3.5 6.7c-1.2-.7-2.4-1.3-3.7-1.9-3-1.5-5.9-3.1-9-4.6-2.8-1.4-5.8-2.7-8.4-4.5-2.4-1.6-4.3-4-6.8-5.4-2.7-1.4-5.6-1.7-8.6-1.5-2.2.2-4.3.8-6.5.9-1.3.1-2.6 0-3.7.7-1 .6-1.8 1.5-2.6 2.4-2.1 2.3-3.8 5-5.8 7.4 2.4-2.2 4.2-4.9 6.6-7 .7-.7 1.6-1.6 2.6-2 1.3-.6 3.1-.1 4.5-.2 1.1-.1 2.2-.4 3.3-.5 1.5-.1 3-.2 4.5-.1 3 .3 5.3 1.5 7.4 3.5a41 41 0 0 0 7.1 5.3c2.7 1.5 5.6 2.7 8.4 4.1 2.7 1.4 5.5 2.7 8.2 4 1.2.6 3 1.2 4 2.2.6.6.8 1.5 1.1 2.2 1.1 2.7 2.2 5 .9 7.9-1 2.1-3.2 2.9-5.4 3.7-.4-.4-.8-.8-1.3-1.1-1-.7-2.1-1.4-3.1-2.1-3-2-5.9-4-8.9-6.1-3.1-2.2-6.3-4.1-9.4-6.3-3.4-2.4-6.7-1.6-10.3 0 2-.7 4.1-1.4 6.2-1.1 1.9.3 3.2 1.5 4.6 2.7 2.9 2.5 6.2 4.5 9.2 6.9 2.7 2.2 5.7 4.2 8.5 6.1.7.5 1.4.9 2.1 1.4 1.4 1 2.1 2.2 2.9 3.6.6 1.1 1.6 2.1 2 3.3.4 1.3.2 2.2-.1 3.5-.2.9-.1 1.9-.5 2.7-.5 1.2-1.7 2.3-2.7 3-2.5 1.9-5.9 2.7-8.7 3.9-3.2 1.4-6.8 2.9-10.4 2.7-3.6-.2-6.2-3.1-8.6-5.4 2.8 3.5 5.7 6.6 10.6 6.4 4.3-.1 8.2-2.1 12.3-3.5 3.4-1.2 7.3-2.6 9.1-6 .7-1.3.7-2.8 1-4.2.3-1.3.2-2.8-.2-4-.5-1.4-1.6-2.6-2.3-3.8-.6-1-1.2-1.8-1.9-2.6 2.7-.7 5.4-1.6 6.5-4.6 1.3-3 0-6.4-1.3-9.3zm-15.8 29c-.9-.2-1.7-.7-2.7-.6-.1 0-.5.2-.9.3.2-.7-.3-1.6-.2-2.2.1-.6.6-1.1.8-1.7.2-.5.1-.8.7-.9-.8-.5-1.5.8-1.9 1.3-.5.6-.7 1.2-.4 2 .2.6.6 1.1.6 1.7-.3.2-.6.3-.6.3-.3-.1-.5-.1-.7 0-.8-1.3-2.4-2.1-3.3-3.4-.5 1.9 1.3 3 2.9 3.6-.1.1-.2.1-.3.2-.6.4-.6.4-.6.7-1.6-.1-3.3-.1-4.9.1-1.4.2-2.8.3-4.2.1-1.3-.1-2.4-.5-3.4-1.3-.9-.7-2.1-1.8-3.3-1.2 1.5-.2 2.2 1.2 3.2 2 .4.4.9.7 1.4.9.2.8-.3 1.4-.8 2.1-.4.6-.5 1.2-.8 1.9-.6 2-1.2 4-1.9 6-1.1 3.2-2.2 6.2-4.3 8.9-2.4 3.1-4.9 6.1-7.4 9.1-2.3 2.7-4.7 5.8-7.7 7.9-1.2.8-2.7 1.1-3.9 1.9-1.4.9-2.2 2.4-3.1 3.8-4.2 6.5-8.5 13.1-12.1 19.9-3.7 6.9-6.3 14.1-7.9 21.7 1.5-4.6 3.1-9.2 5.2-13.6s4.7-8.7 7.3-12.9c2.4-3.9 5-7.7 7.5-11.6.9-1.3 1.7-2.6 2.6-3.9s1.9-2 3.4-2.6c1.8-.7 3.2-1.8 4.5-3.1 4.5-4.3 8.1-9.4 11.8-14.4 1.4-1.8 2.6-3.6 3.4-5.8 1.5-4.1 2.4-8.4 3.3-12.7.6-.4 1.1-1.6.8-2.6.7.3 1.5.5 2.3.6 2.9.3 6.1-.5 8.9-1.2v.2c-.1.9.1 1.6-.1 2.5-.2.8-.7 1.5-1.2 2.1 1.5-1 2.3-2.9 2-4.7.7-.4 1.3-.5 2-.8.9-.4 1.6-.4 2.5-.2 2.9.9 5.8.8 8.8.1-2.4.1-4.9.2-7.3-.5zm-13.3-15.7c1.6-.6 3.9-2 5.4-.5-1.2-1.8-3.7-.7-5.2-.2-2.2.8-4.4.9-6.6 1 2.1.4 4.4.5 6.4-.3zm-12.6 14.8c-.3 2.5 2.2 4.9 4.7 4.4-2.4-.4-4.2-2.1-4.7-4.4zm.3 7.5c-.9-.9-1.7-1.9-2.5-2.9.1 1.3 1.2 2.6 2.5 2.9zm27.3-177.2c-4.2-.7-8.1 3.7-9.5 7.2 3.6-1.6 6.4-4.9 9.5-7.2zm17.4 2.7c-1.8-2-5.3-3-7.8-2.3 1.8 2 5.2 3 7.8 2.3zm-57 53.8c1.9.3 3.5.3 5.2-.8.5-.3 1.6-.9 1.9-1.5.4-.9-.6-.7-1.3-.8-1.9-.1-4-.5-5.8.1-1.1.3-3 1.2-3.2 2.4 1 .3 2.1.4 3.2.6zm17.6-1.4c1.5 1.1 7.1-1.4 5.7-3.6-.8.9-2.2.9-3.3 1-.8.1-3.6 1.7-2.4 2.6zm45.2-43.8c-.2.7-1.1.7-1.6.4-1-.7-1-2-2.3-2.5 1.3.3 1.8 1.9 2.7 2.2.2.1.4 0 .5-.2-.3-2.1-3.5-3-5-3.7-.3-.1-.6-.2-.8-.3 0 3.7-2.9 7.1-6.7 7.2-4.1.1-6-3.2-6.4-6.8-.1-.8-.1-1.6.1-2.3-2.8.6-5.4 1.8-7.7 3.3-2.2 1.4-4.2 3.2-6.3 4.8-1 .8-4.6 2.7-2.3 4.1.9.5 2-.1 2.8-.4 1-.3 2.1-.4 3.2-.3 2.5.3 4.9 1.4 7.3 1.9-2.6-.1-5.2-1.1-7.8-1-2 .1-4.1 1.9-6.1 1-2.1-.9-2.4-3.3-.8-4.8 1.8-1.6 3.6-3.2 5.5-4.7 4-3.2 8.2-5.5 13.3-6.2.5-.1 1-.1 1.5-.1 1.5-.3 3.1-.2 4.6.2 1.6.4 3.4 1.1 4.8 2 1.1.5 2.1 1 3.2 1.6 1.4.8 5 2.6 4.3 4.6zm-8-4.5c-.3-.1-.7-.3-1-.4-.1.1-.2.2-.3.2-.5.1-.9-.5-1.5-.2a1 1 0 0 0-.5 1.1c0 .4.4.9.8 1s.5-.2.9-.3c1-.3-.1.8-.5 1.1-1.2.9-2.8.3-3.8-.6-.8-.7-1.5-3-.7-3.8h.2-.2c-1.3-.1-2.7 0-4.1.2-.5.7-.6 1.7-.6 2.4.4 3.5 4.7 5.5 7.8 5.5 3.3-.2 4.1-3.5 3.5-6.2zm-6.7-2c-.1 0-.1 0 0 0h.2-.2zM318 221.9c1.5 0 3.1-.1 4.5-.7.8-.3 2.2-1.6 3.1-1.2-.8-.7-2.8.5-3.6.6-1.5.3-3 .3-4.4.2-3-.2-5.9-.8-8.9-.3 3.1.4 6.1 1.3 9.3 1.4zm15-7.2c-1.3.8-1.6-1.7-2.5-2.2.8.2 1.3 1 1.6 1.6.2.4.7-.1.8-.5.1-.7-.5-1.4-.9-1.9-1-1.2-2.3-2.9-3.7-3.6-.1-.1-.3-.1-.4-.2 0 .6-.2 1.3-.2 1.8-.3 1.6-1 3.1-2.3 4.1-2.5 2-6.5 1.4-8.6-1-.9-1.1-1.8-2.9-1.8-4.5-2.3.8-4.5 1.8-6.6 3-1.6.9-3.1 1.8-4.6 2.7-1.2.7-3.2 2.2-4.6 1.1 1.8.8 4-1.8 5.2-2.8 1.4-1.1 2.8-2.2 4.4-3.1-.9.2-1.8.4-2.7.8-2.2 1-4.6 1.5-6.7 2.7 1.4-1.8 3.6-2.7 5.5-3.9 2.2-1.3 4.3-1.6 6.9-2 1.5-.3 3.1-.6 4.6-1 .2-.1.3-.2.5-.2.8-.3 1.6-.5 2.4-.6 2.4-.7 4.7-1.5 7-2.3-1.1.8-2.2 1.6-3.4 2.3 1.3.1 2.8.3 3.9.8.5.1.9.3 1.4.4 1.8.7 3.1 2.3 4.2 3.8.5 1.1 2.4 3.7.6 4.7zm-6.7-7.3h-.3c-.1 0-.3-.1-.4-.1v.1c0 .5-.8.3-1.1.2-.6-.1-1.3 0-1.5.8-.1.4.3 1.2.9 1.3s.9-.8 1.5-.8c.1.8-1.5 1.8-2.1 1.9-1.1.2-2.5-.1-3.3-1-.5-.5-.7-1.7-.4-2.4-.5.1-1.1.2-1.6.2-.6.1-1.2.3-1.8.4-.1.1-.2.3-.2.5-.4 1.4 0 3.2.8 4.3 1.5 2 4.8 2.2 6.7 1 1.2-.7 2-1.7 2.3-3.1.4-.7.8-2.5.5-3.3zm82-17.7c-3-2.2-6.6-3.1-10.2-3.5l-11.8-1.5c4.2 1.2 8.4 2 12.7 2.9 2.2.5 4.5 1.2 6.5 2.3-.1 0-.2 0-.2-.1-1.8-.4-3.7-.8-5.5-1.1-4-.8-7.9-1.6-11.9-2.2-3.9-.6-7.9-.9-11.8-.3-2 .3-3.8 1-5.7 1.6-1.4.4-3.4 1.1-4.6-.1 1.6 2.2 5.9.3 7.9-.1 3.1-.6 6.2-.5 9.3-.1 5.3.6 10.5 1.9 15.7 3l6.4 1.2c1.7.3 3.2.7 4.6 1.7 1.8 1.3 3.5 2.7 5.3 4-2.1-2.5-4-5.7-6.7-7.7zm-96.7 5.5c4.8-.8 9.7-1.3 14.6-1.5-5.8-.6-11.7-.4-17.5.3.2.5.5 1 .7 1.4-.2 0-.4 0-.5.1-.6.1-.6.3-.8.8-.2.4-.4.7-.5 1.1-5.1 2-10.8 1.3-15.9 2.9-2.3.7-5.1 1.9-6 4.3-.4 1.2-.2 2.3 0 3.5 1.9-1.2 3.6-2.9 5.7-3.9 2.8-1.4 6.2-1.3 9.3-1.7-2.7-.1-5.5-.3-8.2.2-2.1.4-3.6 1.7-5.3 2.8.5-1.7 2.9-2.7 4.4-3.2 2.6-.9 5.4-1.1 8.1-1.4 2.8-.3 5.7-.6 8.4-1.7.8-.3 1-.4 1.3-1.1.1-.3.3-.6.4-1 2.2-.2 4.3-.3 6.5-.5-.9-.3-1.7-.6-2.6-.9-.6 0-1.4-.2-2.1-.5zm17.8 92.4c.7-.5 1.1-1.4 1.1-2.3 0-.4-.2-.9-.2-1.3.1-.7.2-.5.7-.6 2.2-.5 4.4-1.2 6.6-1.8 4.4-1.2 8.8-2 13.4-2.2 2.2-.1 4.3-.3 6.3-1.1 2-.9 3.9-2 6-2.6 2-.6 4-.6 5.9-1.3 1.9-.6 3.7-1.5 5.2-2.8-4.6.9-9.2 1.7-13.5 3.2-2.2.8-4.2 1.9-6.4 2.6-2.2.7-4.5.5-6.8.6-4.6.2-9.2 1.1-13.5 2.7-1.3.5-2.6 1.5-3.9.6-.3-.2-1.2-1.5-1.4-1.6-.3 0 .1 2.2.1 2.6.3 1.8.2 3.6.4 5.3zm24.5-13.2c1.2-.1 2.8-1 2.5-2.4-1.8.8-4 .2-5.9.6.6 1.2 2 1.9 3.4 1.8zm-8 20.1c2 0 4-.1 6-.3 4.2-.3 8.4-.7 12.5-1.6-4-.8-8.1-.8-12.2-.4-2 .2-4 .5-6 .9-1.6.3-3.1.3-4.2-1.1.5 1.7 2.3 2.5 3.9 2.5zm57.7 19.7h-.2c.1 0 .1.1.2.2v-.2zm92.3 33.3c-6.5-2.9-12.2-7.1-18.3-10.7-3.1-1.9-6.4-3.6-9.8-4.9-3.5-1.3-7.1-1.9-10.6-3.1-3.1-1.1-6.1-2.3-9.2-3.6-1.8-.7-4.2-1.3-5.7-2.6-.9-.8-.7-2.2-1.5-2.9-.3-.3-.9-.4-1.3-.6-1.6-.5-3.1-1.1-4.7-1.6-4.4-1.5-8.8-3-13.2-4.6.1.1.1.3.2.4 1.4 4.1-2.4 8.8-4.5 12.1-2.4 3.8-5 7.5-7.8 11-1.5 2-3.1 3.9-4.9 5.6-.8.8-1.7 1.5-2.7 2-1.1.7-2.3 1.2-3.1 2.2.7-1.1 1.9-1.7 2.9-2.5 1.3-.9 2.4-2 3.4-3.2 2.1-2.5 3.9-5.3 5.7-8 1.9-2.8 3.7-5.7 5.4-8.7 1.5-2.5 3.9-5.6 3.9-8.6 0-1.1-.3-1.9-1.4-2.1-1.5-.2-3.2-.2-4.7 0-2.3.2-4.8.7-6.9 1.7-1.3.6-3.9 2.3-5 .6-.7-1.1-.4-2.9-.3-4l.3-4.5c.2-6.9.9-13.8 2-20.6-.8 1-1.5 2.1-2.3 3.1-4.1 5.5-8.5 10.9-13.3 15.9 3.8-4.9 7.3-9.9 10.8-14.9 3.3-4.8 6.9-9.7 9.3-15.1 5.1-11.3 3.6-24.1 6.5-36 1.6-6.7 4.2-13.4 3-20.4 1.7 5.9.3 12.2-1 18.1-.3 1.3-.5 2.6-.7 3.9 4.2 1.3 7.8-2.7 9.3-6.2 1.4-3.3 2.2-6.7 3.4-10.1 2.3-6.8 4.6-13.6 7.2-20.3 1.2-3.2 4.7-9.4 1-11.9-2 4.3-4.1 8.7-6.1 13-2.5 5.3-4.7 10.5-6 16.2-1.7-2-3-4.1-3.6-6.7l-2.4 1.2c-2-5.7-.1-10.9 1.2-16.5.7-3 1.1-6 .4-9-.6-3-2-5.9-2.8-8.9-.8-2.8-1.2-5.8-.4-8.7.3-1.2 1.3-2.2 1.4-3.4.2-1.3-1.2-2.1-2-3-3.8-3.9-3.2-9.5-3-14.5.1-2.8.2-6-1.3-8.5-.6-1.1-1.6-1.9-2.4-2.9-1-1.2-1.5-2.6-2.2-4a20 20 0 0 0-12.2-10.4c-3.2-.9-6 .8-8.8 2.2-2.7 1.4-5.4 2.4-8.5 2.2-3.2-.2-6.4-1.2-9.5-2.2-3-.9-6.1-2.2-9.2-2.6-3.5-.4-6.9.5-10.3-.2-3-.6-6.6-2.4-9.7-1.3-2.8 1-4.7 4.1-6.3 6.4-1.8 2.6-4 4.6-6.2 6.8.2-2-.1-3.9-1.1-5.7-.6-1.1-1.5-1.9-2.5-2.6-.8-.6-1.6-1.2-1.9-2.2v-.2c0-.1.1-.3.1-.4.4 2.1 2.7 2.6 3.9 4.1 1.3 1.6 2 3.7 2 5.8 2-2 3.8-4 5.4-6.4 1.5-2.3 3.3-5 5.8-6.2 2.7-1.3 6-.2 8.7.5 1.4.4 2.9.7 4.4.7 1.6.1 3.3-.2 4.9-.3 6.1-.3 11.9 2.7 17.8 4 3.1.7 6.1.9 9-.4 2.5-1.1 4.9-2.8 7.6-3.5 5.4-1.5 11.3 2.7 14.9 6.4 2 2.2 2.9 4.7 4.3 7.2 1.4 2.4 3.5 3.9 4.3 6.6 1.7 5.8-1.1 12.3 1.4 17.8.9 1.9 2.5 2.8 3.6 4.5 1.7 2.5-.8 5-1.2 7.5-.9 6.8 4.1 12.8 3.9 19.7-.3 6.3-4.3 12.9-2.7 19.3l2.7-1.2c.2 2 .7 3.9 1.6 5.6 2.2-7.6 6.2-14.8 9.7-21.9 1-2 1.9-3.9 2.9-5.9 1.4-2.8.5-5.3.3-8.2-.3-3.5.9-6.8 1.6-10.1.7-3.5.3-6.5-1.2-9.7-.4-.8-1-1.6-1.2-2.4-.2-.8.2-1.9.3-2.8.1-1.1.2-2.2.4-3.3.4-3.6.9-7.1 1.3-10.7.3-3.4.5-6.6-.7-9.9-4.7-12.4-10.8-26-21.7-34.1-1.5-1.1-3-2.1-4.6-2.9-1.5-.8-3.2-1.3-4.7-2.2-2.9-1.8-4.2-5.5-6.2-8.1-2.1-2.7-4.8-5.1-8.2-6-2.7-.7-5-.2-7.5.6 1.2-1.4 2.2-2.8 3.9-3.8 1-.6 2.1-1 3.2-1.3l-17.3-5.1c-7.7-2.3-16.2-4.5-23.9-.7-1.8.9-3.4 1.7-5.4 2-2.2.3-4.4 0-6.6.1-2.1.1-3.9.8-5.8 1.5-1.7.6-3.3 1.2-5 1.9-.9.3-1.9.7-2.8 1.1-.6.2-1.9.5-2.2 1.1 0-.1 0-.2-.1-.3 0 .9.1 1.3-.6 1.8-1.1.9-2.3 1.6-3.6 2.3-2.6 1.4-5.5 2.4-8.5 2.8-3.1.5-6.3.1-9.5.3-1.9.1-4 .6-5.6 1.8 2.1.4 3.9 2 5.6 3.2-1.1-.1-2.2-.2-3.3-.4-1.8-.2-2.5.6-3.3 2.2-1.1 2.5-2.1 5-3.1 7.5-2.2 5.2-4.3 13.6-10.8 14.6.1 0 .1-.1.2-.1-.2.1-.3.1-.5.2h.3c-1.7 1.2-3.9 2.4-4.6 4.4-.7 2.2-.4 4.7-.6 7-.2 2.2-.7 4.4-1.6 6.5-1.6 3.9-4.1 7.4-7.3 10.1-1 .9-2.2 1.5-3.2 2.3-1.1.9-.5 2.2-.1 3.4 2.8 8.5 2.5 17.7-1.2 25.9-1.8 3.8-4 7.6-3.3 12 .7 4.8 3.8 8.9 5.3 13.5.8 2.4.8 4.9 1.3 7.3.6 2.7 2.5 3.5 4.8 4.6 2.5 1.2 5.1 2.2 7.6 3.6.8.4 1.5.8 2.2 1.4-.8-4-.9-8-.2-12.2.9-5.2 1.2-10.4 1.3-15.7.2-11-1.2-22-.1-32.9.3-2.9.7-5.7 1.3-8.5.5-2.5 1.4-5 3.2-6.9h.2c-.3.7-1.6 2.3-1.8 2.9-.7 1.6-1.1 3.4-1.4 5.1-.6 3.6-1 7.2-1.1 10.9-.2 7.8.6 15.5.8 23.3.2 7.4.1 14.8-1 22.1-.4 2.3-.5 4.7-.4 7 1.9 5.8 2 12.1 2.9 18.1 1.2 7.6 3.6 14.9 5.4 22.3.9 3.6 1.6 7.2 2.2 10.9.5 3.5.7 6.8 2 10.2 2.7 6.7 7.3 12 11.6 17.6 5 6.5 10 13.1 15.8 19 .7-1 1.5-1.9 2.4-2.8 5.2-4.8 13.4-2.9 19.9-3.9 7.5-1.1 14.6-3.7 22.1-4.5 3.9-.4 7.9-.5 11.9-.2 1.1.1 2.3 0 3.4.4 1.6.5 3.1 1.5 4.3 2.7 1.3 1.3 2.5 2.9 2.9 4.7.4 1.8.5 3.8.8 5.7.3 2 .5 4.1.6 6.1 0 1.7.2 3.6-.2 5.2.6-3 0-6.8-.5-9.7-.3-1.6-.7-3.2-1-4.8-.2-1.5-.4-3-1.2-4.3-1.6-2.4-4.4-4.6-7.3-4.8-3.2-.2-6.5-.2-9.7 0-7.3.5-14.1 2.8-21.2 4.4-3.6.8-7.2 1.3-10.9 1.4-3.2.1-6.8-.1-9.8 1.2-5.7 2.4-7.2 9.3-9.2 14.5-2.6 7-5.8 13.8-8.9 20.5s-6.4 13.4-9.5 20.2c-1.5 3.2-2.8 6.6-4.3 9.8-1.6 3.2-3.5 6.2-5.5 9.2-2.2 3.3-4.7 6.4-6.8 9.8-2.2 3.6-2.2 7.2-2.7 11.2-1 8.3-4.3 16.1-7.6 23.6 2.7-7.1 5.5-14.2 6.5-21.8.5-3.5.1-7.2 1.3-10.5s3.5-6.2 5.5-9.1c2.1-3.2 4.3-6.3 6.1-9.7 1.7-3.2 3-6.5 4.4-9.8 3-6.9 6.3-13.8 9.5-20.6 1-2.2 2-4.4 3-6.5-2.3-1.4-4.5-2.9-6.8-4.4-.9-.6-1.9-1.2-2.5-2.1-.9-1.2-.8-2.8-.3-4.1-20.9 15.7-48 18.4-72 27.3-3.5 1.3-6.9 2.7-10.3 4.3-1.8.8-3.5 1.7-5.2 2.7-1.5.8-3.2 1.7-4.3 3.1 1.6-2.6 5.1-4.2 7.7-5.7 2.9-1.7 6-3.2 9.1-4.6 6.2-2.8 12.6-4.9 19.1-6.9 12.9-3.8 26-6.8 38.5-11.8 6.1-2.4 12-5.3 17.5-8.8.2-.3.3-.6.5-.8 1.1-1.5 2.7-2.8 4.3-3.7.9-.5 1.9-.7 2.8-1.2.8-.4.9-1.1 1-2 .3-2.9.1-6 .1-8.9.1-4.4-.1-8.8-.4-13.2l-1.6-1.9c-4.5-5.4-9.8-10.7-13-17-1.6-3.1-3-6.4-3.4-9.9-.5-3.8-1-7.6-1.7-11.3-1-4.6-2.2-9.1-3.3-13.7.3-.3.5-.6.7-1-.2.4-.5.6-.7.8-.7-2.8-1.3-5.5-1.8-8.3-.9-4.9-.9-10-1.3-15.1-.3.2-.5.2-.8.1-.1 0-.1 0-.2.1v-.2c-.5-.3-.9-.9-1.2-1.2-2.2-1.7-4.9-2.8-7.4-3.8 2.4 5.2 3.9 10.9 4.7 16.6.4 3 .8 5.6 2.7 8.1 1 1.3 3.5 5 5.4 3.7v.2c-.6.5-1.4.7-2.2.6-1.3-.3-2.5-1.6-3.5-2.5-2.4-2.3-3.7-4.8-4.2-8-1-6.3-2.2-12.6-3.5-18.8-.7-.3-1.3-.6-1.9-.8-1.5-.7-3.2-1.3-4.3-2.5-1.2-1.3-1.5-3-1.8-4.7-.2-1.6-.3-3.2-.8-4.7-.5-1.8-1.3-3.5-2.1-5.2-1.5-3.1-3.2-6.3-3.7-9.8s.6-6.8 2.1-9.9c1.5-3.3 2.9-6.6 3.6-10.2.7-3.6.8-7.3.3-11-.4-2.5-1.1-4.8-1.8-7.1-.5-1.8-.5-3.4 1.1-4.6l1.8-1.2c2.8-2 5.2-4.7 6.8-7.7 1.7-3.1 2.7-6.5 2.8-10.1.1-3.7 0-7.8 3.7-9.9.3-.4 1.6-1.2 2.3-1.6 1-.6 2.2-.6 3.2-1.3 3.2-2.3 4.5-6.8 6-10.2.8-2 1.7-4 2.5-6 .7-1.7 1.5-4.4 2.9-6-1 .1-2 .5-2.9.8.9-1.6 1.7-3.2 3.2-4.4 2.7-2.1 6.1-2.3 9.4-2.3 3.3.1 6.4 0 9.6-.9 2.9-.8 5.6-2.2 8-4 .1.3.2.6.5.9 0-.5 0-.9.1-1.4-.2.2-.4.3-.6.5-.4-2.1 5-3.6 6.3-4.1 2.1-.8 4.7-1.8 6.6-2.5 3.2-1.5 6.8-.8 10.2-1 3.5-.2 6.2-2.3 9.4-3.2 7-2 14.4.1 21.1 2.2 6.8 2.1 13.7 4.1 20.5 6.2.2.1 1 .2 1.1.3h.1v.3c0 .1-.1.6-.2.7 0 0 0 .1-.1.1.2 0 0 .1 0 0v.1c-.1 0-.2-.1-.3-.1h-.1c-.7.1-1.6-.2-2.4-.1s-1.6.2-2.4.5c-1 .3-1.9.8-2.7 1.4 6.1-.7 11.4 4.2 14.6 9 1.7 2.7 2.8 5.2 5.8 6.5 3.1 1.4 6 3 8.8 5.1 5.5 4.4 9.7 10.1 13.1 16.3 1.6 3 3.1 6.2 4.5 9.3 1.5 3.3 3.2 6.7 4.1 10.2 1 3.8.2 8-.2 11.9-.5 4.3-1.1 8.7-1.4 13 1.4 2.7 2.8 5.4 2.8 8.5.1 3.2-1 6.4-1.6 9.5-.2 1.5-.4 3.1-.2 4.6.2 1.7.7 3.3.6 5-.1 1.4-.6 2.6-1.2 3.8-.1.3-.3.6-.5 1 4.7 2 1.1 10 .1 13.2-1.6 5.3-3.3 10.5-5.1 15.7-1.7 4.8-3.1 10-5.5 14.6-1.8 3.5-6.3 7.4-10.4 5.3-.8 4.9-1.2 9.7-1.6 14.7-.5 6.3-1.2 12.6-3.6 18.6-1.7 4.2-4.1 8-6.8 11.6-.3 4.8-.6 9.6-.7 14.5v8c0 1.9-.6 4.1 0 6h-.2c.1 0 .1.1.2.2v-.2c.8 0 2-.9 2.7-1.2 1.4-.7 3-1.1 4.6-1.5 2.2-.5 4.5-.7 6.8-.5 1.6.1 3.1.3 3.8 1.7 5.5 1.4 11 2.9 16.4 4.4 1.1.3 2.2.5 3.2 1 .6.3 1.1.7 1.5 1.3.3.6.3 1.2.7 1.8.7.8 2.3 1.1 3.2 1.5.7.3 1.4.5 2.1.8 2.9 1.1 5.8 2.3 8.7 3.3 3.2 1.1 6.5 1.7 9.7 2.9 3.2 1.1 6.3 2.7 9.2 4.5 6.9 4.1 12.9 9.3 19.7 13.3zm-187.4-50.6c.2.9.7 2 .9 2.5.4 1.1 1.1 2 1.7 2.9 1.3 2 2.5 4.2 3.2 6.5.8 2.5 1.1 5.1 1 7.7 0 1.1-.1 2.1-.2 3.2 1.4-3.8 2.6-7.8 4.8-11.1-4.1-3.6-7.8-7.6-11.4-11.7zm-1.3-1.5c1.2 4.8 1.8 9.8 2 14.8.1 2.3.3 4.7.2 7-.2 2.4-1.1 3.5-3.3 4.3-2 .7-4.2 2.2-5.5 3.9-1.4 2-.4 3.4 1.2 4.8a174 174 0 0 1 6.5 5.6c2.1-4.7 4.2-9.3 6.1-14.1 0-.1.1-.2.1-.4l-.3-1.8c-.2-1.2-.2-2.3-.4-3.5a29 29 0 0 0-1.5-7.1c-.8-2.3-1.9-4.5-2.9-6.7-.5-1-.8-2-.9-3.1-.1-.6-.3-1.8-.1-2.6-.5-.3-.8-.7-1.2-1.1zM647 128c-2.1 9.1-7.5 17.4-15.1 22.8 3.5 5.1 1.2 11.7-1 16.9-2.3 5.4-4.8 10.8-7.9 15.8-3.2 5.2-7.1 9.8-11.7 13.8-4.5 3.8-9.9 7.6-15.6 9.1-6.6 1.8-12.4-1.9-18.7-3.3.3 3.1-3.1 5.9-5.4 7.6-3.4 2.3-6.9 4.3-10.7 5.9-7.7 3.3-16 5.1-24.4 4.9-8.2-.2-16.3-2.5-23.3-6.9-3.4-2.1-6.6-4.7-9.6-7.3-3.2-2.8-6.4-5.7-9.1-9-2.9-3.5-5.2-7.4-6.1-11.9-.9-4.7-.4-9.5.1-14.2-5.4-.4-10.1-4.1-12.7-8.7-3-5.3-3.7-11.9-3.3-17.8.4-6.1 2.2-12 4.4-17.7 1.2-3.2 2.9-6.4 2.6-9.8-.4-3.7-1.3-7.1-.6-10.9.6-3.3 2-6.5 4-9.1 5-6.3 13.6-9.5 21.5-8.4-1.3-7 2.8-13.6 7.1-18.8 4.5-5.5 9.8-10.5 15.6-14.7 11.9-8.6 26.1-13.8 40.9-13 8.1.4 16.2 2.7 23.1 7 9.2-.4 18.4 3.7 24.3 10.8 1.8 2.2 3.4 4.8 4.4 7.5 1.3 3.5.8 7.9 4 10.3 3.9 2.9 7.7 5.6 11 9.1 3.2 3.5 6.1 7.4 8.2 11.6 4.7 8.7 6.3 18.8 4 28.4zm-.2-16.2c-1.6-8.1-5.6-15.6-11-21.8a50 50 0 0 0-9.8-8.6c-1.6-1.1-3.5-2-4.6-3.7s-1.1-3.8-1.6-5.6a25.5 25.5 0 0 0-8.8-13.6c-3.1-2.5-6.6-4.4-10.4-5.5-2-.6-4-.9-6-1-1-.1-1.9-.1-2.9 0-.8 0-.9-.1-1.6-.5-15.4-9.2-34.8-8-50.7-.8-7.4 3.3-14.1 8.1-20.1 13.5-5.8 5.3-12.8 12.1-14.2 20.2-.3 1.9-.3 3.8.1 5.7-8-1.3-16.7 1.7-21.8 8.1-3.4 4.3-4.8 10-3.9 15.4.4 2.8 1.3 5.6.4 8.5-.8 2.7-2 5.3-2.9 8-3.5 10.3-5.8 23.5.5 33.2 2.9 4.6 7.7 7.2 13.1 7.2-.9 8.1-1.6 16.2 3.2 23.3 2.4 3.5 5.5 6.4 8.5 9.3 3.2 3 6.5 5.9 10.1 8.4 14.7 10.1 33.7 9.8 49.6 2.5 3.2-1.5 6.3-3.3 9.3-5.4 1.6-1.1 3.9-2.9 4-5 .1-1.1-.8-2.2-1.3-3.1 2 .3 3.9.7 5.9 1.3 3 .9 5.8 2.2 8.9 2.9 6.5 1.4 12.4-1.9 17.6-5.5 5.2-3.5 9.8-8 13.5-13.1s6.5-10.8 9.1-16.5c2.7-5.8 6.1-13.2 1.8-19.1 12.3-8.2 18.8-24 16-38.7zM469.7 62.1c-.9 3.8 3.2 7.7 5.9 9.9 1.5 1.3 3.4 2.7 5.5 2.7 2.2 0 4.3-1.2 5.9-2.5 3.2-2.6 5.6-6.4 4-10.6-1.4-3.9-5.5-5.8-9.5-6.1-4.4 0-10.6 1.6-11.8 6.6zm20.1 2.9c0 4.2-4.3 9.8-9 8.6-2.2-.5-4.1-2.9-5.6-4.5-1.4-1.5-3.5-3.8-3.5-6 0-2 1.7-3.8 3.1-4.9 1.9-1.5 4.3-2.5 6.7-2.5 4.8.2 8.3 4.7 8.3 9.3zm-48.2 14c2.6 2.4 6.9 2.3 9.1-.7 1.8-2.6 2.1-7.6-.2-10.1-2.8-3.2-6.7-.7-9 1.7-2.7 2.5-2.7 6.5.1 9.1zm8.1-9.3c2.1 2.1 2.2 5.5.1 7.6l-.1.1c-2.1 2-5.1 1.6-7.1-.3-2.1-2-2.9-4.8-1.1-7.2 2.1-2.2 6-2.3 8.2-.2zm-258 40.8c4.9 9 2.7 20.5-.6 29.7-3.1 8.7-8.6 16.8-17.4 20.3-4.9 2-10.3 2.4-15.2.6 1 2.6-.4 5.8-1.4 8.1a44.14 44.14 0 0 1-20.5 21.9c-13.1 6.8-28.7 6.1-41.5-1.1-4.8-2.7-9-6.3-12.4-10.5-.8-1-1.5-2.1-2.4-3-1.2-1.1-2.5-1.1-4-1-4 .3-7.9.4-11.9-.1a50.63 50.63 0 0 1-36-21.9c-9-13.4-10.9-31.1-5-46.1-12.1-9-16.8-26.3-9.7-39.9 1.8-3.4 4.2-6.5 7.1-9.1 1.5-1.4 3.2-2.6 4.9-3.8 1.6-1.1 3.6-1.8 5.1-3 1.5-1.2.9-3.4 1-5.1.4-6.2 2.2-12.2 5.3-17.6 4.1-7.2 10.3-13.3 17.6-17.1 14.4-7.7 32.3-7.1 47.1-1 2.6-3.5 7.3-4.3 11.4-4.9 4.8-.8 9.5-1.4 14.3-1.4 9.1-.1 18.2 2 25.1 8.3 3.5 3.1 6.1 7.2 7.2 11.8 8.1-1.7 16.8.7 23 6 6.4 5.4 9.6 13.7 9 22-.3 4.4-1.7 8.8-4.1 12.6 6.8 3.5 8.1 13.4 8.4 20.3.5 8.6-1.1 17.2-4.4 25zm-.5.6c-.4-.7-.3-.7 0-1.5.9-2.1 1.6-4.2 2.2-6.4 1.2-4.4 1.8-9 1.9-13.6 0-5-.5-10.3-2.1-15-1.3-4-3.5-7.1-7.4-8.7 4.5-6.8 5.8-15.2 3.3-23-2.6-7.9-9.1-13.8-17.1-16-4.5-1.3-9-1.2-13.5-.1-1.3-7.2-5.7-12.8-12-16.4-6.9-4-15.1-4.8-22.9-4.4-4.1.2-8.2.7-12.3 1.3-1.6.3-3.3.6-4.8 1.2-.8.3-1.5.7-2.2 1.1-.8.5-1.2 1.3-1.9 1.8-.5.4-.2.4-1 .1-1-.4-1.9-.8-2.9-1.2-2-.7-4-1.4-6-1.9-3.9-1-8-1.6-12-1.7-8.8-.4-17.7 1.3-25.6 5.4-8.8 4.7-16 12.7-19.7 22-1.1 2.8-1.9 5.7-2.3 8.7-.2 1.4-.3 2.9-.3 4.4 0 1.3.4 2.9-.2 4.1-.5 1.1-1.7 1.6-2.7 2.1-1.4.8-2.7 1.6-3.9 2.4-2.2 1.6-4.3 3.3-6.1 5.4-7.4 8.2-9.6 19.7-5.8 30.1 2.1 5.8 5.8 10.8 10.7 14.5.5.4 1.2.6 1.2 1.2 0 .3-.4.9-.4 1.2-.2.6-.5 1.3-.7 1.9-.5 1.5-.9 2.9-1.2 4.4-2.6 11.5-1.1 23.8 4.6 34.1 5.2 9.4 13.6 17 23.4 21.2 5.4 2.3 11.2 3.6 17 3.9 3.1.1 6.1-.2 9.1-.3 3.2 0 4.7 1.9 6.5 4.2 5.8 7.4 14 12.6 23.1 15.1 10.8 2.9 22.1 1.2 31.7-4.4 4.6-2.7 8.7-6.3 12.1-10.6 1.7-2.1 3.2-4.4 4.4-6.8 1.2-2.5 2.9-5.5 2.8-8.3-.1-1.6-1.1-2.7-2-3.9 2.9 1.3 5.7 2.4 8.9 2.5 4.3.1 8.6-1.1 12.3-3.3 6.8-4 11.1-11.1 13.7-18.3 2.9-8 4.8-17.7 1.8-26-.9-.7-1.3-1.6-1.7-2.5zm-15.9 68.2c-5.7 8.3 5.1 18.2 13.4 17.2 5-.5 9.1-4.6 9.8-9.6.4-2.8-.7-4.9-2.3-7.1-1.5-2-3.1-3.8-5.6-4.6-5.2-1.9-12-.7-15.3 4.1zm20 .9c1.3 2.4 1.9 4.7 1.3 7.4-1 4.1-3.6 8-8.1 8.3-4.4.3-8.1-2.6-10.5-6-1.2-1.7-2.4-3.7-2.2-5.8s1.3-4 2.8-5.5c3.1-2.9 7.9-4.5 12-3.1 2.4.8 3.6 2.6 4.7 4.7zm20.8-15.8c-1.4 4.1 1.4 9.2 5 11.1 3.6 2 9.8 1.9 11.8-2.4 2.1-4.6-1.7-8.8-5.5-10.9-3.7-1.8-9.7-2.7-11.3 2.2zm15 8.7c-1.7 4.3-7.6 3.4-10.3.6-2.2-2.2-4.4-7.1-2.1-10 1.9-2.4 6-2.5 8.5-1.3 3.6 1.8 5.4 7 3.9 10.7zm8.7-25c0-.6.1-1.2.4-1.7.6-1.1 1.7-1.7 2.9-1.8 2.6-.4 4.2 1.6 4.4 4 .2 1.8-.2 4.4-2.4 4.6-1 .1-1.7-.4-2.3-1-.5-.5-1.4-1.6-2.2-1.5-.7.1.4.7.7 1.2.5.8.7 1.6 1.4 2.3 1.4 1.3 3.9 1.3 5.3 0 3.3-3.2.2-8.7-3-10.4-1.7-.9-3.7-.9-5.1.5-1.3 1.3-1.7 4.1.1 5.2.2-.3-.1-1-.2-1.4zm148.8 56.2c-.1 0-.1 0 0 0h.2-.2zm37.3-67.6c1.5.5 3.1.6 4.6.4.6-.1 3.6-.7 2.4-1.9.9 2.1-5.9.8-6.7.5-2.5-.8-4.7-2.2-6.5-4.1 1.3 2.5 3.6 4.3 6.2 5.1zm1.9 7.4c-2.8-1-5.2-2.9-6.6-5.6.7 3 3.6 5.4 6.6 5.6zm-53.9-46.8c-2.1 4.9-5 9.1-8.9 12.6 4.7-2.2 8.3-7.3 8.9-12.6zm3.7 2.3c-3 5.4-7 10.3-12.5 13.1 5.8-2.1 10.3-7.5 12.5-13.1zm-20.3 10.9c.1-.1.2-.4.3-.5.5-.8.9-1.8 1.1-2.6.7-2.2.8-4.6.3-6.9.1 3.2-.4 6.4-1.5 9.4-.1.1-.1.4-.2.6 0-.1-.6.3-.4 0-.3.2.2.1.4 0zm-75.7 13.7c.4 3.3 3.4 6.2 6.6 6.5-3-1-5.4-3.4-6.6-6.5zm5.5-2.7c-.3 2.9 1.8 6 4.6 6.8-2.5-1.5-4.2-4-4.6-6.8zm86.7 61.9c-1.3.2-10.6 1.9-8.1 4.3-1-1.9 4.5-1.9 5.4-2 2.8-.4 5.6-.7 8.4-.8 2.2-.1 4.5-.2 6.7-.2-3.9-1.6-8.3-1.9-12.4-1.3zm-47.6 10.3c-4.1 1.9-8.3 3.8-12.6 5.3-4.3 1.5-8.7 2.5-13.1 3.6 9 1.1 19.4-2.5 25.7-8.9zM611.7 160h.3c-.2-.1-.3-.1-.3 0zM92.3 116v.2c.1 0 .1-.1.2-.2h-.2zm28.6-48.4c-4.2-2.9-9.3-5.2-14.4-5.3S96 64.5 91.7 67a23.57 23.57 0 0 0-11.9 23c.6 5 2.8 9.2 5.8 13.1 1.5 2 3.1 4.1 4.5 6.2.7 1.1 1.5 2.3 1.9 3.7.1.3.3 2.4.4 3h.2c.2-.8-.1-3.3-.2-3.6-.4-1.4-1-2.7-1.7-3.9-1.3-2.3-2.8-4.5-4.2-6.7-2.9-4.5-4.8-9.3-4.6-14.8.2-4.7 1.9-9.3 4.8-13.1 3-3.9 7.4-6.3 11.9-8.2 4.6-2 9.1-2.8 14-1.4 4.3 1.2 8.3 3.6 11.5 6.6 3.2 2.9 5.8 6.6 7 10.7 1.3 4.2 1 8.5-.4 12.6-1.1 3.2-2.9 6.2-5 8.9-2.6 3.5-6.7 7.3-7.2 11.8h-.3c-3.9-.1-7.9.4-11.8.7-2.4.2-4.9.3-7.3.4-.5 0-5.2 0-6.5.1 0 .1-.1.2-.2.2 1.4.4 9.2.8 10 .9 3.2.1 6.4.1 9.6 0 2 0 4-.2 5.9-.1.3 1.4 0 3.1 0 4.4v12c0 3-.2 6-.1 9-3.6.6-7.5.4-11.1.4-4.2 0-8.5-.3-12.7-.3.3-2.5.4-5 .3-7.5 3 .8 5.9.7 9 .6 3-.1 6-.2 9-.2.2-.3-2.7-.6-3.1-.7-.7-.1-1.3-.2-2-.2-1.3-.1-2.6-.3-3.9-.4-2.3-.2-4.5-.5-6.8-.2-.7.1-1.7.1-2.4.4 0-1.9-.2-3.7-.3-5.5 1.7.4 5.4.7 5.8.7 1.4 0 2.9-.2 4.3-.3 2.9-.2 5.9-.3 8.8-.6.4-.1-1-.3-1.1-.3-.7-.1-1.4-.1-2.2-.2-.6-.1-1.3-.1-1.9-.1-1.1-.1-2.2-.1-3.3-.2l-4-.3c-1.3-.1-2.6 0-3.9.2-.3 0-1.7.2-2.6.4-.4-3.9-1-7.9-1.5-11.7h-.1c-.1.3-.1.9-.1 1v5.8c0 .8 0 1.7.1 2.6.1 3 .2 5.9.2 8.9 0 2.2 0 4.5-.1 6.7 0 .7-.4 1.9 0 2.5.5.8 1.9.3 2.6.2 4.9-.4 9.8-.6 14.7-.6 2.5 0 4.9.1 7.4.1.8 0 1.4.1 1.7-.7.2-.6.2-1.5.2-2.1l.3-3.9c.4-4.8.6-9.6.7-14.4 0-1.9.3-4.2-.2-6.1-.1-.7-.5-1-1-1.1.1-.2.1-.3.1-.4.2-.6.4-1.1.7-1.7.6-1.2 1.4-2.4 2.3-3.4 1.8-2.2 3.9-4.2 5.7-6.5 2.3-2.8 4.1-6 5.2-9.5 3.2-11.1-3.1-20.4-11.7-26.3zM92.3 116c-.1 0-.2 0-.2.1 0 0 0 .1.1.1h.1c.1 0 .1-.1.2-.2h-.2zm19.7 5.5c-.9-.1-1.8-.1-2.6-.2-1.2-.1-2.5-.1-3.7-.2l-4.8-.3c-1.4 0-2.8.1-4.1.3-.5.1-3.4.3-3.5.8-.2.6 7 1 7.7 1l4.4-.3c3.2-.2 6.4-.5 9.6-.5.1-.4-2.6-.6-3-.6zm3.2 22c-.4.7 0 2.8-.8 3.2-.4.1-1.3-.1-1.7-.2-3.1-.2-6.2-.4-9.2-.3-1.6 0-3.3.1-4.9.3-.3 0-1.3.1-2 .2v-.2c-.2-.8-.6-1.7-.6-2.5-.4 1 0 2.1-.3 3.1-.1.1-.1.3 0 .5.1.3.4.3.6.2l.1.1c.5.2 1.6.1 2.1.1 1.4.1 2.8.1 4.2.1 3.2.1 6.5.1 9.7-.2.9-.1 2.5.1 3-.9.6-1-.3-2.4-.2-3.5zm.9-51.2c-.2-1-1.6-1.5-2.3-2.1-1-.9-1.8-2-2.3-3.2s-.5-2.4-1-3.5c-.6-1.5-1.3.4-1.8 1.1-.4.6-1.5 2.5-2.3 2.7-.9.2-2.4-.9-3-1.4-.5-.4-1.7-2.3-2.4-1.7-.3.3-.2 1.6-.3 2-.1.7-.3 1.4-.5 2-.1.4-1.5 3.3-1.6 3.3.2.2 1.9-2.7 2.1-3.1.4-1 .8-2 1-3 1 1.3 2.5 2.5 4.1 2.9 1.7.4 3.1-1.8 4-3.5.6 2.4 2.1 4.6 4.2 6.1 1.1.8 2.1 1 1.6 2.5-.2.7-.6 1.4-.9 2-2.4 5.5-4.4 11.2-5.4 17.2.1-.6.8-2 1-2.8.5-1.5 1-2.9 1.5-4.4.6-1.7 1.1-3.3 1.7-5 .4-1.4.9-2.8 1.3-4.1.4-1.1 1.5-2.9 1.3-4zm7.9-10.6c.2-.6.2-1.2 0-1.8-.4-1.1-1.4-2-2.6-2.2-2.4-.5-4.9 1.9-5.4 4.1-.5 2.5 1.5 5 4.1 4.3 1.2-.3 1.6-1.1 2.1-2.1.2-.5.6-1.1.6-1.6 0-.1-.3-.4-.4-.2 0 .2.1.3 0 .5-.1.3-.6.8-.7 1-.6.9-1.1 1.5-2.3 1.5-1.9-.1-2.8-1.9-2.6-3.6.6-4.9 8.3-3.5 6.6.9 0 0 .5-.6.6-.8zM68.1 63.4l1.2 1.5c.8 1 1.7 1.9 2.6 2.8s1.7 1.7 2.8 2.3c.5.3 2.4 1.3 3 1 .3-.2-1.6-2.3-1.9-2.5-.8-.8-1.7-1.3-2.6-1.9-2-1.3-3.9-2.8-5.7-4.3-.2-.1.5 1 .6 1.1zm15.3-15.1c.1.4.3.8.4 1.2.3.8.6 1.6.9 2.3.5 1.4 1.1 2.8 1.6 4.2.5 1.2 1.3 2.8 2.4 3.6.2.2.8.6 1 .2.2-.3-.3-.7-.4-.4 0 .1.1.1.2.1 0 0-.1 0-.1.1 1-.3-1.3-4.5-1.7-5-1.5-2.3-2.8-4.6-4.3-6.8-.2-.4 0 .5 0 .5zm22-5.6c-.1.7-.1 1.4-.2 2.1-.1 1.4-.2 2.7-.2 4.1 0 1.4-.2 2.7.2 4.1.1.6.6 2.9 1.2 3.1.3.1.6-2.4.6-2.8.1-1.2-.1-2.3-.2-3.4l-.3-2.5c-.2-1.9-.5-3.7-.7-5.6-.1-.5-.4.9-.4.9zm20.2 17.1c.4-.3.6-.8.9-1.1.6-.8 1.1-1.6 1.7-2.4.9-1.3 2-2.6 2.8-4 .4-.7 1.8-3.4 1.2-4.2-.3-.4-2.7 2.6-2.9 2.9-.7 1.1-1.2 2.5-1.8 3.7-.2.5-1.9 5.2-2.6 5.1-.3.5.5.1.7 0zM135.9 72c.2.2.6.1.9.1.4-.1.8-.3 1.1-.5.9-.5 1.8-1 2.6-1.5 1.4-.8 3-1.6 4.4-2.5.6-.4 3.2-2.4 3-3.3-.1-.5-3.6 1.2-4 1.5-1.2.7-2.2 1.8-3.3 2.7-.5.4-3.9 3.9-4.8 3.2-.2-.2-.1.2.1.3zm452.2 36c-1 6.7-3 13-6 19.1s-7 11.4-11 16.7c-1.8 2.3-3.5 4.7-5.4 6.9 5.1 7.2 3.5 16.8-1.1 23.8-2.4 3.7-5.5 6.9-8.8 9.8-3.3 2.9-6.8 5.9-10.9 7.7-.1 0-.1.1-.1.1-.2-.4-.5-1-.5-1.5 0-.1-.1-.2-.1-.2h.1c.2-.4 1.4-1 1.8-1.3.7-.5 1.3-1.1 1.9-1.8 2.5-2.5 4.4-5.4 5.7-8.6 1.4-3.3 2.6-6.5 2.8-10.1.1-1.8-.2-3.6-1.1-5.2 0-.1-.3-.4-.6-.7-1.5 1.4-3 2.7-4.5 4s-2.9 2.5-4.4 3.7c-.4.3-3.7 3-3.9 2.7 6.8-7.1 14-14 20.9-21 10.5-10.7 18.3-24.1 21.9-38.7 1.2-4.7 2.1-9.4 2.4-14.2.1-2.4.1-4.8-.1-7.2 0-.2-.7-3.4.2-3-.5.9.4 2.6.6 3.6.3 1.6.5 3.3.7 5 .2 3.5 0 7-.5 10.4zm-22.6 42.9c-2.3 2.9-4.6 5.7-7.2 8.3-1 1.1-2.1 2.1-3.2 3.2.5.3 1 1.2 1.2 1.5.9 1.4 1.2 3 1.4 4.6.3 3.3-.4 6.4-1.6 9.4-1.1 3.1-2.5 5.9-4.6 8.4-.2.2-.3.4-.5.6 1.6-1.1 3.2-2.2 4.6-3.4 3.4-2.8 6.1-6.2 8-10.2 1.9-3.8 3.7-8.4 3.7-12.7 0-1.6-.2-3.2-.5-4.8-.2-1-.4-2.1-.7-3.1 0-.2-.4-1.1-.6-1.8zm22.1-62.4c1.5-2.4 2.9-4.9 4.1-7.5-1.5 2.4-2.9 4.9-4.1 7.5zm5.9-9.4s0-.1 0 0c1.7 1 3.1-3.1.5-3.4-1-.1-1.7.4-1.6 1.5.1.6.5.9.5 1.4-.1.6-.9 1.5-1.2 2-.6 1.1-1.2 2.2-1.9 3.3-.8 1.3-1.5 2.7-2.3 4-.4.7-.7 1.6-1.4 1.9-1.2.5-2.5.8-3.8 1.2.5.5.9 1.6 1.2 1.9.5.3 1.4.2 1.4 1.1-1 .3-1.5-.6-2.1-1.1-.5-.4-1-.5-1.2-1.2 0-.1-.1-.2-.1-.4-3.1 1.2-6.3 2.7-9.3 4.3.7 1.8 1.7 3.8 3 5.2 1.1 1.2 3 2.1 4.6 2.7s3.3 1.1 5 1.7v.1c-3.1.3-5.9-.8-8.1-2.8-1.2-1.1-2.6-2.1-3.5-3.3-.5-.7-1.3-2.4-1.1-3.4-3 1.6-6 3.4-8.8 5.4.7 2 2.1 3.9 3.3 5.5 1.3 1.8 2.8 3.4 4.8 4.5 3.9 2.2 8.8 3.7 13.2 3.9v.1c-4.6 1.1-10.1-.9-13.7-3.8-1.9-1.5-4-3.1-5.5-5-.8-1.1-2.5-3.6-2.3-5.2-2.5 1.7-4.8 3.7-6.9 5.8-7 6.9-12.2 15.4-16.1 24.4-4.8 11-7.9 22.9-10.2 34.7 1 1.5 2.3 2.8 3.7 3.9 1.7-3.2 3.5-6.3 5.3-9.4 1.3-2.2 2.8-4.4 4.2-6.5 1-1.5 2.1-2.9 3.3-4.3.9-1 1.8-2 2.7-2.9.6-.6 1.6-1.8 2.3-1.9-4 4-7 8.7-10 13.5-2.5 4-5 7.9-7.4 11.9-.1.1-.2.3-.2.4-.1.2-.3.5-.4.7-.5.8-.9 1.6-1.4 2.5-.1.1-.2.3-.2.4-.7 1.3-1.4 2.7-2.1 4.1-.8 1.5-1.6 3.1-2.3 4.7l5.5-7.9c.1-.2.3-.4.4-.6.7-.9 1.3-1.9 1.9-2.9.1-.1.2-.2.2-.3l3.5-5.3c2.1-3.2 4.1-6.4 6.1-9.7 2-3.2 4.1-6.5 5.7-9.9h.1c-1.5 4-3.6 7.7-5.8 11.4-2.1 3.7-4.3 7.3-6.6 10.9-.7 1-1.3 2.1-2 3.1.5.3 1 .5 1.5.7.6.2 2.5.6 2.7 1-1.5-.3-3-.8-4.4-1.4l-1.9 2.8c.9.4 1.9.7 2.8 1 .5.1.7.3 1.1.1.6-.4 1.2-1.6 1.7-2.1 0 0 .1 0 .1.1-.3.8-.7 2.4-1.5 3-.8.5-2.1 0-2.9-.3-.6-.2-1.2-.5-1.8-.8-2.3 3.2-4.7 6.4-7.1 9.5l-1.2 1.5c.2-.6.4-1.2.7-1.8l.1-.1c1.3-3.3 3-6.4 4.7-9.5l.6-1.2c-1.1-.9-2.3-1.6-3.3-2.6-.7-.8-.9-1.4-.4-2.3.4-.6 1.2-1.8 1.8-2.1-.2-.3-.4-.6-.4-.8-.1-.6.3-1.6.4-2.2.2-1.2.5-2.4.7-3.6.7-3.5 1.6-7 2.6-10.5-.2.1-.5.1-.7.1-3.9.8-6.9 3.7-9.5 6.5-2.8 3.1-5.1 6.7-6.8 10.5-.8 1.7-1.5 3.4-2 5.2-.2.6-.2 1.6-1 1.7-1.2.2-1-1.3-1-2 .4-8.4 2.3-17.7 6.1-25.2 2.1-4 5.1-7.4 9-9.7 1.9-1.1 4-2 6.2-2.5.8-.2 4.5-1 5.5-.5 5.8-13.4 13.3-26.2 25.5-34.6 3.7-2.5 7.6-4.7 11.6-6.6 3.3-1.6 6.8-3.3 10.5-4 .2-.1 1.1-1.9 1.3-2.3.5-.8 1-1.6 1.5-2.5 1.2-1.9 2.3-3.8 3.5-5.8-1.3-1.7.4-4 2.5-2.9 1.4.8.1 4.6-1.7 3.3zm-64.2 88c-.3.8-.7 1.6-1.1 2.4-.3.7-.2.8.3 1.5.8 1.2 1.7 2.1 2.9 2.8.6-1.1 1.1-2.2 1.7-3.2l-1.1-.8c-.1.8-.7 1.5-1.2 2 0-.8.5-1.6 1.1-2.1-.2-.2-.5-.4-.7-.6l-.2-.2c-.2.8-.7 1.6-1.3 2.1.1-.8.6-1.6 1.2-2.2-.2-.2-.5-.5-.9-.8-.2.9-.8 1.7-1.5 2.3.1-.9.7-1.8 1.3-2.5-.1-.2-.3-.5-.5-.7zm8.9-32.9c-8.1 1.1-15.1 6.5-19.5 13.2-3.8 5.9-4.9 12.5-5.2 19.3 2.3-5.6 6-10.6 11-14.2 1.5-1.1 3.2-2.1 5.1-2.6.9-.2 1.9-.4 2.8-.4h.3c1.2-4.2 2.6-8.4 4.3-12.5.4-.8.8-1.8 1.2-2.8zm27.7-15.5c2.1 1 3.9 2.6 4.4 4.8.5 2 .5 4.3-.6 6.1-2.2 3.5-6.9 4.3-10.3 2.2-3.5-2.1-5-6.1-3.3-10 1.6-3.9 6.3-4.8 9.8-3.1zm-6 14.3c3.9 1.5 9.3-.3 11-4.2 1.9-4.3-.4-9.1-4.5-11s-8.7-.1-10.4 4c-1.8 4.4-1 9.3 3.9 11.2zm8.2-16.8c-1.3-.7-2.5-1.1-4-1.3-2.6-.3-5.3 0-7.5 1.7-2.1 1.7-3.5 4.3-3.8 7-.2 2.4.1 5.6 1.9 7.4-.4-1.1-1-2.1-1.2-3.3-.2-1.5-.3-3-.1-4.5a11 11 0 0 1 3.5-6.5c2-1.8 4.5-1.7 7.1-1.3 2.1.3 5.3 1.1 6.5 3.1-.1-.9-1.6-1.8-2.4-2.3zm2.5 16.3c-2.5 1.8-5.1 2.7-8.2 2.8 3 .8 6.3-.3 8.2-2.8zm-35.1 42.1c.4-.3 1.1-1.5 1.1-1.9-.7.4-1 1.1-1.1 1.9z"/>
</svg>
