<svg width="585" height="500" viewBox="0 0 585 500" xmlns="http://www.w3.org/2000/svg">
    <path class="uk-fill-primary" fill="#c6e3f7" d="M254.9 181.1c-5.7-7.3-32.5-32.3-39.2-38 15.1-23.1 7.7-53.8-15.6-68.9-23.5-15.2-66-5.2-75.3 20-4.8 13.1-5.1 30.3-.6 43.6 4.9 14.4 16.6 22.6 30 28.6 17 5.8 34.9-.1 41.4-3.2 1.3-.6 3.7-1.9 5.1-1.5 1.5.4 3.5 3 4.6 4 3.3 3.1 23.1 22.3 29.9 28.6 5.1 4.7 12.5 9.3 19.3 4.8 6.5-4.3 4.6-12.6.4-18zm-11.2 10c-3-2.5-6.9-6.3-9.8-9-4.9-4.7-9.8-9.4-14.7-14-2.8-2.7-9-8.4-11.8-11.1.6-.7 1.1-.9 1.1-1.4-2-2.1-4.7-4.3-6.2-5.5-5.6 7.2-23.3 12-31.4 12.1-9 0-23.9-3.1-32.6-14.5-8.8-9.3-10.8-23.4-9.8-35.6 1.1-13.3 9.1-24.9 18.7-30.7 11.9-7.3 24.7-9 37.5-5.6 28.1 7.4 33.4 39 29.1 51.7-.8 5.3-6.4 16.1-7.8 18.5 1.2 1 4.8 4.7 6.4 5.8.4-.4 1-1 1.2-1 11.8 11.9 28.9 27.6 30.8 29.5 1.9 1.9 10.4 7.4 7.2 11.8-1.9 2.5-6 .7-7.9-1zM529.2 135c-5.1-2.6-11.2-4.3-17-4.7.9-3.1 1.5-6.3 1.5-9.7.1-5-1-9.7-3-14.1 4.1.2 8.8-1.9 12.2-3.2 4.6-1.7 12.3-4.9 11.6-11.1-1.5-12.5-24.5-.3-30 4.6a50.9 50.9 0 0 0-8-7.4c7.3-2.8 22.8-24.3 9.7-26.1-7-1-18.5 14.4-16.7 21.8-4.6-2.3-9.4-4-14.3-4.8.9-.9 1.3-2.4 1.6-3.9.5-3.5.8-7.2.8-10.7 0-4.8-2.2-11.9-8.3-11.3-6.4.6-5.7 9-5.9 13.6-.2 4.1-.3 8.8 2.3 11.7-5.9.3-11.5 1.9-16.6 4.5-.1-4.1-3-8.4-5.2-11.5-2.8-3.8-8.1-9.9-13.4-6.5-5.7 3.7-1.3 10.2 1.3 14.1 2.4 3.5 4.6 8.3 8.5 9.8-3.3 2.9-6.1 6.3-8.3 10-.8-4.2-7.2-6.2-11-7.7-4.9-1.9-14.6-6.7-18.3-.2-3.9 6.8 4.8 10.7 9.6 12.4 5 1.7 10.7 6.2 15.9 4.4-.6 1.9-1 3.9-1.3 5.9-.3 2.6-.4 5.3-.3 7.9a7.95 7.95 0 0 0-5.5-1.8c-.6-.4-1.4-.4-2.3-.1-5.5 2.2-15.3 4.8-17.9 10.7-3 6.9 4.7 9.3 9.9 8 3.6-.9 7.1-2.4 10.4-4 2.4-1.1 5-2.2 6.5-4.5 1.2 5.6 3.3 11 6 16 2.5 4.8 5.6 9.1 8.8 13.3 4.2 5.5 5.2 10.3 4.9 17.2-.5 11.3.4 22.3 12.2 27.3 11.7 5 25 0 34.5-7.3 1.4-1.1 1.6-2.5 1.2-3.7.4-.7.6-1.6.4-2.6-1-6.1-1.9-12.3-1.7-18.4.3-7.2 2.7-13.4 6.3-19.6 2.1-3.7 4.4-7.3 6.4-11.1 2.6 2.5 6.9 3.4 10.1 4.3 4.1 1.2 12.3 3.5 15.5-.7 3.4-3.8.6-8.9-3.1-10.8zm-102.6-32.2c-.4 1.7-9-2.5-11-3.3-1.1-.4-8.4-3.1-7.7-4.8.8-2.1 6.7 1.7 10.2 3.2 5.1 2.4 9 3.4 8.5 4.9zm-3.6 25.6c-.8.7-6.6 2.6-7.5 3-2.4 1.1-6.5 3.1-8.7 3.2-1.2-.2-1.5-1.8.1-2.3 1.8-.9 9.2-3.8 12.2-4.7 1-.4 2.5-.6 3.1-.8 1.6-.1 1.8.8.8 1.6zm82.8-59.3c1 .8-2.4 4.1-4 6.6-2.4 2.2-5.3 8.4-6.6 7.2-1-1.5 2.4-4.8 5.2-8.6 2.4-2.7 3.3-6.2 5.4-5.2zM469.7 68c.1-1.1-.4-7.5.9-7.7 1.7-.3 1 5.5 1 7.7 0 .6.1 8.3-1.1 8.3-1.5-.5-.6-5-.8-8.3zM438 78.4c-.6-.9-5.8-7.3-3.8-8.2 1.4-.6 4.3 5.3 4.8 5.9.9 1.4 5.6 7.5 4.2 8.4-2.4.8-3.4-4.6-5.2-6.1zm66.7 51.6c-2.2 14.2-12.7 19.6-17 30.5-1.4 3.7-2.3 8.8-2.3 12.7 0 .6 1-.2 1 .4-.1 6.2.8 12.3.8 18.7-1 .8-1.8.7-2.6.7-2.7 7.5-17.3 8.6-24.7 3.8-1-.7-2.9-2.4-3.4-3.9-.9-.6-1.2 0-1.9-.3.1-6.6-.3-13.5-.3-17.3.1-.8.7-1.2.8-1.2.4-12.3-7.8-18.1-12.3-25.4-5.1-8.3-9.3-18.5-9.1-28.4.5-20.3 21.2-34 40.1-32.8 21.1 1.4 34.3 19.9 30.9 42.5zm4.7-29.5c-.4-1.2 6.5-4 8.6-5 2.6-1.3 8.4-3.5 10-2.6 1.4 1.6-7.9 4.7-8.8 5-1.3.5-9.3 3.8-9.8 2.6zm9.4 40.3c-3.3-1.3-9.1-2.1-8.8-4 .8-1.4 6.3.4 8.9 1.1 2.8 1 9.3 1.8 9.3 3.9 0 1.8-8.2-.5-9.4-1zm-19.1 306c0-.7-.1-1.2-.4-1.7l.6-48.7c.2-16.9 1.6-34.4-1-51.2-.2-1.2-.7-2-1.5-2.4-.6-.7-1.5-1.1-2.7-1.2-5.2-.1-20.8 0-22.8-1.3-1.1-.7-1.7-2.1-2.8-2.8-3.2-2.3-7.7-.9-10.2-3.9-2.2-2.6-4-4.9-7.2-6.4-6.3-3-13.5-1.4-18.4 3.4-1.9 1.8-3 3-5.7 3.4-2 .3-3.9.4-5.7 1-2.6.9-4.7 2.5-6.4 4.5-7.1.2-14.3.3-21.4.5-.9 0-1.6.3-2.1.7-1.8.2-3.5 1.4-3.5 3.8.1 24.2.2 48.4.4 72.6.1 11.5-.3 23.2 0 34.8-.3.6-.5 1.2-.6 2l-.3 5v.3c-.2.5-.3 1-.3 1.7.3 8 .5 16 .8 23.9 0 1.4.7 2.4 1.5 3 .5 1.3 1.7 2.4 3.5 2.3 34.5 0 68.9 0 103.4-.1 2 0 3.2-1.2 3.7-2.7.2-.5.3-1.1.3-1.8-.9-12.9-1.2-25.8-1.2-38.7zm-8.4 34.9c-31.2.7-63.8 1.4-95.1.3-.9-25.9-1-112-1.1-134.4 4.7-.1 21.9-.1 24.5 0 .5-1.2 1.3-3.5 3.1-4.5 4.1-2 8.6-1.6 12.5-3.4.6-1.8 2.1-4.4 4.4-6 1.6-1.1 4.7-1.5 7.9-.4 4 1.5 4.3 6.1 7 7.6 1.8.9 8 2 9.8 3.2 2.3.9 3 2.1 3.1 3.4 4.7.2 19.5.1 24.3.2.3 19.4-.9 124-.4 134zm-274-118.9c-3-16.2-8.5-32.6-20.4-44.6-12.3-12.5-27.6-15.2-44.6-15.2-12.1-17.3-27.1-32.7-45.7-43-9.8-5.5-20.4-9.6-31.5-11.7-5.5-1.1-11.8-.9-17-3.1-4.1-1.7-7.2-5.3-10.8-7.9 0-3-1.6-5.5-4.6-7.1-.1 0-.1-.1-.2-.1-6.9-4.5-16.3.2-15.8 8.8.2 4.5 3.5 7.3 6.7 9.9 4.1 3.4 8.3 6.8 12.5 10.3 1.7 19.7 8.5 38.6 19.2 55.3 5.2 8 11.1 15.4 17.7 22.3 6.2 6.5 12.8 12.9 21.2 16.2v.1c-1.9 18.2 7.3 35.2 21.5 46.2 15.1 11.7 34.2 15.9 52.9 16.8 5.1.3 5.1-7.7 0-8-.3 0-.6 0-.9-.1.1-1.4-.3-2.8-1.7-3.8-6.2-4.5-12.5-8.7-18.5-13.4-3.7-2.9-7.4-6.3-9.8-10.4 3.3 1.5 6.6 2.8 9.8 4.5 5.1 2.7 11.9 8.8 17.5 5.1 1-.4 1.9-.8 2.8-1.3 5.8 5.5 14 8.2 21.4 11.3 3.9 1.7 6-3.4 3.9-6.3 0-.1 0-.2-.1-.2-.5-1.3-1.1-2.5-1.9-3.6.2-1.1 0-2.3-1.1-3.4-3.8-3.8-7.4-7.8-10.7-12 3.3-5.9-.4-13.1-3.2-19-2.2-4.7-4.6-9.3-7.3-13.7a60.6 60.6 0 0 1 30.4 25.9c2.2 3.7 7.3 1.5 7.5-1.8.8-1 1-1.9.8-3zm-52.8-28.6c5.8 9.6 17.3 25.6 14.9 27.9-.7 1.1 4.4 4.8 4.3 5.6-.3 1.6-2.3 4.5-4.1 6.8 2.9 3.9 10.7 11.6 14 15.2-3.7-1.8-12.1-8.7-16.5-12.3-2.9 2.4-7.1 4.8-7.3 4.9-1.5.8-4.5-3.5-6.1-4.4-.2.3-.6.5-1.3.1-5.2-2.2-19.7-8.6-25.8-11.9-1.2 4.9-.8 22.7 29 41.8-12.1-1.8-24.1-6.9-34.1-14.2-13.1-9.5-22.2-25.3-19.6-42.5-8.2-5.2-19.7-14.7-25.5-20.9-6.6-6.4-11.7-13.1-16.4-20.6-9.7-15.5-16.5-41.8-17-52.8.1-1.6-.2-2.1-1.1-2.9-3.8-3.1-11.2-10.5-15-13.6-1.6.5-3.3.9-4.6-.8-1.1-1.4.4-5.7 4.6-4.5.3.1 3.2 1.6 1.5 3.9-.2.3-.3.6-.5.8 3.9 3.2 11.4 10.4 15.3 13.6.2.4.8.4 1.7.4 3.2-.2 7.9.5 11.5 1 11.2 2.3 22.4 6.4 32.7 11.8 19.7 10.2 36.2 27.2 49.6 45.1 5.4-2 12.5-1.8 17.3-1.4 8.8 3.7 16.2 5.3 26.2 15.3 6.7 7.2 13.1 18 15.9 28.5-14-17.6-32.3-27.2-43.6-19.9z"/>
    <path class="uk-fill-default" opacity=".04" d="M252.3 188c-.2-.5-2.3.7-4.6-2.5-1.5-1.2-23.9-17.9-34.9-32.3-.3-.3-.2-1.3-.5-1.6-1.4-1.5-5.7-5.5-6.1-5.8 3.4-4.3 6.9-15 7-15.6 3.5-10.2 1.1-26.1-2.6-32.4-3.3-9.1-12.9-18.5-28.6-22.2-6.6-1.5-12.4-1.6-18.9-.7-12.5 2.6-19.3 9.1-19.6 9.4-5.8 4.3-10.4 12.5-10.5 12.6-2.7 5.4-4.6 11.3-4.8 17.5-.6 17.2 4.4 28.3 14.6 37.9 9 8.1 25.7 10.8 30.4 9.8 10.3-.8 23.6-5.8 29.4-11.9.8.9 4.5 3.8 6.3 5.3-.2.3-1.1 1.2-1.3 1.6 1.8 1.5 34.5 32.7 35.8 33.8 5.4 4.8 10.3 1.2 8.9-2.9zm-64.4-36.8c-16.4 6.6-34.5 3.7-46.1-10.4-4.9-6-6.9-13.5-7.4-21.1-.3-4.1.2-8 .7-12.1.5-3.6 1.7-6.8 3.6-9.8 6.2-12.1 19-14.8 30.6-16.9 16.3-3 35.2 9.6 38.1 28.5 2.6 16.7-2.2 34.8-19.5 41.8zm317.3-28.4c-.1 3.1-1.4 13.6-5.7 19.6-3.9 7.5-9.6 11.4-12.1 19.3-.3 1.1-1.8 11.4-1.8 11.5.5 0 .7-.1.6 0 .1 1.8.7 18 .4 19.5-.5-.1-1.9-.2-2.2.2-2.8 6.1-11.1 7.4-17.1 6.3-2.6-.5-8.4-1.2-10.7-6-.5 0-1.6-.1-2.1-.2-.3-1.4-.4-18.8-.4-18.8l.9-.1c11.6.4 21.3-.2 26.4-.5 0-.1-.7-2.4-.7-2.8-.4-7.6 2.3-14.3 5.1-21.2 3.2-7.6 5.8-15.2 6-23.5.3-9-2.6-18.2-8.1-25-5.8-4.7-3.8-10.7-19.7-11.6-1.5-.6-2-1.5-.2-1.4 4.5-1.3 11.6-.6 16.5.6 14.7 4.7 25.3 18.6 24.9 34.1zm22.9 19.3c-1 1.2-3.6.1-4.9-.1-2.2-.4-11.2-3.1-12.5-4-1.2-.8-1-1.7.7-1.8 1.4-.1 10 2.5 14.1 3.7 1.2.3 3.3 1.3 2.6 2.2zm-2-47c-2.2 1.1-12.6 5-14.9 5.8-.7.3-2.1.3-1.7-.9.3-.9 2.2-1.7 2.9-2 2.3-1 9.1-4.4 11.9-4.8.9-.1 3.1-1.2 3.7 0 .3.7-1 1.4-1.9 1.9zm-21.4-23.2c-1.1 1.4-5.6 7.5-6.7 9.1-.5.8-1.7 2.3-2.6 2-.8-.4.4-2.4.9-3 1.1-1.6 5.6-7.4 6.6-8.9.5-.8 1.6-2.6 2.8-2 1.3.5-.4 2.1-1 2.8zm-33.1-9.4c0 1.7-.2 10.3-.5 12.7-.2 1.8-1.3 1-1.5.3 0-1.5.1-11.1.1-12.7 0-1 .3-2.5 1-2.6 1 0 .9 1.5.9 2.3zM442 84.3c-.8-.5-2.9-4.5-3.2-5.1-.4-.8-4.5-5.8-5-7.1-.1-1.5 0-2.2 1.2-1.6 1.2.6 6.6 9.5 8.2 12.7.6 1.1 0 1.8-1.2 1.1zm-15.5 18.6c-.7.6-2.4-.2-3.1-.4-2.2-.7-12.8-4.4-14.9-6.4-.7-.4-.7-1.2-.1-1.7s1.9-.1 2.4.2c3.3 2.2 13.9 5.9 15.4 7.1.6.2.8.7.3 1.2zm-5.5 26.4c-1.7.6-9 3.4-11 4.4-.8.4-3.5 1.7-4.1.2-.6-1.5 1.5-2 2.3-2.4 2.5-1 9.6-3.7 11.8-4.2.9-.2 3.4-1 3.7-.2.3 1.2-2 1.9-2.7 2.2zm70.7 218.5c-1-.1-8.6-.1-11.1-.1-4.7.1-12 .1-13.2-.1 0-.5-.6-1.5-1.8-2.7-.6-.6-6.5-2.6-6.7-2.5-1.4 1.8-2.4 3.3-3.8 5a617 617 0 0 1-33.3 1c.1-.5.1-1 .2-1.6.1-.7-.6-1.2-1.2-1.2-.7 0-.7 2-1.1 2-2.7-.1-24.6-.1-24.6-.1-.1.9.4 12.9.4 16.6 0 .2-.4 34.9-.3 66.6.2 26.6.9 51 1 51.3.5.1 41 .8 45.5.7.3 0 47.6-1.1 49.6-1.4 0-1.6-.3-50.1-.3-45.6s.8-86.4.7-87.9zm-4.5 41.1c0 .5-1.3 52.1-.9 63.6.1 3.2-.5 19.7.1 24.6-1.3 0-78.3.8-86.8.6-.1 0-.6-18.8-.1-28.3 0-.7-.7-14-.7-20.5 0-.6-.1-22.2-.1-26.4l-.1-51c0-.4-.1-1 .2-1 6.3.2 20.2.5 20.3 0 .2-.2.1 1 .1.7.1.1.1.3.1 1.1.7 1.4 4.1 3.9 4.6 4 2.3.4 28.3 5.3 31.8 5.2 3.6-.1 7.1-.4 10.6-.3 1.5 0 4.7-1.9 5.1-2.1 2.3-1.3 4.9-2 7.6-2.2 1-.1 1.3-6 1.1-6.7 2.3 0 4.7 0 7 .1 0 3.3 0 6.6-.1 9.9.4.7.4 20.2.2 28.7zm-46 56.9c0-.8 0-1.8-.2-2.6-.1-1.6-1.2-5.3-1.3-5.7-.1-.3-1.7-3.4-1.9-3.7-.9-1.6-3.5-3.7-3.7-3.9.2-1.7.2-3.7.4-5.4.1-1.5.1-9.3.1-10.7 0-.3-.2-3.1-.3-4.4-.4-5.4-2.1-15.3-6.6-18.2a2 2 0 0 0-1.5-.2c-.7.1-3.9 4.2-4.5 6.2-2 4.2-3.1 11-3.2 17.8 0 1.8 0 8.9.9 15.1-4 2.9-5.5 6.6-6.4 11.5-.3 3.3-.7 8.5 2.6 14.4-.3-2.9-.8-6.6-.2-9.2.7-3.1 2.8-6.3 5.5-7.2.7 3.4 1.7 7.8 2.6 9.5 2.3.8 4.9 1 6.8.1 1.5-3.7 2.3-7.5 2.6-9.6.6.4 1.6.2 4.1 3.7.1.2.4.9.5 1 1.8 2.7 1.4 7.7 1.1 9.6-.2 1.1.2 1.4.7.5 1.2-2.4 1.9-6.6 1.9-8.6zm-290.6-99.4c-3.7-3.6-8.2-6.7-12.3-9.8-.4-.3-2.5-2.2-2.9-1.7-.4.6 3.4 4.3 3.8 4.8 4.2 4.7 7.8 9.8 12.4 14.1 4.4 4.3 9 8.5 13.6 12.7 4.1 3.7 8.2 7.4 12.4 10.9 1.1.9 2.4 1.7 3.4 2.6 1.1 1 2 2.1 3.3 2.9.1.1.5-.1.6-.1.5.3.9.8 1.3 1.2 1.1 1.1 2.4 2.1 3.6 3.1.4.4 2 2.2 2.6 2.1 1-.3-2.2-2.7-2.8-3.3-2.1-2-3.9-4.1-5.8-6.3-1.7-2.2-4.1-4-6.1-6-2.3-2.3-4.2-4.9-6.5-7.1-2.3-2.1-4.8-4.1-6.8-6.4-1.8-2.1-4-3.9-5.8-6-2.6-2.7-5.4-5.1-8-7.7zm16.6-35.8c-4.8-1-15-.2-18 1.1.1.6 14.4 21.5 15.6 22.6 1.4-1.1 2.9-1.7 4.4-2.3 3.8-1.4 9.4 0 13.1 1.3 4.5 1.6 10.5 4.3 24.2 17.6-.9-6-5.6-14.3-8.1-17.8-9.4-15-26.8-21.5-31.2-22.5zm-53.9-15.7c-4.3-3.9-13-1.5-16.5 2.3-3.7 4.1-5.2 10.7-3 15.8 2.4 5.5 8.6 7.8 14.3 7 5.8-.9 9.7-4.9 11-10.4 1.4-5.7-.8-12.5-5.8-14.7zm-14.5 8.6c-1.5 1.7-.9 7-.1 8.8.4.9 1.5 1.8 1.6 2.7.2 1.3-.6.7-1.3-.1-2-2-3.9-5-3.8-7.9 0-1.2.4-3 1.6-3.6.3-.2 2.4-.4 2 .1zm2.4-4.6c-1 .2-1.9 3.6-3.3 2.8-1.2-.7.6-2.2 1.1-2.6.4-.3 1.1-.8 1.6-.8 0 0 1.3.5.6.6zm-65-61.5c0 .1 0 .2-.1.2.1 0 .2.1.3.1.3.3.6.5.7.9.2.8-.3 1.5-.9 1.8-1 .6-2.3.1-3.1-.6-1-.9-1.2-2.2-.5-3.3.4-.7 1.1-1.2 1.9-1.2.8 0 1.4.6 1.5 1.4.2.2.2.4.2.7zm59.7 32.2c-3.6 13.9-11.9 20.5-18.2 24.7-2.8 9.5 15.8 32.1 21.2 37.2 9.6 9.1 20.7 15.9 32 22.8 5.6 3.4 30.8 13.9 35.1 13.1 1.2 1.3 4.9 4.3 6 5.4-1.1 1.1-7.4 5.2-8.4 5.7-1.9-.8-11.2-4.4-14.2-5.9-8.4-4-10.4-5.4-12.5-6.4-1.7 7.6 3.8 16.7 5.5 19.5 3.5 4.9 3.5 7.1 18.9 20.4-.7 1.1-18.2-5.9-25.2-9.3-12.1-5.9-21.6-19.6-23.5-31.7-.2-1.2-1.3-10.2-.1-13.8-11.1-7.8-15.4-11.4-26.4-21.5-4.4-5.1-7.8-7.4-16.1-20.8-1.5-2.3-8-16.1-9.2-19.5-.5-1.4-6.5-20-7.5-34.5.1-1.5 1.5-1.4 3-.7 1 .8 1.2 1.9 2.4 2.5.9.5 1.9.3 1.7 1.7-.3 1.9-3 2.9-4 4.3 1.4-.2 3.5 7.2 3.9 8.2.6 1.6 1.1 3.2 1.7 4.8.5 1.2 2.1 3.2 2.7 4.2 8.1-3.1 13-10.7 15-16.7.9.7 5.4 1.7 5.9 1.9 1.5.8 3 1.7 4.4 2.6.6.8 5.8 1.9 5.9 1.8zm80.4-176.9c-3.4-.1-6.5-.8-10.3-.3-9.6 1.3-17.2 7.7-19.2 9.3-3.8 2.6-5.2 5.6-5.2 5.6s1.2-4.1 4.1-7.6c3.1-3.9 3.9-4.3 7.9-7.3 3.9-2.9 8-4.5 12.3-5.2.5-.1 5.8-1.2 7.4-.9 1.7.3 3.2 3.5 3.8 4.8.4.8.2 1.6-.8 1.6zm-12.5 37.8c-1.4.3-5.3.4-7.2.3-.7-4.6-.5-16.3-.4-19.6 1.7 0 5.1.1 7.4-.1-.2 5.6-.2 13.7.2 19.4zm11.1-22.6c.1 7.3 0 15.7.1 22.6-1.2.1-5.2.2-7.2.1-.2-6.5-.4-21.1-.3-22.6 1.1.1 4.7.2 7.4-.1zm277.7 33.9c-2.3-2.4-4.7-4.8-6.1-7.9-1.6-3.5-1.9-7.4-2.1-11.2-.2-3.3-.1-5.5.7-7.8.4-1.2.8-2.4 2.2-2.5 2-.2 6.5.6 8.5.6 1.3.4-6.9 2.6-3.2 28.8zm5.2-36.3c-.5 1.1-.1 3.2-.9 4.2-.6.8-3.4.1-4.3 0-1.6-.2-3.2-.3-4.7-.5 2.3-5 9.5-12.3 17.3-12.6-1.9 1.5-5.2 4.2-7.4 8.9z"/>
    <path class="uk-fill-default" opacity=".16" d="M210.1 155.8c5.6 4.3 10.1 9.6 15 14.6 3.1 3.1 6.4 6 9.7 8.8 3.1 2.7 6.2 5.3 9.3 7.9.9.8 1.8 1.5 2.7 2.3.8.7 1.7 1.5 2.7 1.8.3.1 2.9.2 2.9.2 1 1.8-4.1 2.1-4.9 1.9-2.2-.6-3.9-2.4-5.6-3.8-4.6-4-9.1-8-13.5-12.2-4.3-4.2-8.3-8.5-12.6-12.7-2.1-2-4.3-4-6.6-5.8-.3-.3-1.8-1.1-1.8-1.6 0-1 2.1-1.9 2.7-1.4zm-81.7-43c-.3 3.6-.2 7.3.2 11 1.7 16.5 11.4 30.4 27.4 35.7 8.4 2.8 17.2 2.8 25.8.8 7.3-1.7 16-4.1 20.7-10.4 1.1 1.1 4.4 5.4 6 5.4 3.5 0-.6-3.8-1.3-4.5-1.6-1.6-2.8-3.9-5.1-2.5-2.2 1.3-4.2 2.9-6.5 4-14.7 7.4-34.2 8.6-47.9-1.4-13.4-9.8-17.6-26.6-18.7-42.3 0 1.2-.5 3-.6 4.2zm339.2 236.7c-1.5-1.8-6.5-.6-8.6-.6h-5.6c-5.8 0-11.5 0-17.3.1-4.4.1-8.7.4-13.1.6-1 .1-2.6-.5-3.4 0-1.2.7-.7 2 .3 2.5 2 1.1 5.9.8 8.2 1 2.7.2 5.5.4 8.2.5 6.2.2 12.4.1 18.6-.3 2.6-.2 5.2-.5 7.8-.9.8-.2 6.7-.7 4.9-2.9zm-310.8 7.3c-7.1-5.3-12.9-12.5-19-18.9 9.3 13.4 22.1 23.9 34 34.9-.9 1.1-2.6 1.9-3.8 2.7-.4.3-3.4 1.8-3.5 2.3-.1.8 2.4 2.8 2.9 3.3 1.6 1.5 2 1.8 4 .6 1.1-.6 2.1-1.4 3-2.1.5-.4 1.5-1.7 2.2-1.8 1.4-.3 3.9 2.5 5.2 3.6 3.6 2.9 7.3 6.5 11.5 8.6-1.9-2.4-3.8-4.7-5.9-7-1.3-1.4-2.6-2.9-3.9-4.3-.8-.8-4.1-3.5-4-4.4.2-1 1.8-2.4 2.3-3.2 1.1-1.6 1.3-2.6-.3-4-.8-.7-2.2-1.4-3.3-1.3-1.6.2-2.7 2.7-3.8 3.9-4.4-4.4-8.6-9-13.4-12.9 2.7 2.7 4.9 6.1 7.1 9.2-4.3-2.9-7.6-7.3-11.2-10.9-4.7-4.7-9.6-9.5-14.8-13.7 3.3 2.7 5.7 6.2 8.7 9.2 2.2 2 4.1 4.1 6 6.2zM54.3 256.3c.3.9.4 1.7.9 2.6.7 1.2 2.5 3 .2 3.7-1.6.4-1.4-1.4-1.6-2.8-.2-1.5-.5-3-.5-4.5.1-1.4 1 1.1 1 1zm-20.8-20.9c-1.1 1.3-2.1 3.1-.7 4.6.6.7 3.7 1.4 3.1 0-.1-.3-1.3-.4-1.6-.7-.6-.5-.8-1.1-.9-1.8 0-.2.5-2.4.3-2.3l-.2.2zm167.7 107.4c.4.4 5.2 5.6 3.7 6.1-.4.1-5-4.7-5.5-5.2-2.5-2.2-5-4.3-7.8-6-4.7-2.8-9.9-5-15.3-5.9-3.1-.5-9.6-.2-11.8 2.7-2.2-4.3-11.4-17.2-14.2-21.5-.7-1-1.1-1.7.6-1.6 1.8.2 4.2 2.2 5.4 3.4 1.7 1.6 3 3.9 5.1 5.4 3.1 2.2 6.7 2.1 10.3 2.9 8.6 1.8 16.6 7.2 22.8 13.2 2.3 1.9 4.5 4.2 6.7 6.5zm-84.1-28.3c-.6.9-4 4.9-5.3 4.7-1.4-.2 1.3-4 1.6-4.9 2.9-6.9 1.9-13.3-4.2-18-.9-.7-2-1-2.9-1.7-1.2-.8-1.5-1.1-.3-1.4 3.2-.6 8 1.7 10.1 4.1 4.2 4.7 4.7 12.2 1 17.2zm-51.6-34.6c-1.5.7-6.4.2-7.2 1.6-.4.8 1.1 4 1.4 4.8.9 2.7 1.8 5.3 2.8 8 .4 1 .6 2.2 1.2 3.1.6 1 .5 1.1 1.9.9 1.5-.2 8.2-1.5 8.3-3 0-1.3-2.1-3.8-2.7-4.8-1.3-2.2-2.7-4.3-4-6.5-.4-.7-2.2-3.4-1.7-4.1zm10.4 3.3c-.5 0-2.2-.7-2.7-.4-.5.4 1.4 3.1 1.6 3.5.8 1.4 3.3 6.4 5.3 6 .5-.1 1.9-1.4 1.9-1.9.1-1-1.5-2.2-2.2-2.9-.2-.5-3.4-4.7-3.9-4.3zm48.1 75.5c-2.4-1.5-4.8-3-7.3-4.4-.7-.4-3.5-2.6-4.3-2.4-1.1.3 1 2.1 1.5 2.6 2.1 2 4.4 3.7 6.7 5.3 3.6 2.6 8.4 4.3 9.9 8.8 1.5 4.4 2.4 9.1 4.6 13.2 1.6 3 3.5 5.9 5.5 8.7-7.8-3-16.8-7.9-21.4-15.2-1.6-2.5-2.9-5.2-4.2-7.8-.6-1.1-3.2-4.7-3-6-1.5.2 1.9 9.2 2.2 10 1.7 4.6 3.6 8.6 6.7 12.5 5.1 6.5 12.2 11.4 19.4 15.2 5.9 3.1 13.6 7.1 20.5 6.5-3-1-5.6-4.3-7.8-6.5-3.2-3.3-6.2-6.8-9-10.4-4.7-5.9-9.6-14.6-7.4-22.4-4.3-1.9-8.4-5.1-12.6-7.7zm-41.9-70.6c1.2.7-.7-2-.7-2-.2-.2-1.6-2.1-2-1.6-.4.6 2.3 3.4 2.7 3.6z"/>
    <path class="uk-fill-default" opacity=".2" d="M158.5 83.4c14.5-5.2 31.2-2.7 41.3 9.8 7.9 9.8 10.1 23.4 6.8 35.5-.9 3.1-2.1 6.2-3.7 9-.3.5-1.8 3.5-2.5 3.4.7.1 3.2-8.3 3.4-9.2.9-3.2 1.8-6.5 2.1-9.8.7-8-3.2-16.5-7.6-22.9-4.4-6.4-11-10.9-18.4-13.3-4.1-1.4-8.4-2.2-12.7-2.2-2.1 0-4.2.1-6.3.3-.9.1-5.7.1-6.1.7.7-.7 3.1-1.1 3.7-1.3zm324.4 106.7c1-.9 5.5-8.7 2.3-9.4.7-.9 1.1-3.6.3-4.5.6-.1 1.1-1 .7-1.5-1-1.5-3.2-.8-4.6-.5-2.1.5-4.1.1-6.2.2-2.3.1-4.5.8-6.8.9-1.1.1-2.1 0-3.2.2-.8.2-2.3.4-2.2 1.5.2 1.4 3.2.8 4.1.8 2 0 4 .1 6.1.2.7 0 2.9-.3 3.2.3 0 .1-10.1.6-10.6.7-.8.1-2.2.4-1.8 1.6.4 1 2.2.7 3 .7 2.9-.1 6.2-.8 9-.2-.5.3-.5.8-.8 1-.3.2-1 .2-1.3.2l-4.1.3c-2.7.2-7-.8-9.4.4-1.1.5-1.2 1.3-.1 2 .7.4 2.1.1 2.9.1 3.1 0 6.2.1 9.2 0-.2.3-.2.6-.1.9-1.8.1-3.5.2-5.3.2-1.2 0-3.2-.4-4.4 0-1.1.4-1.4 1.1-.5 1.9.9.7 2.9.2 3.9.2 1.1 0 10.2-.6 10.5.4-5 .5-9.9.5-14.9.1-.7-.1-2.6-.4-3 .6-.6 1.6 2.1 1.6 2.9 1.6 2.5.1 3.1.3 5.5 1.1-2.9-.4-4-.4-7-.1-1.5.1-3.2 1.4-1.2 2.3 1.6.7 4.1.2 5.8.6 2.2.5 4.1 1.2 6.3 1.5 1.7.2 3.5-.6 5.1 0-1.2.5-6.8.5-6.8 1.9-.1 2.1 5.2 1.3 6.2 1.1 1.3-.2 10.4-4.4 8.5-6.9-.2-.2-.6-.5-.3-.7 1.7-.5.8-1.7-.9-1.7zm6.4-79s0-.1 0 0zm5.9 6.8c-1.3-6.1-4.6-11.8-9.3-15.9-.6-.5-1.8-1.7-2.8-1.5-1.4.4-.6 1.5 0 2.1 2.2 2.2 4.1 3.8 5.5 6.7 1.5 3.2 2.6 6.6 3.3 10.1.4 2.1.8 4.2.8 6.3 0 1.2-.6 4 .1 5 .9 1.1 1.7.7 2-.6.2-.6.4-2.3.6-2.8 1.2-2.8.6-6.5-.2-9.4zm-5.6 247.5c0-.8-1.1-14.3-1.7-14.2-1.1.2-.6 12.9-.6 14 0 5 .2 10 .2 15 0 10.1-1 57.2-1.1 70.7 0 8.4-.6 17.2.3 25.6-4.5 1.2-84.8 1.5-86.6 1.2-1.3.3-2 1.6-.8 2.6.9.7 3.2.5 4.3.5 1.8.1 3.6.1 5.4.1 5 .1 9.9.1 14.9 0 19.3-.1 59-1.5 59.5-1.5 1.5-.1 3.7-.1 5-1.1 1.2-1 .6-2 .4-3.4-.4-3.8-.4-7.7-.3-11.6.3-10.3.3-20.6.5-30.9.2-19.8 1.1-39.7.6-59.5.3-2.4.2-5 0-7.5zm-13.4 10.4c-1.1-.3-3 0-4.2 0-1.9 0-24.4 0-26.1.1-.3 0-1-.1-1.3.1-1.8 1.3 2.8 1.7 3.4 1.7 4.9.2 9.9.2 14.8.3h9.9c.7 0 6.2-1.4 3.5-2.2zm1.2 40.3c-1.6-.5-4.4 0-6 0H455c-1.6 0-9.7-.7-9.5 1 .3 1.6 16.1 1.1 18.2 1.2 2.7 0 5.4.1 8.2 0h2c.6 0 6.3-1.3 3.5-2.2zM93 294.3c-4.3 3.3-7.9 10.7-6.5 16.1.8 2.8 2.1 5.8 4 8.1.5.6 5.4 5.2 6.4 3.4-.1.2-5.6-4.6-6-5.1-2.2-2.6-3.3-5.6-3.1-9 .1-2.4.9-4.9 1.8-7.1.5-1.3 1.1-2.5 1.9-3.6.4-.5 1.4-1.3 1.6-1.9-.1.1.7-1.5-.1-.9zM187.3 104c-1.6.3-7.4-.5-8.1.5-.6.9 0 4.3 0 5.4 0 5.8.1 11.6.2 17.4 0 .7-.2 1.8.1 2.4.3 1 .2.7 1.6.8 1.6.1 3.6.6 5.2.3 1.1-.2.7.3 1.2-.6.2-.5 0-1.7-.1-2.2-.1-7.9-.2-16-.1-24z"/>
    <path class="uk-fill-default" opacity=".9" d="M250.2 184.7c-1.7-1.9-35.2-33.5-36.7-34.9-.5.5-1 1.1-1.4 1.6-.5-.7-1.6-1.7-2.1-2.2-1.1-1.2-2.1-2.6-3.7-3.2 4.7-7.6 8.1-16.6 8.7-25.4.2-2.5.1-5.1-.2-7.6-1-9.1-4.1-18.3-9.9-25.5-5.7-7-14.1-11.2-22.8-13-9.5-2-19-1.1-27.9 2.8-8.2 3.6-15.4 9.5-20.2 17.2-10 16.1-8.4 38.8 3.2 53.6 5.6 7.1 13.4 11.6 22.1 13.8 8 2 16.9 1.3 24.9-.8 7.1-1.8 13.8-5.1 18.7-10.5.4.9 2.1 2.3 2.7 2.9.3.3 1.8 2 2.7 2.2-.4.4-.7.9-1 1.3 5.3 5.3 10.7 10.5 16 15.8 4.7 4.7 9.4 9.2 14.5 13.5 2.4 2.1 4.8 4.3 7.4 6.2 2.1 1.5 5.4 1.9 7.1-.5 1.7-2.6-.4-5.5-2.1-7.3zM201 150.5c-6.8 6.2-16.1 9-25.1 10-4.4.5-9.2.9-13.5-.1-3.5-.7-6.9-1.8-10.2-3.2-7.8-3.4-13.9-9.4-18-16.8-8.8-15.9-7.9-38.2 4.8-51.8 6.1-6.5 14.1-10.8 22.8-12.7 9.2-2.1 18.9-.8 27.6 2.6 7.9 3.1 14.5 8.4 18.8 15.8 4.5 7.8 7 17.1 6.5 26.1-.2 2.3-.6 4.5-1.1 6.7-1.1 4.4-2.9 8.7-5 12.7-2 3.9-4.4 7.8-7.6 10.7zm1.9 0c1-1.1 1.9-2.3 2.8-3.6.2-.2.3-.5.4-.7.3.9 1.7 2 2.3 2.6 1.1 1 2.2 2 3.4 2.8-.6.7-2.8 3.2-3.2 3.7-.7-1.1-4.7-4.1-5.7-4.8zm44.9 42.5c-2.5-.4-4.4-2.8-6.1-4.5-4.1-3.9-8-7.9-12-11.9-7.1-6.9-14.2-13.8-22.3-19.7.9-.6 4.8-4.6 6-5.7 4.6 5 9.2 9.9 14.1 14.6 3.7 3.6 7.6 7.1 11.5 10.5 1.7 1.6 3.5 3.1 5.2 4.7 1 .9 2 1.8 3.1 2.7 1.7 1.5 4.2 3.2 4.6 5.6.4 2.6-1.8 4-4.1 3.7zm-39.9-80.5c-.8-8.6-4.7-16.8-10.8-23-6.3-6.3-14.7-9.9-23.6-10.1-8.1-.2-16.3 2.5-23.4 6.2-3.3 1.7-6.6 3.9-8.9 6.9-1.6 2.1-3 4.4-4.1 6.8-3.4 7.4-4.4 15.9-3 23.9.7 3.9 1.7 7.9 3.4 11.5 1.7 3.7 4.1 6.7 7 9.5 5.8 5.5 12.5 9.8 20.6 10.6 7.9.8 16.2 1 23.5-2.7 6.8-3.4 12.6-9 15.9-15.8 3.4-7.4 4.2-15.8 3.4-23.8zm-5.4 25.2c-2.3 3.7-5.3 6.4-8.8 9-3.6 2.7-7.4 4.8-11.8 5.9-3.8.9-7.8 1.1-11.8 1.1-3.9 0-7.8-.2-11.5-1.3-6.7-2.2-13.2-7.2-17.5-12.8-4.6-6.1-6.4-14.8-6.3-22.4 0-7.9 2.3-15.5 6.8-22 4.1-6 11.2-8.9 17.8-11.1 6.8-2.3 13.7-3.3 20.9-1.8 14.5 3 25.9 15.6 27.4 30.3.8 8.6-.6 17.6-5.2 25.1zm277.3-37.3c1.9.1 3.9 1.7 5.4 2.9 1.7 1.4 3.3 2.9 4.6 4.6 1.6 2.1 2.9 4.4 3.8 6.9.5 1.3.8 2.6 1 3.9.2 1 .7 3.3.2 4.1v-.4c0 .1.1.3.1.4-.5-.6-.4-2.9-.6-3.8-.3-1.3-.6-2.6-1.1-3.9-.9-2.7-2.2-5.2-3.9-7.4-2.6-3.2-5.7-5.8-9.5-7.3zm-23.8 77c9.7-.3 19.6-.8 29.3-.4-2 .5-4.7.3-6.8.4-2.3.1-9.9.1-11.4.1h-7.2c-1 0-3 .3-3.9-.1zm0 3.1c6.6-.1 24.3-.3 25.5-.3 1.1 0 2.6-.2 3.6 0-4.8.5-9.7.6-14.6.5-2.5 0-5 0-7.6-.1-2.1 0-4.8.3-6.9-.1zm.6 3.5c4.1-.1 8.2-.2 12.3-.4 2.6-.1 5.1-.2 7.7-.2 2.8-.1 6.2-.4 8.9.3-5.4.3-11 .3-16.6.3h-11.1c-.4.1-1 .1-1.2 0zm-.2 3c3.6 0 7.1-.1 10.7-.1h4.1c2.4 0 4.7-.1 7.1 0 2.1 0 4.6-.2 6.5.3-6 .4-12 .2-18 .1-2.3 0-4.6-.1-6.9-.1-.9-.2-2.6.1-3.5-.2zm.2 2.9c4.8.2 9.5 0 14.3-.1 2.3-.1 4.7-.1 7-.1 2.1 0 4.7-.3 6.7.2-4.7.4-9.5.3-14.3.3-2.3 0-4.7.1-7 .1-2.1-.1-4.7.1-6.7-.4zm46.1-84.2c-3.2-6-8.5-11.6-14.5-14.8-3.3-1.8-7-3.1-10.7-3.7-3.7-.6-7.6-.3-11.3.2-7.3 1-14.7 3.6-20.6 8.2-5.4 4.2-10 10.5-12 17.2-2.1 7.1-1.1 15.3 1.2 22.3s6.3 13.2 10.9 18.9c2.3 2.8 4.9 5.5 6.6 8.7 1.8 3.4 2.4 7.2 2.8 11 .4.1 0-4.3-.1-4.9-.2-1.8-.6-3.7-1.3-5.4-1.3-3.4-3.6-6.1-5.8-8.9-2.4-3.1-4.6-6.3-6.6-9.6-3.8-6.4-6.3-13.5-6.9-21-.3-3.8-.4-7.6.6-11.3.9-3.4 2.6-6.6 4.6-9.5 4.1-5.9 9.6-9.8 16.2-12.3 6.9-2.6 15.4-3.7 22.6-2 7.2 1.7 13.3 5.8 18.2 11.4 4.8 5.6 7.3 12.1 7.7 19.5.3 7.5-1.2 14.9-4.7 21.5-3.4 6.6-9.1 11.6-12 18.5-1.5 3.4-2.1 7.5-2.2 11.2 0 .2-.1 1.1-.1 1.8-1 0-2.1.2-3 .2h-3.5c-2.2 0-4.4 0-6.6.1-.4-4.6-.5-9.7-.3-16 .1-3.2.2-7.3.8-11.3 1-.1 1.9-.2 2.8-.4 1.4-.3 4-1.2 4.8-3.5.3-.9.3-1.8-.1-2.6-.4-.9-1.3-1.5-2.3-1.8a3.5 3.5 0 0 0-3 .4c-1.9 1.3-2.7 4.5-3 7h-1.8c-.3-2.5-1.1-5.4-2.9-6.7-.9-.7-2-.8-3.3-.5-1.8.5-2.9 2.4-2.4 4.4.3 1.3 1.3 2.4 2.9 3 1.3.6 2.8.6 4.1.7h.8c.7 7.2.6 14.6.6 21.7v5.8c-5.1.2-10.2.2-15.3.9-.1.3 2.9.4 3.3.4 1.5.1 2.9.2 4.4.2 2.8.1 5.6.2 8.3.2 2.7 0 5.3-.1 8-.2 2.5-.1 5-.7 7.5-.8.5 6.1.8 12.1.5 18.1-10.3-.5-20.7-.6-31-.4-.1-2.6-.4-5.1-.5-7.7 0-1.5-.2-2.9-.3-4.4-.1-.7-.1-1.4-.2-2.1 0-.6.1-1.8-.1-2.3-.3-.6-.3.2-.3.6-.1.8-.1 1.7-.1 2.5-.1 1.6-.1 3.1-.1 4.7-.1 2-.2 4-.2 6.1v3.5c0 .3-.1.9.1 1 .3.3 2.1.1 2.5.1h.4c.3.8 1.5 2.1 1.8 2.5 1 1.1 2.4 1.9 3.8 2.4 1.5.5 3.1.6 4.6.8 1.6.2 3.1.5 4.7.5 5.4.2 10.7-1.3 13-6.4h1.1c.4 0 1.7.1 2-.1.3-.3-.1-2.5-.1-2.9-.1-1.3-.5-9.4-.6-12.1V174c0-.8.2-.8-.5-1-.2-.1-.5-.1-.7-.1v-1.2c.2-1.9.5-3.9 1-5.8.9-3.6 2.2-6.7 4.2-9.8 1.9-3.1 4.7-5.6 6.9-8.6 4.4-5.8 7.5-12.7 8.4-20 .6-7.3-.1-15.2-3.7-21.8zm-27.4 33c.4-.2.8-.4 1.2-.4.3 0 .6.1.9.1.8.2 1.4.7 1.7 1.3.3.5.3 1.2.1 1.8-.6 1.8-2.8 2.5-4.1 2.8-.8.2-1.6.3-2.4.4.3-1.6.9-4.9 2.6-6zm-7 6.1c-1.3-.1-2.7-.1-3.8-.6-.7-.3-2-1-2.3-2.3-.3-1.3.2-2.8 1.7-3.2.3-.1.6-.1.9-.1.6 0 1.1.2 1.5.5 1.2.9 2.1 2.9 2.5 5.8 0-.1-.5-.1-.5-.1zm2.9 28.4h-.6v-5.7c.1-7.1.1-14.4-.6-21.6h1.6c-.5 4.1-.7 8.1-.7 11.3-.2 6.3-.1 11.5.3 16zm8.3 24.4c-2.5 1.2-5.3 1.5-8 1.7-2.9.3-5.8-.3-8.6-1.3-2.5-1-4.2-2.4-6-4.2 4.6.1 9.3.2 13.9.1 2.3 0 12.3-.3 13.3-.3-1.2 1.6-2.7 3.1-4.6 4zm-9-121.1c-.1 0-.1 0 0 0-.7-.1-1.1-1-1.1-1.7V64c-.1-1.1-.1-2.4.6-3.3.4-.6.8-.6 1.1-.6.5.2.8.9.8 1.5.2 3.4-.2 10.5-.2 10.9 0 1-.1 2.1-.3 3.1-.3.7-.7.9-.9.9zm-.6-1.8c0 .6.4 1.2.6 1.2.1 0 .3-.2.4-.6.3-.9.3-2 .3-3 0-.4.4-7.4.2-10.8 0-.6-.3-1-.5-1.1-.1 0-.3.1-.5.4-.6.8-.5 2-.5 3v10.9zM443 84.9c-.1 0-.3 0-.5-.1-1.4-.5-2.1-1.9-2.7-3.1l-.3-.6c-.7-1.5-3.5-5.2-3.7-5.5-.7-.9-1.5-1.8-1.9-2.9-.1-.3-.6-1.9-.1-2.5.1-.2.4-.3.9-.2.7.2 1.3 1 1.7 1.6.1.1 6.1 9.5 6.1 9.5 1.1 2.1 1.4 3.1 1 3.6-.1.1-.3.2-.5.2zm-8.6-14.5c-.1 0-.2.1-.2.1-.3.3-.1 1.5.2 2 .4 1 1.1 1.9 1.8 2.8.2.3 3 4 3.8 5.6l.3.6c.6 1.2 1.1 2.5 2.4 2.9.3.1.4.1.5 0 .1-.1.2-.7-1.1-3.1 0 0-6-9.3-6.1-9.4-.4-.6-.9-1.3-1.4-1.4-.1-.1-.2-.1-.2-.1zm61.3 12.8c-.4 0-.6-.2-.7-.4-.2-.4-.1-.9 0-1.3.9-2 2.3-3.7 3.6-5.3.8-1 1.6-2 2.3-3 .1-.2.2-.4.4-.7.8-1.3 2.1-3.6 3.4-3.9.3-.1.7 0 .9.1.3.2.5.4.5.7.1.7-.6 1.6-1.1 2.1-.1.1-1.8 2.3-2.5 3.3-.4.5-5.2 6.9-5.2 6.9-.2.7-.8 1.5-1.6 1.5zm9.5-14.1h-.2c-1.1.3-2.4 2.5-3.1 3.7-.2.3-.3.5-.4.7-.7 1.1-1.6 2.1-2.4 3-1.3 1.6-2.7 3.3-3.6 5.2-.1.3-.2.7-.1.8 0 0 .1.1.3.1.5 0 1.1-.7 1.4-1.2 0 0 7.6-10.1 7.7-10.2.4-.5 1.1-1.2 1-1.7 0-.2-.1-.3-.3-.4h-.3zm-79.5 34.3c-.7 0-1.5-.3-2.3-.6-.3-.1-11.1-4-13.6-5.5l-.1-.1c-.8-.5-2.1-1.2-2-2.3 0-.6.3-.8.5-1 .9-.5 2.4.1 3.1.4.9.4 1.8.9 2.7 1.4 1 .5 10.3 4.5 10.5 4.5.8.3 1.8.8 2.3 1.5.2.4.3.7.1 1-.2.5-.7.7-1.2.7zM409 94.3c-.2 0-.4 0-.6.1-.2.1-.3.3-.3.6-.1.8 1.1 1.5 1.8 1.8l.1.1c2.4 1.4 13.2 5.3 13.5 5.4.7.3 1.5.6 2.2.6.3 0 .6-.1.7-.3.1-.2 0-.4-.1-.5-.4-.6-1.3-1-2.1-1.3L411 94.9c-.6-.3-1.4-.6-2-.6zm-1.9 40.5c-.5 0-1-.1-1.4-.7-.2-.3-.3-.6-.2-.9.1-.4.4-.7 1-1 2.9-1.6 10.9-4.4 11.1-4.4 2.6-.9 5.3-1.7 6-.9.2.2.3.5.1 1-.4 1-1.7 1.4-2.8 1.8-.3.1-11.4 4.6-12.7 5-.2 0-.6.1-1.1.1zm-.4-2.2c-.4.2-.6.5-.7.7 0 .2 0 .4.1.6.3.5.9.6 2 .2 1.3-.4 12.4-4.9 12.7-5 1-.3 2.2-.7 2.5-1.5.1-.2.1-.4 0-.5-.4-.4-2.3-.1-5.5 1-.3.2-8.2 2.9-11.1 4.5zm103.7-31.3c-.2 0-.4 0-.6-.1-.5-.2-.6-.6-.6-.8 0-.8 1.5-1.9 5.1-3.4.2-.1 5.4-2.6 7-3.2 1.2-.4 3.6-1.1 3.7-1.1.8-.2 1.9-.5 2.5-.2.5.2.8.5.8.9 0 .6-.9 1.3-2.7 2.1-1 .4-1.9.8-2.7 1.2-2.7 1.1-11.4 4.3-11.5 4.3-.2.2-.6.3-1 .3zm4.1-3.8c-4.2 1.8-4.8 2.6-4.8 2.9 0 .1.1.2.3.3.4.2.9 0 1.3-.2.1 0 8.8-3.2 11.5-4.3.8-.3 1.8-.7 2.7-1.1 2.2-1 2.4-1.5 2.4-1.7 0-.2-.3-.4-.5-.4-.5-.2-1.5 0-2.2.2-.2 0-2.5.7-3.7 1.1-1.6.6-6.8 3.1-7 3.2zm12.3 45.3c-.7 0-1.4-.1-2.1-.2h-.1c-1.6-.3-3.4-.7-5.3-1.3-1.7-.5-5.7-1.8-5.9-1.9-1.3-.4-3.1-.9-3.5-1.9-.2-.5-.1-.8.1-1 .5-.5 1.8-.6 3.9-.2 2 .4 3.4.8 5.3 1.4 1.5.5 5.3 1.5 5.5 1.6 1.3.3 3 .7 3.7 1.8.3.5.3.9.1 1.2-.4.3-1 .5-1.7.5zm-16.5-5.6c.3.9 2 1.3 3.2 1.6.3.1 4.2 1.4 6 1.9 1.9.6 3.7 1 5.3 1.3h.1c2.4.4 3 .2 3.1 0 .1-.2 0-.5-.1-.7-.5-.9-2.2-1.3-3.3-1.6-.2 0-4-1.1-5.5-1.6-1.9-.6-2.6-.9-5.2-1.4-2.6-.5-3.2-.2-3.4 0-.2.1-.3.2-.2.5zM492 435.9c.2-18.2.6-68.7.5-75.7 0-3.7-.1-7.4-.2-11.2 0-.3.1-1.4-.1-1.6-.2-.2-1.4-.1-1.6-.1-1.6-.1-3.3-.1-4.9 0l-10.9.3c-1.8 0-3.6.1-5.5 0-.1 0-1.1-.1-1.5 0-.2-.9-.6-1.7-1-2.1-1.8-2-5.1-2.6-7.5-3.3-2.6-.6-5.1-.9-6.5-3.4-1.3-2.3-2.4-4.4-4.9-5.6a8.8 8.8 0 0 0-7.1-.4c-2.2.8-4.1 2.6-5.1 4.8-.3.6-.4 1.4-.9 1.9-.4.4-1.2.5-1.8.6-1.4.4-2.9.6-4.4.9-2.4.5-5.6 1.3-7.3 3.1-.8.8-1.4 2.1-1.7 3.5-.2-.2-1.9-.2-2.2-.2-1.1 0-19.7-.3-22.9-.4.6 3.2.1 19.6 0 25.6s.1 72.1.6 85.9c.1 3.8.3 7.7.4 11.5.1 2.9.2 5.7.2 8.6 0 1-.2 3.7.4 3.8.3.1 3.2.1 4.2.1 2.8.1 17.3.4 21.8.4 23.4.3 46.8.4 70.2-.6-.4-7.3-.5-14.7-.4-22 .1-8.1 0-16.3.1-24.4zm-23.9-85.6c.8.1 1.8 0 2.5 0 1.9 0 3.8 0 5.7.1 3.6 0 7.3.2 10.9.5-.3 4.4-.6 8.8-.5 13.3.1 4.4.3 8.7.1 13.1-.6 16.5-1.1 33-1.4 49.6-.3 16.3-.6 32.6.1 48.9-6.8-.1-13.7.5-20.5.6-12.8.3-25.5 1-38.2 1.1-3.5 0-7 0-10.4-.1-5.5-.1-10.9.3-16.4.2 0-5.6-.1-11.2 0-16.8.1-18.3.3-36.6.1-54.9-.2-18.2-.5-36.4-.8-54.6 6.6-.1 13.3 0 19.9-.5 0 .2 0 .4.1.6 4.3.1 8.7.2 13.1.2 6.5.1 13 .1 19.5.1 3 0 12.1-.4 13.6-.1.3 0 1.4.3 1.7.1.6-.2.8-.7.9-1.4zm-46.5-5.8c1.7-1.6 4.7-2.2 6.9-2.6 1.3-.2 2.6-.5 3.9-.7 1-.2 2.4-.3 3.2-1.1.6-.7.8-1.7 1.2-2.5.5-.8 1.1-1.6 1.8-2.3 3.2-2.9 8-2.9 11.3-.1 1.6 1.5 2.1 3.6 3.6 5.2s4.3 1.9 6.3 2.4c2.1.6 4.5 1.3 6.1 2.7 1.3 1.1 2 3.7 1 5.3-3.8-.4-7.8-.2-11.7-.2-12 0-23.9.3-35.9.7 0-2.2.7-5.2 2.3-6.8zm69.1 38.7c-.3 12.8-.4 25.5-.6 38.3-.1 6.9-.3 13.8-.3 20.7-.1 12.8-.2 25.6.6 38.4-6.7.4-13.4.6-20.1.9-24.6.9-49.2 1.2-73.8.3-.4-14.6-.7-29.2-.6-43.9.1-13.5.5-78.6-.4-89.8 8-.1 16-.3 23.9-.3-.2 1-.3 2-.3 2.9-.5-.3-3.7-.1-4.3-.1-1.8 0-7.6-.1-8.6-.1-2.7-.1-5.4-.1-8-.2v7.7c-.1 13.5.2 65.1.4 77.5.2 9.7.4 19.4.5 29.1 0 2.7.1 5.5.1 8.2v3.6c0 .4 0 1.6.2 1.9.4.2 19-.3 21.9-.1 11.2.2 61.1-.7 66.1-.5-.7-16.7-.2-33.5 0-50.2.2-14.4 1-50 .9-53.3 0-3.7-.4-7.4-.5-11-.1-3.8.1-7.5.2-11.3 0-.3.2-1.5 0-1.8-.2-.2-1.2-.1-1.5-.1-1.9-.1-3.8-.1-5.7-.1-3.8 0-7.6.1-11.4.2H468c.1-.7 0-1.5-.2-2.2.6.1 2.1 0 2.3.1 7 .3 14.1 0 21.1.5.2 11.5-.2 23.1-.5 34.7zm-46.1-45.4c-.9-.3-2.3.3-2.1 1.4h.1c-.3 1.1 0 2.4 1.1 2.8 1 .4 2-.1 2.2-1.2.3-1-.2-2.6-1.3-3zm1 2.3c-.2.8-1 1.2-1.7.7-.6-.4-.9-1.2-1.1-1.8.4-.2.7-.5 1.2-.4.9 0 1.8.6 1.6 1.5zm-1.9 62.7c-.9 1.1-1.3 1.3-2.6 1.4-2.4.1-4.9.2-7.3.4l-.3-1.7c-.5-2.4-1.1-4.9-2.2-7.2-.5-1-1-1.9-1.7-2.7-.5-.6-1.6-1.8-2.2-1.8-.2-3.8-.2-7.6-.4-11.3 0-.8-.1-1.5-.1-2.3 0-.4.1-1.6-.1-1.9-.5-.6-.4 1.2-.4 1.4v1.5c0 .8 0 1.5-.1 2.2l-.3 10.4c-3.6 3-5.4 7.6-6.5 12-2.1 9.1-1.6 18.9-.3 28.2.7 4.6 1.5 9.1 2.7 13.6.3 1.1.6 2.1.9 3.1.4 1 .3 1.2 1.3 1.5 1.9.5 4.2.7 6-.2 2-4.7 2.9-9.7 3.5-14.7.7-5.3 1.1-10.6 1.1-15.9 0-4.7-.2-9.4-1-14l7.3-.3c.4 0 1 0 1.3-.1.7-.2 1.1-1 1.6-1.6 1-1.3 2.1-2.6 3.1-3.9-1 1.2-2.2 2.5-3.3 3.9zm-9.6 25.8c-.5 6.8-1.2 14.2-3.9 20.6-2 .9-4.7.7-6.8-.2-.9-3.4-2-7.2-2.7-10.9-.7-3.8-1.2-7.6-1.6-11.5-.6-6.8-.9-13.8.2-20.7.5-3.1 1.3-6.3 2.8-9.1.7-1.4 1.5-2.7 2.5-3.9.5-.5 1.5-1.2 1.7-1.8.3-1 0-2.6 0-3.6 0-1.4 0-2.7.1-4.1 0-2.4-.3-5.2.2-7.6.3.8.1 2.6.1 3.3.1 1.3.3 9.4.4 10.3 0 .4-.1 1.1 0 1.5.2.6 1.6 1.4 2.2 2 .9 1.1 1.6 2.5 2.2 3.9 1 2.5 1.6 5 2 7.7-.7.1-1.3.1-2 .2h2l.3 2.1c.9 7.2.8 14.6.3 21.8zm-11.5-21.4c-.9 4.6 7.5 6.3 7.7 1.4.1-2.2-1.1-3.8-3.2-4.3-1.9-.4-4.1.9-4.5 2.9zm0 0c.4-2.2 2.4-3.9 4.7-3.4 2.2.5 3.5 2.2 3.4 4.4-.1 2.1-2.1 3.9-4.3 3.8-2.5-.1-4.3-2.5-3.8-4.8zm-2 32.5c-1.2 1-2.4 1.7-3.4 3.1-1 1.5-1.6 3.2-1.8 5-.3 3.2.1 6.6.7 9.8-.2-.4-.7-1.3-.7-1.4-2-3.8-2.9-7.8-2.7-12.2.1-2.9.5-5.7 1.7-8.3.5-1.1 1.2-2.1 1.9-3 .6-.8 1.8-2.1 2.7-2.3-3.6 2.9-5.3 7.3-5.9 11.8-.6 4.5 0 8.9 2.1 12.8-.5-2.8-.7-6 0-8.7.6-2.6 2.6-5.7 5.4-6.6zm17.8 16.7zm16-23.8c-1 1.3-2.1 2.6-3.1 3.9-.4.6-.9 1.3-1.6 1.5-.4.1-.9.1-1.3.1-2.7.1-5.4.3-8.2.3a23.24 23.24 0 0 1-1.8 17.9v.1c-.2.4-.4.8-.7 1.2.6-3.1 1.2-6.4.8-9.6-.3-1.8-1-3.7-2-5.3-.9-1.4-2.1-2.2-3.4-3.1 2.9 1 4.8 4.2 5.5 7.1.7 2.6.5 5.6 0 8.3 2.1-4 2.9-8.6 2.1-13.1-.2-1.2-.5-2.4-.9-3.6h-1c.3 0 .7-.1 1-.1-.4-1.2-.9-2.4-1.5-3.5-.5-.9-1.1-1.8-1.8-2.6s-1.6-1.5-2.2-2.2c2.9 2 4.8 5 5.9 8.3 2.7-.2 5.4-.4 8.2-.5 1.3-.1 1.8-.3 2.7-1.4 1.1-1.1 2.2-2.4 3.3-3.7zm-10-46.4c4.9-.4 9.7-.3 14.6-.2 2.4 0 4.9.1 7.3 0 2.4-.1 4.9.3 7.3.3-1.7.1-3.5 0-5.2 0-1.8 0-3.6.2-5.5.2s-3.8 0-5.7-.1c-4.2-.1-8.5-.3-12.8-.2zm0 3.3c8.6-.5 17.2 0 25.9.1-8.5.7-17.3.1-25.9-.1zm0 3.3c3.9-.4 7.7-.1 11.5 0 1.9 0 3.8-.1 5.6-.1 1.6 0 3.9-.2 5.4.3-3.8.6-7.7 0-11.5 0-1.9 0-3.8.1-5.6.1-1.6-.1-3.9.2-5.4-.3zm1.1 31c5-.6 9.9 0 14.8 0 2.4 0 4.9-.1 7.3-.2 2.2-.1 4.9-.1 7 .4-2.4.3-4.9.1-7.3.2-2.5.1-5 0-7.6-.1-2.4-.1-4.9-.1-7.3-.1-2.1-.1-4.8.2-6.9-.2zm0 3.3c8.6-.5 17.2 0 25.9.1-8.6.7-17.4.1-25.9-.1zm-233.8-65.9c-1.3-6.7-4.5-13.1-7.6-19.1-5.2-10.1-12.4-19.8-22-26.1-4.5-2.9-9.8-5.6-15.2-6.3-5.8-.7-12-.5-17.4 1.7-4.3-5.4-8.9-10.6-13.4-15.8-5.7-6.4-11.5-12.5-18.2-17.8-9.3-7.5-19.3-13.6-30.4-17.9-5.5-2.2-11.2-4-17.1-5.1-3.1-.6-6.3-1-9.4-1.2-1.5-.1-3.1-.1-4.6 0-.6 0-1.6.3-2.2.1-.5-.1-.5-.3-1-.7-.4.7.9.9 1.4 1 1.1 0 2.2.1 3.3.1 3.5.2 6.9.8 10.3 1.5 6.5 1.4 12.8 3.6 19 6.2 19.4 8.3 36.3 21 50.5 36.6 8.1 9 14.9 19 21.6 29 6.9 10.4 13.5 21 20.1 31.5.7-.4-8.4-16-9.4-17.7-1.5-2.5-2.9-5-4.5-7.5 3-1.8 7.2-2 9.7-1.6 4.2.6 8.2 2.2 11.8 4.3 3.8 2.2 7.6 4.7 10.9 7.6 3.4 2.9 6.2 6.5 8.6 10.3 1.1 1.8 2.2 3.7 3 5.7.7 2.3 1.9 1.9 2.2 1.2zm-7.1-12.7c-3.3-4.2-7.2-7.4-11.7-10.3-4.5-2.9-8.9-5.3-14.2-6.4-2.6-.5-5.3-.8-8-.4-1.2.2-4.6 1.2-5.6 2.1-2-3.1-3.9-6-6-9.1-3-4.4-6.3-8.7-9.6-12.8 1-.1 3-.6 3.5-.7 1.8-.2 3.5-.4 5.3-.4 2.8 0 5.5.2 8.2.7 5.5.9 10.9 4 15.5 7 4.8 3.1 9.2 6.9 13 11.3 3.8 4.5 6.7 9.5 9 14.9 1.1 2.5 2.2 5.1 3.2 7.8-.7-1.3-1.7-2.6-2.6-3.7zm-10.4 41.6c-2.9-3.3-5.9-6.6-8.9-9.8l-5.2-5.5c1.3-1.5 2.5-3.2 3.3-5 .6-1.2 1.1-2.2.1-3.4-1-1.1-2.5-2.1-3.7-3l-.1.1c1 1.2 2.3 2.2 3.2 3.5.7 1-.3 2.1-.8 3-.8 1.4-1.7 2.8-2.6 4.2-1.5-1.6-2.9-3.1-4.4-4.6.2-.2.3-.4.5-.7.8 1.3 2 2.4 3.3 3.3l.1-.1c-.9-1.3-2-2.5-3.3-3.3 1.5-2 2.8-4.2 3.8-6.6-.4.2-.8 1.4-1.1 1.9a42.82 42.82 0 0 1-3.5 5.2c-4-4.2-8.1-8.4-12.4-12.3-4.1-3.8-8.2-7.5-12.4-11.2-4.1-3.6-8.3-7.3-12.9-10.3v.1c4.8 3.3 9.1 7.5 13.4 11.4 7.6 7 15.2 14.1 22.3 21.6.5.5 15.3 15.9 19.5 20.5-1.8-1.2-3.4-2.5-5.1-3.8-2.3-1.8-4.6-3.5-6.9-5.4-1-.8-19.2-17.1-24.4-22.1-7.6-7.3-15.4-14.7-21-23.8 0 .9 1.4 2.5 1.9 3.4.9 1.4 1.8 2.7 2.8 4 1.8 2.5 3.8 4.9 5.8 7.2 3.9 4.4 8.3 8.4 12.6 12.5a484 484 0 0 0 13.3 11.8c-2.5 2.2-5.2 3.9-8.2 5.2-2.1-.9-4.2-1.8-6.2-2.7-13.5-6-26.8-12.8-39.3-20.7-14.7-9.2-28.4-20.2-39.3-33.8-5.5-6.9-9.8-14.4-13.3-22.2 1.3.3 4-.4 4.9-.6 2-.5 3.9-1.2 5.7-2.1 3.7-1.9 7-4.7 10.1-7.5 2.9-2.6 5.2-5.8 7-9.2 1.9-3.6 3.5-7.8 3.6-11.9h-.1c-.7 3.9-2.5 7.6-4.3 11-1.8 3.5-4 6.8-6.7 9.7-2.8 3-6 5.2-9.6 6.9-3.3 1.6-7.1 3.2-10.8 3.4-2.4-5.5-4.4-11.2-6.1-17 .8.2 2.2.1 2.8 0 1.3-.2 2.7-.5 3.9-1.1 2.5-1.2 4.8-3.2 6.9-4.9 3.7-3 6.5-7.4 7.2-12.2h-.1c-1.2 2.5-2.6 4.9-4 7.3-1 1.8-2.5 3.2-3.9 4.7-3.3 3.5-8.2 5.5-13 5.8-.9-3-1.7-6.1-2.4-9.1-.7-2.8-1.3-5.6-1.8-8.4.5 0 1.3-.2 1.4-.2.8-.3 1.3-.8 1.9-1.3 1-1 2.5-1.4 2.7-3.1-1.2.1-1.6 1.7-2.4 2.3-.4.3-2.8 1-3.7 1.6-.3-1.6-.5-3.1-.6-4.7-.1-1.2.2-2.8-.8-3.7-2.2-2.1-4.6-4.1-6.9-6.1-2.9-2.6-5.7-5.3-8.7-7.7-.6-.5-.4-.3-1.2-.1-1.8.6-3.9-.2-3.7-2.3.2-2.1 2-3.5 4.1-2.9 1.6.4 3.4 2.4 1.8 3.9l.1.1c1.4-1.3.4-3.1-.9-3.8-1.4-.8-3.3-.8-4.5.5-.9 1-1.5 3.2-.5 4.3 1 1.1 3.1 1.2 4.3.6 5.3 4.8 10.6 9.7 15.8 14.5.1 6.6 1.6 13 3.1 19.3 1.8 7.2 4 14.4 6.8 21.3 5.1 12.4 12.6 23.4 22 33 8.3 8.5 17.6 15.9 27.4 22.7-.4.8-.8 4.2-.8 4.8-.1 1.8-.1 3.7 0 5.5.3 3.9 1.2 7.7 2.6 11.3 2.8 7.2 7.4 13.3 13.4 18.1 10.9 8.6 24.4 14.2 37.7 17.7.9.2 3.6 1.4 4.4.7 1.2-1.2-1.3-2.1-2-2.4-3-1.6-5.9-3.5-8.6-5.6-5.4-4.1-10.2-8.9-14.2-14.4-4-5.3-7.8-11.8-7.8-18.6 0-.1.1-1.3.2-2.2 4.8 2.6 9.8 5 14.8 7.2 3 1.3 6 2.7 9 3.9 1.2.5 2.1 1.3 3.3.7.6-.3 1.3-.6 1.9-1 1.1 1.3 2.4 2.7 3.9 3.4-1.1-1.3-2.4-2.7-3.8-3.5.7-.4 1.3-.8 2-1.2.7 1.3 2 2.4 3.3 3-.9-1.2-2-2.2-3.3-3 .6-.4 1.2-.8 1.8-1.3.7 1.2 1.9 2.4 3.3 2.8-.9-1.1-2-2.2-3.2-2.9.7-.5 1.3-1.1 2-1.7l5.1 4.2c-1.7 1.7-3.6 3-5.8 4.1-1.3.7-1.9.8-3-.2s-2.2-1.9-3.4-2.8c-.1.8 2.2 2.6 2.7 3.2 1 1 1.9 1.6 3.3 1 2.4-1.1 4.6-3.2 6.5-5 2.5 2.1 5.1 4.1 7.6 6.1 3 2.3 8.8 7.3 10.7 7.7-.5-.2-.9-.7-1.3-1.2zm-55-8c5 10.2 13.3 18.6 23 24.5-4.4-1.1-8.8-2.4-13.1-3.9-10.6-3.8-20.3-10-27.3-19s-11-20.6-9.7-32.1c1.3.9 2.6 1.8 3.9 2.6 6.6 4.4 13.4 8.4 20.4 12.1-.1.3-.1.6-.1.8-.3 1.6-.3 3.3-.2 4.9.3 3.6 1.6 7 3.1 10.1zm-41.7-64.8c4.3 3 10.7 4.1 15.1 1 4.7-3.2 7.5-8.6 6.6-14.3-.4-2.4-1.5-4.8-3.1-6.6-1.9-2.2-4.6-3.2-7.4-3.6-3.1-.5-6.1-.3-8.7 1.4-2.3 1.5-4.3 3.5-5.7 5.8-3.2 5.6-2.1 12.4 3.2 16.3zm0 .1c-5.1-3.4-7-9.7-4.8-15.3 1.1-2.9 3.3-5.3 5.8-7.1 2.7-1.9 5.5-2.6 8.8-2.3 2.9.3 6.1 1.2 8.3 3.3 1.8 1.7 3 3.9 3.7 6.3 1.4 4.9.4 10.4-3.1 14.2-2.4 2.6-5.1 4.2-8.7 4.3-3.7-.1-7.1-1.4-10-3.4zm-.4-25.6c-1.9.5-3.4 2.5-4.6 4-1.4 1.8-2.3 3.7-3.1 5.8-1.6 4.5-2.4 9 .2 13.2 2.3 3.8 6 6.7 10.2 8 2.2.7 4.7 1 7 1.1 2.2.1 4-.6 6-1.1-3.9 2.2-9.6 1.7-13.6.3-4.3-1.5-8-4.8-10.1-8.9-2.2-4.3-1.4-9 .2-13.4.7-2.1 1.8-3.8 3.2-5.5.8-1.2 2.9-3.6 4.6-3.5zm25.5 19.6c1.2-5.2.7-10.1-1.8-14.9 3.1 4.3 3.8 10 1.8 14.9zm57.3 58.8c-1.1-.6-2.1-1.4-2.7-2.5 1 .5 1.8 1.3 2.5 2.2 0 .1.1.3.2.3zM370.1 45.3l-1-.4c-7.4-3.4-16.3-5.1-28.1-5.5v-1c10.9.4 19.5 1.9 26.6 4.8-10.9-9.4-31.7-15.8-54.2-16.7-24.9-1-48.1 4.7-63.5 15.8l-.6-.8c15.7-11.2 39-17 64.2-16 22.5.9 43.3 7.3 54.5 16.6-2.5-6.7-7.3-13-13-16.8l.6-.8c6.5 4.4 11.9 12 14.2 19.8l.3 1zm-35.2 399.8c-26.6 2-65.9-2.9-83.3-12.9 4.7 5.2 9.4 10.6 13.6 16.2l-.8.6c-4.8-6.5-10.3-12.6-15.5-18.5l-.4-.5c-.1-.1-.2-.1-.3-.2v-.1l-2.8-3.2 2.4 1.2c4.1 2.1 8.7 2.7 13.7 1.9 1.8-.3 3.7-.8 5.5-1.2 2.4-.6 4.9-1.2 7.4-1.5l.1 1c-2.5.3-4.9.9-7.3 1.4-1.8.4-3.7.9-5.5 1.2-4.2.7-8.2.4-11.8-.9 20.6 14.3 87.1 19.2 106.3 10.4l1.2.3c-4.7 3.2-12.8 4.1-22.5 4.8zm185.4-140.8l-.8-.7c11.7-13.5 24.6-69.9 10.5-101.3l.9-.4c14.2 31.9 1.3 88.7-10.6 102.4zm-8 13.4l.9-29.8h1l-.8 27.8c6.9-5.1 13.8-11 21.9-18.6l.7.7c-8.4 8-15.6 14.1-22.8 19.3l-.9.6zm-324.7-187c.3-.9 0-3 .1-3.9v-2.9-4.6c0-5.2-.4-10.3-.2-15.4-1.3.2-2.6.2-4 .2-.8 0-1.5-.1-2.3-.1-.5 0-1.7-.3-2.1-.1-.4.2-.1 0-.3.4-.3.6 0 1.8-.1 2.5 0 1.7 0 3.3-.1 5 0 1.7 0 15.6.7 18.6-4.5-.1-9-.1-13.5-.1-5.6.1-11.3.2-16.9.7 3.7.1 7.5.2 11.2.2 11.2.1 22.5.2 33.8-.2l-6.3-.3zm-7.9-.3s.1-17.3-.1-25.8c2.5-.1 5-.1 7.5-.4.1 4.5-.3 9-.3 13.5 0 4.3.2 8.6.6 12.9-2.5-.1-5.1-.2-7.7-.2zm-4.4-5.2c0 1 0 2-.1 3 0 .6.1 1.6-.2 2-.5-3.6-.6-7.3-.6-10.9 0-3.8.4-7.5.3-11.2-2.3.3-4.6.3-6.9.4.1 6.9.1 13.8 0 20.7v.8c-.1 0-.1-.1-.1-.2-.2-.6-.3-2.7-.3-3.1l-.3-4.4c-.1-2.8-.1-11.2-.1-12.6 0-.4 0-1.6.1-2 .5-.2 2 0 2.5.1.7 0 1.4.1 2.1.1 1.1 0 2.3 0 3.4-.2-.1 3.8.2 7.6.3 11.4 0 2-.1 4-.1 6.1zm-11.6 5.1c-.5-3.2-.6-6.4-.6-9.6 0-3.2.4-6.3.3-9.4-2.3.2-4.6.3-6.9.4.2 6.2.2 12.3 0 18.5-.7.1-.9-13-.9-14.4 0-1.3 0-2.6.1-3.9 0-.9-.1-.9.9-.9 2.4.1 4.7.3 7.1 0-.1 3.3.2 6.5.3 9.8v5.1c-.1.9.2 3.6-.3 4.4z"/>
</svg>
