<svg width="2560" height="820" viewBox="0 0 2560 820" xmlns="http://www.w3.org/2000/svg">
    <path opacity=".65" fill="#e1f0fb" d="M0 0v687.4c132.6 30.6 260.6 43 386.3 38.7 180.1 58.6 384.5 118 609.7 9.7 204.3-98.2 295.7-211.7 398-311.5 354-291.3 574.5-281.9 885.9-209 118.8 67.1 218 153.5 280.1 224.3V0H0z"/>
    <path fill="#e1f0fb" d="M0 0v494.2c111.7 98.9 241.1 184.7 386.3 231.9 332.5-11.3 649.3-79.1 995.2-294.2 4.1-2.6 8.3-5.1 12.5-7.6 90.9-88.7 190.3-256.7 384.9-304 175-42.5 353.2 11.4 501 95 97.1 22.7 191.7 57.3 280.1 104.6V0H0z"/>
</svg>
