<svg height="64" xmlns="http://www.w3.org/2000/svg" viewBox="0 0 143.26 73"><defs><style>.cls-1,.cls-2{fill:#0096d6;}.cls-1{fill-rule:evenodd;}.cls-3{fill:none;}.cls-4{isolation:isolate;font-size:15.02px;fill:#f37321;font-family:HelveticaNeue-Bold, Helvetica Neue;font-weight:700;}</style></defs><title>Asset 1</title><g id="Layer_2" data-name="Layer 2"><g id="Layer_1-2" data-name="Layer 1"><path class="cls-1" d="M117.26,48C95.26,27.49,99.05,8.53,99.33,8.53c8.31,0,8.08-8.53,8.08-8.53h19.87s-.17,8.53,8.08,8.53c.29,0,4.07,19-17.93,39.47Zm0-6.09c-14.46-14.4-13.89-29.25-13.43-29.42C111,10.09,111,5,111,5h12.52s0,5.14,7.2,7.49c.4.11,1,15-13.49,29.42Z"/><path class="cls-1" d="M121.6,18.09a4.29,4.29,0,1,1-4.28-4.29A4.31,4.31,0,0,1,121.6,18.09Zm-4.28-3.72A3.72,3.72,0,1,0,121,18.09,3.67,3.67,0,0,0,117.32,14.37Z"/><path class="cls-1" d="M123.49,18.09a6.17,6.17,0,1,1-6.17-6.18A6.15,6.15,0,0,1,123.49,18.09Zm-6.17-5.43a5.43,5.43,0,1,0,5.43,5.43A5.42,5.42,0,0,0,117.32,12.66Z"/><path class="cls-1" d="M125.43,18.09A8.12,8.12,0,1,1,117.32,10,8.15,8.15,0,0,1,125.43,18.09Zm-8.11-7.38a7.43,7.43,0,1,0,7.43,7.43A7.42,7.42,0,0,0,117.32,10.71Z"/><path class="cls-1" d="M127.77,18.09A10.46,10.46,0,1,1,117.32,7.63,10.45,10.45,0,0,1,127.77,18.09Zm-10.45-9.6A9.66,9.66,0,1,0,127,18.14,9.68,9.68,0,0,0,117.32,8.49Z"/><rect class="cls-2" x="107.26" y="18" width="20" height="1"/><rect class="cls-2" x="117.26" y="8" width="1" height="20"/><polygon class="cls-1" points="124.69 11.23 110.46 25.46 110 25.06 124.23 10.77 124.69 11.23"/><polygon class="cls-1" points="110.46 10.77 124.69 25.06 124.23 25.46 110 11.23 110.46 10.77"/><path class="cls-2" d="M28.05,30.87c-1.13,8.75-5.62,13-14.95,13C3.5,43.88.31,38.71,0,33.94A30,30,0,0,1,.6,27H11.11a51.4,51.4,0,0,0-.62,5.17,2.53,2.53,0,0,0,2.67,2.67c2.1,0,2.79-1.19,3-3.06L20.44,5H32.15Z"/><path class="cls-2" d="M70.26,28c-.43,3.68-2.71,14.63-17.78,14.63C42,42.58,36.54,35.81,36,26.1,35.34,14.39,42.12,4.63,54.48,4.63c8.08,0,15.45,3.53,16.27,14.37H60.18c-.11-3.42-1.79-5.31-5.26-5.31-6.18,0-8,7.1-7.76,12.25.17,3,1.14,7.64,6.24,7.64,3.52,0,5.37-2.38,5.91-5.58h11Z"/><path class="cls-2" d="M78.94,5h11.7l-5.8,38H73.14Z"/><path class="cls-1" d="M122.06,11.91a3.78,3.78,0,0,1-.34-.74c-.06-.23,0-.46-.06-.68.34-.18.8,1.54,1.14,1.82A6.72,6.72,0,0,0,125,13.63c0,.51-.8.23-1.08.06a1.67,1.67,0,0,0-1.2-.35c-.18,0-.52.06-.69-.05s-.17-.23-.17-.46c-.12-.46,0-.86-.12-1.26"/><path class="cls-1" d="M118.57,9.46c0,.17.18.28.35.23.11-.4-.23-.46-.52-.29.06,0,.06.06.17.06"/><path class="cls-1" d="M121.26,13c-.29-.06-.8-.51-.69.11.06.29.58.52.75.69.51.46,1,1.43,1.83,1.31-.4-.45-.86-.8-1.2-1.25a3.29,3.29,0,0,0-.86-.92"/><path class="cls-1" d="M118.8,20c-.34-.06-.8.57-1,.8a2.18,2.18,0,0,0-.4,1.31c.23,1.37,1.66,1,2.63.86.29.57.74.34,1.26.4s.85.51,1.31.57c.8.06.12-1.77-.11-2.23s-.75-.63-1-1-.29-1-.52-1.37c-.45-.8-1.65-.11-2.17.4a1,1,0,0,0-.23.29"/><path class="cls-1" d="M123.55,21.46c-.4.4-.69,1.2,0,1.48.4.17.4,0,.74-.34s.28-.29.74-.29c.12-.85-1.26-.45-1.71-.8"/><path class="cls-1" d="M120.8,19.46a6.23,6.23,0,0,1,1.89-1.37c-.29-.69-.86-1-1.26-1.55a10.5,10.5,0,0,0-1.31-1.94c-.69-.69-1.26-.17-1.6.63a6.58,6.58,0,0,0-.35,1c0,.45.12.57.35,1-.46.23-.12.8-.06,1.2-.4,0-.29.4-.29.68-.22.12-.28.63,0,.69.12-.51.29-.29.46-.17,0,0,.12.17.17.17a1.51,1.51,0,0,0,.52,0"/><path class="cls-1" d="M112.52,18.94c.28.12.8.12,1,.35s.4.8.62,1c.4.46,1,.63.86,1.32-.4.23-.8,0-1.14.17-.06.06-.06.17-.12.29a2.51,2.51,0,0,1-1,.22c-1,.06-1.14-.45-1.77-1,.34-.51,1.49-1.14,1.09-1.88.23-.17.51-.12.51-.46"/><path class="cls-1" d="M115.2,17.34a6.79,6.79,0,0,1,.4-2.57,2.6,2.6,0,0,1,2.46-.74c-.17-.06-.8,1.48-.86,1.6-.4.8-.34.4-1,.28a1.6,1.6,0,0,0-1.2.4C114.63,16.77,114.92,17,115.2,17.34Z"/><path class="cls-1" d="M115.89,16.6c-.8.91.8,1.49,1.43,1.83.34-.63-.06-1.2-.4-1.72-.46-.74-.52-.11-1.09.12,0,.06,0,.06-.06.06"/><path class="cls-2" d="M136.26,39h1v4h-1Z"/><path class="cls-2" d="M138.86,39h.69l1.2,3.43L142,39h.31v4h1V39.86h0L140.92,43h-.46l-1.2-3.14h0V43h-1V39Z"/><rect class="cls-3" x="0.26" y="52" width="117" height="21"/><text class="cls-4" transform="translate(71.82 62.51)">Lviv</text></g></g></svg>