<svg width="105" height="31" viewBox="0 0 105 31" xmlns="http://www.w3.org/2000/svg">
    <path fill="#02a9e6" d="M58 1h3v29h-3V1z"/>
    <path fill="#333" d="M14 20.4c0 1.6-.6 2.8-1.8 3.6-1.2.9-2.8 1.3-4.9 1.3-2.2 0-4-.4-5.2-1.1v-2.4c.8.4 1.7.7 2.6 1s1.8.4 2.7.4c1.3 0 2.4-.2 3.1-.6.7-.4 1.1-1.1 1.1-1.9 0-.7-.3-1.2-.9-1.7-.6-.5-1.7-1-3.3-1.7-1.6-.6-2.7-1.1-3.4-1.5s-1.2-.9-1.5-1.5c-.4-.6-.5-1.3-.5-2 0-1.4.5-2.5 1.7-3.3 1.1-.8 2.7-1.2 4.6-1.2 1.8 0 3.6.4 5.3 1.1l-.9 2.1c-1.7-.7-3.2-1-4.6-1-1.2 0-2.1.2-2.7.6-.6.4-.9.9-.9 1.6 0 .5.1.8.3 1.2.2.3.6.6 1.1.9.5.3 1.5.7 3 1.2 2 .7 3.4 1.5 4.1 2.2.6.7 1 1.6 1 2.7zm6.8-12.3v10.6c0 1.4.3 2.4.9 3.1s1.4 1 2.7 1c1.8 0 2.7-.5 3.5-1.4.8-1 1.3-2.4 1.3-4.6V8.1h2.6v16.7h-2.1l-.4-2.4h-.1c-.5.8-1.3 1.5-2.2 2-1 .3-1.7.6-2.9.6-2.1 0-3.4-.5-4.4-1.5s-1.5-2.5-1.5-4.7V8.1h2.6zM87 3.6c0-.6.1-1 .4-1.3s.6-.4 1.1-.4c.4 0 .8.1 1.1.4.2.3.4.7.4 1.3s-.1 1-.4 1.3c-.3.3-.7.4-1.1.4s-.8-.1-1.1-.4c-.3-.3-.4-.8-.4-1.3zm2.8 21.2h-2.6V8.1h2.6v16.7zm11.7-2c.5 0 .9 0 1.3-.1s.8-.1 1-.2v2c-.9.3-1.8.4-2.7.4-3.3 0-4.9-1.7-4.9-5.2v-9.6h-2.4V8.9l2.4-1.1 1.1-3.6h1.5v3.9h4.9v2h-4.9v9.5c0 1 .2 1.8.7 2.3.5.6 1.2.9 2 .9zM80.4 9.5c-1-1-2.6-1.5-4.5-1.5-1.2 0-2.3.3-3.3.8s-1.7 1.2-2.2 2.1h-.1C69.4 9 67.7 8 65.1 8c-.5 0-1.2.1-1.6.2v2.1c.3-.1.8-.1 1.2-.1 1.2 0 2.1.3 2.7 1s.9 1.6.9 3v10.6h2.6v-9.2c0-1.9.2-3.1 1-4 .8-.9 2.1-1.4 3.7-1.4 1.2 0 2.3.3 2.9 1s.9 1.6.9 3v10.6H82V14.1c-.2-2.1-.7-3.6-1.6-4.6zM55.5 8c-1 .1-2.1.3-3 .7-1 .5-1.7 1.2-2.2 2.1h-.1C49.4 9 47.5 8 44.9 8c-1.1 0-2.1.2-2.9.7-.9.5-1.6 1.1-2.1 1.9h-.1l-.4-2.5h-2.1v16.7h2.6v-8.7c0-2.2.3-3.6 1.1-4.5.7-1 2-1.4 3.6-1.4 1.2 0 2.3.3 2.9 1 .6.7.9 1.6.9 3v10.6H51v-9.1c0-1.9.4-3.3 1.1-4.2.8-.9 2.1-1.4 3.6-1.4V8h-.2z"/>
</svg>
