<svg width="1420" height="1060" viewBox="0 0 1420 1060" xmlns="http://www.w3.org/2000/svg">
    <path opacity=".65" fill="#e1f0fb" d="M1412 665.9c0-71.8-49.5-159.6-129.4-247.4-2.9-219.2-209.1-303.7-460.7-325.4C698.5 37.8 571.6 3 458.3 3 271.5 3 114 99 0 222.2v648.7c16.6 9 34 17.7 52 26.1 86.7 96.9 222.9 149.2 380.6 159h111.1c41.6-2.4 84.2-7.5 127.3-15.2 19.2-3.4 38-7.4 56.4-11.9 371-11 684.6-133.1 684.6-363z"/>
    <path fill="#e1f0fb" d="M672 1029.7c18.6 0 37.1-.3 55.4-.8 346-84.6 555.2-353.4 555.2-605.7v-4.7C1171 295.8 1000.2 173 821.9 93.1c-49-4.2-99.6-6.1-150.9-6.1C420.5 87 116 192.7 0 414.7v407.7c14.4 27.3 31.9 52.2 52 74.6 172.9 80.6 408.3 132.7 620 132.7z"/>
</svg>
